<svg width="18" height="18" viewBox="0 0 18 18" fill="none" xmlns="http://www.w3.org/2000/svg">
<path d="M16.1747 3.91948L15.9103 4.00329L14.5023 4.12873L14.1047 4.76379L13.8161 4.67211L12.6956 3.66186L12.533 3.13648L12.3153 2.57623L11.6111 1.94454L10.7803 1.78198L10.7612 2.16223L11.5751 2.95648L11.9733 3.42561L11.5256 3.65961L11.1611 3.55217L10.6149 3.32436L10.6335 2.88392L9.91685 2.58917L9.67891 3.62473L8.95666 3.78842L9.0281 4.36611L9.96916 4.54723L10.1317 3.62417L10.9085 3.73892L11.2697 3.95042H11.849L12.2456 4.74467L13.2969 5.81117L13.2198 6.22573L12.3722 6.11773L10.9074 6.85742L9.85272 8.12248L9.71547 8.68273H9.33691L8.63154 8.35761L7.94641 8.68273L8.11685 9.40554L8.41497 9.06186L8.93922 9.04555L8.90266 9.69467L9.33691 9.82179L9.7706 10.3089L10.4788 10.1098L11.2877 10.2375L12.227 10.49L12.6962 10.5452L13.4915 11.448L15.0266 12.3508L14.0338 14.2475L12.9858 14.7347L12.5882 15.8186L11.0717 16.8311L10.9102 17.415C14.787 16.4812 17.6709 12.9988 17.6709 8.83517C17.6698 7.01661 17.1185 5.32404 16.1747 3.91948Z" fill="#D1E300"/>
<path d="M9.8522 13.4534L9.2087 12.2603L9.79932 11.0296L9.2087 10.8529L8.54551 10.1869L7.07626 9.85732L6.58857 8.83694V9.44275H6.3737L5.10751 7.726V6.31582L4.17938 4.80663L2.70563 5.06932H1.71282L1.21332 4.74194L1.85063 4.23682L1.21501 4.38363C0.448883 5.692 0.0022583 7.21019 0.0022583 8.83638C0.0022583 13.7149 3.9572 17.6716 8.83632 17.6716C9.21207 17.6716 9.58051 17.6384 9.94501 17.5945L9.85276 16.5241C9.85276 16.5241 10.2583 14.9344 10.2583 14.8804C10.2578 14.8259 9.8522 13.4534 9.8522 13.4534Z" fill="#D1E300"/>
<path fill-rule="evenodd" clip-rule="evenodd" d="M3.28502 2.84906L4.85439 2.63025L5.57777 2.23369L6.3917 2.46825L7.6922 2.39625L8.1377 1.69594L8.78739 1.80281L10.3652 1.65488L10.8 1.17562L11.4131 0.766125L12.2805 0.896625L12.5966 0.848813C11.4542 0.311063 10.183 0 8.83577 0C6.09358 0 3.64164 1.24987 2.02277 3.21244H2.02727L3.28502 2.84906ZM9.20927 0.878625L10.1115 0.381938L10.6909 0.716625L9.8522 1.35506L9.0512 1.4355L8.69064 1.2015L9.20927 0.878625ZM6.93508 1.11713L6.53683 0.951187C6.52464 1.05026 6.0214 1.3794 5.96344 1.41731C5.95986 1.41964 5.95798 1.42087 5.95802 1.42087L6.53683 1.7595L7.74058 1.44337L7.45652 0.951187L6.93508 1.11713Z" fill="#D1E300"/>
</svg>
