<?xml version="1.0" encoding="UTF-8"?>
<svg width="211px" height="44px" viewBox="0 0 211 44" version="1.1" xmlns="http://www.w3.org/2000/svg" xmlns:xlink="http://www.w3.org/1999/xlink">
    <!-- Generator: Sketch 54.1 (76490) - https://sketchapp.com -->
    <title>Group 8 Copy</title>
    <desc>Created with Sketch.</desc>
    <g id="Page-1" stroke="none" stroke-width="1" fill="none" fill-rule="evenodd">
        <g id="Group-8-Copy">
            <g id="Group" transform="translate(0.000000, -0.000000)">
                <path d="M0,19.5800902 L4.78875134,19.2800988 C4.89245258,20.0578581 5.10355552,20.6504278 5.42206648,21.0578255 C5.9405727,21.7170691 6.68128476,22.046686 7.64422488,22.046686 C8.36272635,22.046686 8.91640861,21.878174 9.30528828,21.541145 C9.69416794,21.2041159 9.88860486,20.8133903 9.88860486,20.3689564 C9.88860486,19.9467442 9.70342684,19.568981 9.33306526,19.2356556 C8.96270367,18.9023302 8.10347769,18.5875276 6.75536152,18.2912383 C4.54800648,17.7949538 2.97399336,17.13572 2.03327493,16.3135173 C1.08514928,15.4913146 0.611093559,14.4432071 0.611093559,13.1691632 C0.611093559,12.332146 0.853676757,11.5414359 1.33885043,10.7970091 C1.82402411,10.0525823 2.55362548,9.46741981 3.52767645,9.04150398 C4.50172742,8.61558816 5.8368609,8.40263345 7.53311696,8.40263345 C9.61454906,8.40263345 11.2015246,8.7896555 12.2940913,9.56371121 C13.386658,10.3377669 14.0366328,11.5692007 14.2440353,13.2580495 L9.49972714,13.5358193 C9.3738042,12.8025034 9.10899964,12.2691907 8.70530551,11.9358653 C8.30161138,11.6025399 7.74422556,11.4358797 7.03313132,11.4358797 C6.44796002,11.4358797 6.00723634,11.5599489 5.71094707,11.8080912 C5.41465781,12.0562334 5.2665154,12.3580736 5.2665154,12.7136207 C5.2665154,12.9728738 5.38873288,13.2061981 5.63317153,13.4136006 C5.87020294,13.6284103 6.43314411,13.8284026 7.32201191,14.0135834 C9.52195972,14.4876462 11.0978246,14.9672573 12.0496539,15.452431 C13.0014832,15.9376046 13.6940489,16.5394332 14.127372,17.2579346 C14.560695,17.9764361 14.7773533,18.7801087 14.7773533,19.6689765 C14.7773533,20.7133962 14.4884756,21.6763218 13.9107116,22.5577824 C13.3329475,23.439243 12.5255713,24.1077356 11.4885589,24.5632804 C10.4515465,25.0188251 9.14418968,25.2465941 7.56644933,25.2465941 C4.79614468,25.2465941 2.87770045,24.7132814 1.81105909,23.64664 C0.744417729,22.5799987 0.140737402,21.2244956 0,19.5800902 Z" id="Path" fill="#FFFFFF" fill-rule="nonzero"></path>
                <polygon id="Path" fill="#FFFFFF" fill-rule="nonzero" points="22.0789212 8.71065083 37.3784817 8.71065083 37.3784817 12.7327575 32.2452958 12.7327575 32.2452958 24.9990719 27.2121071 24.9990719 27.2121071 12.7327575 22.0789212 12.7327575"></polygon>
                <path d="M38.6594956,16.8659721 C38.6594956,14.206776 39.4002077,12.1364858 40.881654,10.6550394 C42.3631004,9.17359309 44.4259834,8.43288103 47.0703652,8.43288103 C49.781412,8.43288103 51.87022,9.16063063 53.3368518,10.6161517 C54.8034837,12.0716727 55.5367886,14.1104826 55.5367886,16.7326426 C55.5367886,18.6363012 55.2164307,20.1973518 54.5757051,21.4158415 C53.9349796,22.6343311 53.0090895,23.5824425 51.7980071,24.2602042 C50.5869248,24.9379659 49.0777239,25.2768417 47.2703594,25.2768417 C45.433366,25.2768417 43.9130545,24.9842604 42.7093793,24.3990891 C41.5057042,23.8139178 40.529816,22.8880277 39.7816856,21.6213911 C39.0335552,20.3547545 38.6594956,18.7696307 38.6594956,16.8659721 Z M43.6926844,16.8881937 C43.6926844,18.5325992 43.9982281,19.7140349 44.6093247,20.4325364 C45.2204213,21.1510378 46.0518706,21.5102832 47.1036975,21.5102832 C48.1851534,21.5102832 49.022158,21.158445 49.6147365,20.4547579 C50.2073151,19.7510709 50.5035999,18.4881569 50.5035999,16.6659779 C50.5035999,15.1326809 50.1943526,14.0123539 49.5758487,13.3049633 C48.9573449,12.5975727 48.1184885,12.2438827 47.0592544,12.2438827 C46.0444636,12.2438827 45.2296804,12.603128 44.6148801,13.3216295 C44.0000799,14.040131 43.6926844,15.2289738 43.6926844,16.8881937 Z" id="Combined-Shape" fill="#FFFFFF" fill-rule="nonzero"></path>
                <path d="M67.5867454,8.71065083 L72.6088234,8.71065083 L72.6088234,18.421483 C72.6088234,19.3844231 72.4588292,20.2936472 72.1588363,21.1491824 C71.8588434,22.0047177 71.3884913,22.7528369 70.7477657,23.3935624 C70.1070402,24.034288 69.434844,24.4842705 68.731157,24.7435236 C67.7534024,25.106478 66.5793738,25.2879525 65.2090359,25.2879525 C64.4164621,25.2879525 63.5516808,25.2323991 62.614666,25.1212906 C61.6776512,25.0101821 60.8943482,24.7898203 60.2647335,24.4601985 C59.6351188,24.1305766 59.0592152,23.6620763 58.5370054,23.0546833 C58.0147955,22.4472903 57.657402,21.8213886 57.4648139,21.1769594 C57.1537102,20.139947 56.9981607,19.221464 56.9981607,18.421483 L56.9981607,8.71065083 L62.0202386,8.71065083 L62.0202386,18.6548096 C62.0202386,19.5436774 62.2665254,20.238095 62.7591063,20.7380831 C63.2516872,21.2380713 63.9349941,21.4880616 64.8090474,21.4880616 C65.6756935,21.4880616 66.3552968,21.2417748 66.8478778,20.7491939 C67.3404587,20.256613 67.5867454,19.5584919 67.5867454,18.6548096 L67.5867454,8.71065083 Z" id="Path" fill="#FFFFFF" fill-rule="nonzero"></path>
                <path d="M74.1098289,24.9990719 L74.1098289,8.71065083 L82.4984768,8.71065083 C84.0539955,8.71065083 85.2428383,8.843979 86.0650411,9.11063934 C86.8872438,9.37729968 87.5501811,9.87172498 88.0538728,10.5939301 C88.5575646,11.3161352 88.8094067,12.1957307 88.8094067,13.2327432 C88.8094067,14.1364254 88.6168215,14.9160249 88.2316455,15.5715649 C87.8464695,16.2271049 87.3168603,16.7585658 86.6428022,17.1659635 C86.2131828,17.4252166 85.6243167,17.6400231 84.8761863,17.8103895 C85.4761721,18.0103847 85.9131922,18.210377 86.1872598,18.4103722 C86.3724406,18.5437024 86.6409487,18.8288765 86.9927922,19.2659032 C87.3446357,19.7029299 87.5798118,20.0399539 87.6983275,20.2769853 L90.1315909,24.9990719 L84.4428654,24.9990719 L81.7540538,20.0214371 C81.4133211,19.3770079 81.1096292,18.9585056 80.8429688,18.7659176 C80.4800145,18.5140717 80.0689193,18.3881506 79.6096709,18.3881506 L79.1652392,18.3881506 L79.1652392,24.9990719 L74.1098289,24.9990719 Z M79.1652392,15.3104613 L81.2874005,15.3104613 C81.5170247,15.3104613 81.9614519,15.2363901 82.6206956,15.0882454 C82.954021,15.0215803 83.2262327,14.8512166 83.4373388,14.577149 C83.6484449,14.3030814 83.7539963,13.9882788 83.7539963,13.6327317 C83.7539963,13.1068182 83.5873361,12.7031302 83.2540107,12.4216553 C82.9206853,12.1401805 82.2947836,11.9994453 81.3762869,11.9994453 L79.1652392,11.9994453 L79.1652392,15.3104613 Z" id="Combined-Shape" fill="#FFFFFF" fill-rule="nonzero"></path>
                <polygon id="Path" fill="#FFFFFF" fill-rule="nonzero" points="97.0358291 8.71065083 110.524331 8.71065083 110.524331 12.1883287 102.080129 12.1883287 102.080129 14.7771432 109.913237 14.7771432 109.913237 18.09927 102.080129 18.09927 102.080129 21.3102889 110.768768 21.3102889 110.768768 24.9990719 97.0358291 24.9990719"></polygon>
                <polygon id="Path" fill="#FFFFFF" fill-rule="nonzero" points="112.401909 8.71065083 117.946194 8.71065083 120.835 13.721618 123.63492 8.71065083 129.123651 8.71065083 124.05713 16.5993131 129.601415 24.9990719 123.946022 24.9990719 120.735003 19.7658888 117.512873 24.9990719 111.890812 24.9990719 117.512873 16.5104268"></polygon>
                <path d="M130.291173,8.71065083 L138.657599,8.71065083 C140.479778,8.71065083 141.84454,9.14396738 142.751926,10.0106135 C143.659312,10.8772596 144.112998,12.1105452 144.112998,13.7105072 C144.112998,15.3549127 143.618573,16.6400481 142.629707,17.565952 C141.640842,18.491856 140.131641,18.954801 138.102059,18.954801 L135.346583,18.954801 L135.346583,24.9990719 L130.291173,24.9990719 L130.291173,8.71065083 Z M135.346583,15.6548958 L136.579881,15.6548958 C137.550228,15.6548958 138.231683,15.4863838 138.624267,15.1493548 C139.01685,14.8123257 139.213139,14.380861 139.213139,13.8549475 C139.213139,13.3438485 139.042775,12.910532 138.702042,12.5549849 C138.36131,12.1994377 137.720594,12.0216668 136.779875,12.0216668 L135.346583,12.0216668 L135.346583,15.6548958 Z" id="Combined-Shape" fill="#FFFFFF" fill-rule="nonzero"></path>
                <path d="M155.054561,21.3102889 L145.349157,24.9470419 L145.349157,8.71065083 L158.837659,8.71065083 L158.837659,12.1883287 L150.393457,12.1883287 L150.393457,14.7771432 L158.226565,14.7771432 L158.226565,18.09927 L150.393457,18.09927 L150.393457,21.3102889 L155.054561,21.3102889 Z" id="Combined-Shape" fill="#FFFFFF" fill-rule="nonzero"></path>
                <path d="M160.949598,20.2058785 L175.423283,14.7823826 C175.333035,15.0628636 175.215746,15.3259239 175.071415,15.5715649 C174.686239,16.2271049 174.15663,16.7585658 173.482571,17.1659635 C173.052952,17.4252166 172.464086,17.6400231 171.715956,17.8103895 C172.315941,18.0103847 172.752961,18.210377 173.027029,18.4103722 C173.21221,18.5437024 173.480718,18.8288765 173.832561,19.2659032 C174.184405,19.7029299 174.419581,20.0399539 174.538097,20.2769853 L176.97136,24.9990719 L171.282635,24.9990719 L168.593823,20.0214371 C168.25309,19.3770079 167.949398,18.9585056 167.682738,18.7659176 C167.319784,18.5140717 166.908688,18.3881506 166.44944,18.3881506 L166.005008,18.3881506 L166.005008,24.9990719 L160.949598,24.9990719 L160.949598,20.2058785 Z M160.949598,19.1013347 L160.949598,8.71065083 L169.338246,8.71065083 C170.893765,8.71065083 172.082608,8.843979 172.90481,9.11063934 C173.727013,9.37729968 174.38995,9.87172498 174.893642,10.5939301 C175.397334,11.3161352 175.649176,12.1957307 175.649176,13.2327432 C175.649176,13.3565785 175.645559,13.4780838 175.638327,13.597259 L160.949598,19.1013347 Z M166.005008,15.3104613 L168.12717,15.3104613 C168.356794,15.3104613 168.801221,15.2363901 169.460465,15.0882454 C169.79379,15.0215803 170.066002,14.8512166 170.277108,14.577149 C170.488214,14.3030814 170.593766,13.9882788 170.593766,13.6327317 C170.593766,13.1068182 170.427105,12.7031302 170.09378,12.4216553 C169.760454,12.1401805 169.134553,11.9994453 168.216056,11.9994453 L166.005008,11.9994453 L166.005008,15.3104613 Z" id="Combined-Shape" fill="#FFFFFF" fill-rule="nonzero"></path>
                <path d="M160.949598,20.2058785 L175.423283,14.7823826 C175.333035,15.0628636 175.215746,15.3259239 175.071415,15.5715649 C174.686239,16.2271049 174.15663,16.7585658 173.482571,17.1659635 C173.052952,17.4252166 172.464086,17.6400231 171.715956,17.8103895 C172.315941,18.0103847 172.752961,18.210377 173.027029,18.4103722 C173.21221,18.5437024 173.480718,18.8288765 173.832561,19.2659032 C174.184405,19.7029299 174.419581,20.0399539 174.538097,20.2769853 L176.97136,24.9990719 L171.282635,24.9990719 L168.593823,20.0214371 C168.25309,19.3770079 167.949398,18.9585056 167.682738,18.7659176 C167.319784,18.5140717 166.908688,18.3881506 166.44944,18.3881506 L166.005008,18.3881506 L166.005008,24.9990719 L160.949598,24.9990719 L160.949598,20.2058785 Z" id="Combined-Shape" fill="#D1E300" fill-rule="nonzero"></path>
                <path d="M191.627383,8.71065083 L191.627383,12.7327575 L186.494198,12.7327575 L186.494198,24.9990719 L181.461009,24.9990719 L181.461009,12.7327575 L180.893118,12.7327575 L191.626916,8.71065083 L191.627383,8.71065083 Z" id="Combined-Shape" fill="#D1E300" fill-rule="nonzero"></path>
                <polygon id="Path-2" fill="#FFFFFF" points="188.22483 2.23556676 192.112054 6.15691957 202.227733 4.6486537 193.823768 8.01531727 193.823768 12.887079 196.867603 10.5814788 202.227733 15.6795496 210.624187 9.05941988e-14"></polygon>
            </g>
            <path d="M8.22030862,39.2941157 L9.56191667,39.641351 C9.28068471,40.7704619 8.77470529,41.631455 8.04396323,42.2243563 C7.31322117,42.8172576 6.41997731,43.1137038 5.36420487,43.1137038 C4.27154955,43.1137038 3.38291599,42.8857591 2.69827753,42.4298629 C2.01363906,41.9739667 1.4926762,41.3137538 1.1353733,40.4492045 C0.778070397,39.5846552 0.599421627,38.6563416 0.599421627,37.6642358 C0.599421627,36.5823681 0.801121851,35.6387007 1.20452835,34.8332053 C1.60793485,34.0277099 2.18191606,33.4159206 2.92648921,32.9978189 C3.67106235,32.5797171 4.49054155,32.3706694 5.38495139,32.3706694 C6.39923059,32.3706694 7.2521344,32.635227 7.9436884,33.1643501 C8.6352424,33.6934731 9.11701779,34.4375413 9.38902903,35.3965769 L8.0681675,35.7154664 C7.83303914,34.9595763 7.49187761,34.4092021 7.04467269,34.0643272 C6.59746777,33.7194524 6.03501229,33.5470175 5.35728937,33.5470175 C4.57813852,33.5470175 3.92693494,33.7383493 3.40365908,34.1210187 C2.88038322,34.5036881 2.51271252,35.0174494 2.30063596,35.6623182 C2.0885594,36.3071869 1.98252271,36.972124 1.98252271,37.6571494 C1.98252271,38.540596 2.10815314,39.3118285 2.35941776,39.9708702 C2.61068238,40.6299119 3.00140453,41.1224142 3.53159593,41.4483918 C4.06178733,41.7743694 4.63576854,41.9373557 5.25355678,41.9373557 C6.00504547,41.9373557 6.6412656,41.7153164 7.16223628,41.2712309 C7.68320696,40.8271455 8.03589421,40.1681137 8.22030862,39.2941157 Z M16.89255,40.5129824 L18.1788341,40.6759704 C17.9759782,41.4460335 17.6002395,42.0436501 17.0516067,42.4688383 C16.5029738,42.8940265 15.8022096,43.1066174 14.949293,43.1066174 C13.8750791,43.1066174 13.0233279,42.767653 12.3940138,42.0897141 C11.7646996,41.4117751 11.4500473,40.4610214 11.4500473,39.2374243 C11.4500473,37.9713083 11.7681573,36.9886659 12.404387,36.2894676 C13.0406167,35.5902692 13.8658588,35.2406753 14.880138,35.2406753 C15.8621446,35.2406753 16.6643353,35.5831829 17.2867339,36.2682083 C17.9091325,36.9532337 18.2203271,37.9169791 18.2203271,39.1594735 C18.2203271,39.2350625 18.2180219,39.3484443 18.2134116,39.4996223 L12.7363313,39.4996223 C12.7824349,40.3263771 13.0106443,40.9594256 13.4209663,41.3987867 C13.8312884,41.8381479 14.3430306,42.0578251 14.9562085,42.0578251 C15.4126342,42.0578251 15.8022037,41.9349948 16.1249289,41.6893305 C16.4476541,41.4436663 16.7035253,41.0515541 16.89255,40.5129824 Z M12.8054863,38.4508301 L16.9063811,38.4508301 C16.8510567,37.8177721 16.6943068,37.3429857 16.4361267,37.0264568 C16.0396357,36.5351282 15.5255883,36.2894676 14.893969,36.2894676 C14.3222843,36.2894676 13.8416615,36.4855236 13.4520861,36.8776416 C13.0625107,37.2697596 12.8469796,37.7941505 12.8054863,38.4508301 Z M20.55105,42.936543 L20.55105,35.4107497 L21.6713619,35.4107497 L21.6713619,36.4808013 C22.210774,35.6540465 22.9899132,35.2406753 24.0088028,35.2406753 C24.4513973,35.2406753 24.8582555,35.3221685 25.2293895,35.4851573 C25.6005234,35.6481461 25.8782935,35.8619181 26.0627079,36.1264796 C26.2471223,36.3910411 26.3762104,36.7052033 26.4499762,37.0689754 C26.4960798,37.305191 26.5191312,37.7185622 26.5191312,38.3091014 L26.5191312,42.936543 L25.2743403,42.936543 L25.2743403,38.3587064 C25.2743403,37.839032 25.2259322,37.450463 25.1291146,37.192988 C25.0322971,36.9355129 24.8605637,36.7300084 24.6139095,36.5764682 C24.3672552,36.422928 24.0779595,36.3461591 23.7460136,36.3461591 C23.2158222,36.3461591 22.7582508,36.5185939 22.3732857,36.8634688 C21.9883207,37.2083436 21.795841,37.8626512 21.795841,38.8264111 L21.795841,42.936543 L20.55105,42.936543 Z M31.9549161,41.7956271 L32.1347193,42.9223701 C31.7843319,42.9979591 31.4708321,43.0357531 31.1942105,43.0357531 C30.7423952,43.0357531 30.3920131,42.9625273 30.1430537,42.8160736 C29.8940943,42.6696199 29.7189032,42.477107 29.6174753,42.2385292 C29.5160474,41.9999514 29.4653342,41.4980006 29.4653342,40.7326619 L29.4653342,36.4028505 L28.5524874,36.4028505 L28.5524874,35.4107497 L29.4653342,35.4107497 L29.4653342,33.5470175 L30.7032096,32.7816826 L30.7032096,35.4107497 L31.9549161,35.4107497 L31.9549161,36.4028505 L30.7032096,36.4028505 L30.7032096,40.8035263 C30.7032096,41.1672984 30.7251085,41.4011484 30.7689069,41.5050832 C30.8127054,41.6090181 30.8841649,41.6916924 30.9832876,41.7531084 C31.0824103,41.8145245 31.2241768,41.8452321 31.4085912,41.8452321 C31.546902,41.8452321 31.7290085,41.8286972 31.9549161,41.7956271 Z M33.9675258,42.936543 L33.9675258,35.4107497 L35.0878377,35.4107497 L35.0878377,36.5516657 C35.37368,36.0178183 35.6376192,35.6658622 35.8796631,35.4957869 C36.121707,35.3257117 36.3879513,35.2406753 36.6784039,35.2406753 C37.0979467,35.2406753 37.5243986,35.3776783 37.9577725,35.6516885 L37.5290111,36.835123 C37.2247274,36.6508748 36.9204482,36.5587521 36.6161644,36.5587521 C36.3441532,36.5587521 36.0998077,36.6426074 35.8831208,36.8103205 C35.6664339,36.9780336 35.5119892,37.2107026 35.419782,37.5083343 C35.2814712,37.9618684 35.2123168,38.4579138 35.2123168,38.9964855 L35.2123168,42.936543 L33.9675258,42.936543 Z M44.2994886,42.0082201 C43.8384526,42.4097867 43.3947121,42.6932412 42.9682538,42.8585922 C42.5417955,43.0239432 42.0842241,43.1066174 41.5955259,43.1066174 C40.7887129,43.1066174 40.1686288,42.904656 39.735255,42.5007273 C39.3018811,42.0967985 39.0851975,41.580675 39.0851975,40.9523414 C39.0851975,40.5838449 39.1670301,40.2472427 39.3306979,39.9425245 C39.4943657,39.6378063 39.7087442,39.3933267 39.9738399,39.2090785 C40.2389356,39.0248303 40.5374519,38.8854652 40.8693979,38.7909789 C41.1137469,38.7248385 41.4825702,38.6610613 41.9758787,38.5996452 C42.9809372,38.476813 43.7208889,38.3303615 44.195756,38.1602863 C44.2003663,37.9854867 44.2026715,37.874467 44.2026715,37.8272238 C44.2026715,37.3075494 44.0851091,36.9414206 43.8499807,36.7288265 C43.5318659,36.4406434 43.0593111,36.296554 42.4323021,36.296554 C41.8467864,36.296554 41.4145716,36.4016684 41.1356448,36.6119004 C40.856718,36.8221323 40.6504075,37.1941664 40.5167071,37.7280138 L39.2995781,37.5579393 C39.4102268,37.0240919 39.5923333,36.5930048 39.8459031,36.2646651 C40.0994729,35.9363253 40.465991,35.6835783 40.9454684,35.5064166 C41.4249459,35.3292549 41.9804859,35.2406753 42.6121052,35.2406753 C43.2391142,35.2406753 43.7485513,35.3162632 44.1404319,35.4674412 C44.5323125,35.6186192 44.8204557,35.80877 45.0048701,36.0378992 C45.1892845,36.2670284 45.3183727,36.5563882 45.3921384,36.9059874 C45.4336317,37.1233058 45.454378,37.5154179 45.454378,38.0823355 L45.454378,39.7830797 C45.454378,40.9688823 45.4808871,41.7188558 45.5339063,42.0330226 C45.5869254,42.3471894 45.6918095,42.6483599 45.8485618,42.936543 L44.5484468,42.936543 C44.4193567,42.6719814 44.3363714,42.3625436 44.2994886,42.0082201 Z M44.195756,39.1594735 C43.7439407,39.348446 43.0662279,39.5090703 42.1625974,39.641351 C41.6508474,39.71694 41.2889396,39.8019764 41.076863,39.8964627 C40.8647865,39.9909489 40.7011211,40.129133 40.5858621,40.3110191 C40.4706031,40.4929051 40.4129745,40.6948665 40.4129745,40.9169092 C40.4129745,41.2570597 40.5386049,41.5405143 40.7898695,41.7672813 C41.0411342,41.9940483 41.4088049,42.1074302 41.8928927,42.1074302 C42.3723701,42.1074302 42.798822,41.9999537 43.1722612,41.7849974 C43.5457003,41.5700412 43.8200126,41.2759571 43.9952063,40.9027363 C44.1289068,40.6145532 44.195756,40.1893714 44.195756,39.6271782 L44.195756,39.1594735 Z M48.1654537,42.936543 L48.1654537,32.5478303 L49.4102447,32.5478303 L49.4102447,42.936543 L48.1654537,42.936543 Z M62.2411357,42.936543 L58.3131286,32.5478303 L59.7653848,32.5478303 L62.4001924,40.0948828 C62.6122689,40.6995949 62.7897651,41.266504 62.9326863,41.7956271 C63.0894385,41.2287095 63.271545,40.6618004 63.4790112,40.0948828 L66.2175514,32.5478303 L67.5868214,32.5478303 L63.6173213,42.936543 L62.2411357,42.936543 Z M69.1914163,34.0147222 L69.1914163,32.5478303 L70.4362073,32.5478303 L70.4362073,34.0147222 L69.1914163,34.0147222 Z M69.1914163,42.936543 L69.1914163,35.4107497 L70.4362073,35.4107497 L70.4362073,42.936543 L69.1914163,42.936543 Z M78.16794,40.5129824 L79.454224,40.6759704 C79.2513682,41.4460335 78.8756294,42.0436501 78.3269966,42.4688383 C77.7783638,42.8940265 77.0775996,43.1066174 76.224683,43.1066174 C75.1504691,43.1066174 74.2987178,42.767653 73.6694037,42.0897141 C73.0400896,41.4117751 72.7254372,40.4610214 72.7254372,39.2374243 C72.7254372,37.9713083 73.0435473,36.9886659 73.679777,36.2894676 C74.3160066,35.5902692 75.1412487,35.2406753 76.1555279,35.2406753 C77.1375346,35.2406753 77.9397252,35.5831829 78.5621238,36.2682083 C79.1845224,36.9532337 79.495717,37.9169791 79.495717,39.1594735 C79.495717,39.2350625 79.4934119,39.3484443 79.4888015,39.4996223 L74.0117212,39.4996223 C74.0578248,40.3263771 74.2860342,40.9594256 74.6963563,41.3987867 C75.1066783,41.8381479 75.6184206,42.0578251 76.2315985,42.0578251 C76.6880241,42.0578251 77.0775937,41.9349948 77.4003189,41.6893305 C77.7230441,41.4436663 77.9789152,41.0515541 78.16794,40.5129824 Z M74.0808763,38.4508301 L78.181771,38.4508301 C78.1264467,37.8177721 77.9696968,37.3429857 77.7115166,37.0264568 C77.3150257,36.5351282 76.8009782,36.2894676 76.1693589,36.2894676 C75.5976743,36.2894676 75.1170514,36.4855236 74.727476,36.8776416 C74.3379006,37.2697596 74.1223695,37.7941505 74.0808763,38.4508301 Z M84.5442336,41.7956271 L84.7240368,42.9223701 C84.3736494,42.9979591 84.0601496,43.0357531 83.783528,43.0357531 C83.3317127,43.0357531 82.9813306,42.9625273 82.7323712,42.8160736 C82.4834117,42.6696199 82.3082207,42.477107 82.2067928,42.2385292 C82.1053649,41.9999514 82.0546517,41.4980006 82.0546517,40.7326619 L82.0546517,36.4028505 L81.1418049,36.4028505 L81.1418049,35.4107497 L82.0546517,35.4107497 L82.0546517,33.5470175 L83.2925271,32.7816826 L83.2925271,35.4107497 L84.5442336,35.4107497 L84.5442336,36.4028505 L83.2925271,36.4028505 L83.2925271,40.8035263 C83.2925271,41.1672984 83.314426,41.4011484 83.3582244,41.5050832 C83.4020228,41.6090181 83.4734824,41.6916924 83.5726051,41.7531084 C83.6717278,41.8145245 83.8134943,41.8452321 83.9979087,41.8452321 C84.1362195,41.8452321 84.318326,41.8286972 84.5442336,41.7956271 Z M86.5706743,42.936543 L86.5706743,35.4107497 L87.6909862,35.4107497 L87.6909862,36.4808013 C88.2303983,35.6540465 89.0095375,35.2406753 90.028427,35.2406753 C90.4710216,35.2406753 90.8778798,35.3221685 91.2490137,35.4851573 C91.6201477,35.6481461 91.8979178,35.8619181 92.0823322,36.1264796 C92.2667466,36.3910411 92.3958347,36.7052033 92.4696005,37.0689754 C92.5157041,37.305191 92.5387555,37.7185622 92.5387555,38.3091014 L92.5387555,42.936543 L91.2939645,42.936543 L91.2939645,38.3587064 C91.2939645,37.839032 91.2455565,37.450463 91.1487389,37.192988 C91.0519214,36.9355129 90.880188,36.7300084 90.6335338,36.5764682 C90.3868795,36.422928 90.0975838,36.3461591 89.7656378,36.3461591 C89.2354464,36.3461591 88.7778751,36.5185939 88.39291,36.8634688 C88.0079449,37.2083436 87.8154653,37.8626512 87.8154653,38.8264111 L87.8154653,42.936543 L86.5706743,42.936543 Z M100.049192,42.0082201 C99.588156,42.4097867 99.1444155,42.6932412 98.7179572,42.8585922 C98.2914989,43.0239432 97.8339276,43.1066174 97.3452294,43.1066174 C96.5384164,43.1066174 95.9183323,42.904656 95.4849584,42.5007273 C95.0515846,42.0967985 94.8349009,41.580675 94.8349009,40.9523414 C94.8349009,40.5838449 94.9167336,40.2472427 95.0804014,39.9425245 C95.2440692,39.6378063 95.4584477,39.3933267 95.7235434,39.2090785 C95.9886391,39.0248303 96.2871554,38.8854652 96.6191013,38.7909789 C96.8634504,38.7248385 97.2322737,38.6610613 97.7255822,38.5996452 C98.7306407,38.476813 99.4705924,38.3303615 99.9454594,38.1602863 C99.9500698,37.9854867 99.952375,37.874467 99.952375,37.8272238 C99.952375,37.3075494 99.8348125,36.9414206 99.5996842,36.7288265 C99.2815693,36.4406434 98.8090145,36.296554 98.1820056,36.296554 C97.5964898,36.296554 97.1642751,36.4016684 96.8853483,36.6119004 C96.6064215,36.8221323 96.400111,37.1941664 96.2664106,37.7280138 L95.0492816,37.5579393 C95.1599302,37.0240919 95.3420367,36.5930048 95.5956065,36.2646651 C95.8491763,35.9363253 96.2156945,35.6835783 96.6951719,35.5064166 C97.1746493,35.3292549 97.7301894,35.2406753 98.3618087,35.2406753 C98.9888177,35.2406753 99.4982548,35.3162632 99.8901354,35.4674412 C100.282016,35.6186192 100.570159,35.80877 100.754574,36.0378992 C100.938988,36.2670284 101.068076,36.5563882 101.141842,36.9059874 C101.183335,37.1233058 101.204081,37.5154179 101.204081,38.0823355 L101.204081,39.7830797 C101.204081,40.9688823 101.230591,41.7188558 101.28361,42.0330226 C101.336629,42.3471894 101.441513,42.6483599 101.598265,42.936543 L100.29815,42.936543 C100.16906,42.6719814 100.086075,42.3625436 100.049192,42.0082201 Z M99.9454594,39.1594735 C99.4936442,39.348446 98.8159314,39.5090703 97.9123009,39.641351 C97.4005509,39.71694 97.0386431,39.8019764 96.8265665,39.8964627 C96.6144899,39.9909489 96.4508246,40.129133 96.3355656,40.3110191 C96.2203066,40.4929051 96.162678,40.6948665 96.162678,40.9169092 C96.162678,41.2570597 96.2883084,41.5405143 96.539573,41.7672813 C96.7908376,41.9940483 97.1585083,42.1074302 97.6425961,42.1074302 C98.1220736,42.1074302 98.5485255,41.9999537 98.9219646,41.7849974 C99.2954038,41.5700412 99.5697161,41.2759571 99.7449098,40.9027363 C99.8786102,40.6145532 99.9454594,40.1893714 99.9454594,39.6271782 L99.9454594,39.1594735 Z M103.942819,42.936543 L103.942819,35.4107497 L105.056216,35.4107497 L105.056216,36.4666285 C105.286734,36.098132 105.593318,35.8016858 105.975978,35.5772809 C106.358638,35.3528761 106.79431,35.2406753 107.283008,35.2406753 C107.827031,35.2406753 108.273076,35.3564193 108.621159,35.5879106 C108.969241,35.8194019 109.214739,36.1430125 109.35766,36.5587521 C109.938565,35.6800298 110.694653,35.2406753 111.625946,35.2406753 C112.354383,35.2406753 112.914533,35.4473609 113.306414,35.8607383 C113.698294,36.2741157 113.894232,36.9107074 113.894232,37.7705324 L113.894232,42.936543 L112.656356,42.936543 L112.656356,38.1957184 C112.656356,37.6854926 112.616016,37.3181828 112.535335,37.0937779 C112.454653,36.869373 112.308277,36.6886707 112.0962,36.5516657 C111.884124,36.4146606 111.635168,36.3461591 111.349326,36.3461591 C110.832965,36.3461591 110.404208,36.5221371 110.063042,36.8740984 C109.721875,37.2260598 109.551294,37.7894256 109.551294,38.564213 L109.551294,42.936543 L108.306503,42.936543 L108.306503,38.0469033 C108.306503,37.4799857 108.205077,37.0548039 108.002221,36.7713451 C107.799365,36.4878863 107.467424,36.3461591 107.006388,36.3461591 C106.656001,36.3461591 106.332128,36.4406439 106.03476,36.6296164 C105.737391,36.818589 105.52186,37.0949571 105.38816,37.4587293 C105.254459,37.8225014 105.18761,38.3468923 105.18761,39.0319177 L105.18761,42.936543 L103.942819,42.936543 Z M122.600576,42.936543 L122.600576,32.5478303 L129.931012,32.5478303 L129.931012,33.7737834 L123.942184,33.7737834 L123.942184,36.9555924 L129.550659,36.9555924 L129.550659,38.1744591 L123.942184,38.1744591 L123.942184,41.7105898 L130.166139,41.7105898 L130.166139,42.936543 L122.600576,42.936543 Z M131.839889,42.936543 L134.523105,39.0248312 L132.040439,35.4107497 L133.596427,35.4107497 L134.723655,37.1752719 C134.935731,37.5106981 135.106312,37.7917905 135.235402,38.0185576 C135.438258,37.7067529 135.624975,37.4303847 135.795558,37.1894448 L137.033434,35.4107497 L138.520267,35.4107497 L135.982277,38.9539669 L138.713901,42.936543 L137.185575,42.936543 L135.677994,40.5980197 L135.276895,39.967327 L133.347469,42.936543 L131.839889,42.936543 Z M145.352984,40.17992 L146.577029,40.342908 C146.443328,41.2074573 146.101014,41.884205 145.550076,42.3731715 C144.999138,42.8621379 144.322578,43.1066174 143.520375,43.1066174 C142.515317,43.1066174 141.707363,42.7700151 141.096491,42.0968005 C140.485618,41.4235859 140.180186,40.4586594 140.180186,39.2019921 C140.180186,38.3894102 140.311579,37.6784118 140.57437,37.0689754 C140.83716,36.459539 141.237103,36.0024685 141.77421,35.6977503 C142.311317,35.3930321 142.895671,35.2406753 143.527291,35.2406753 C144.324883,35.2406753 144.977239,35.4473609 145.484379,35.8607383 C145.991518,36.2741157 146.316544,36.8611028 146.459465,37.6217172 L145.249252,37.813051 C145.133993,37.3075495 144.929987,36.927248 144.637229,36.672135 C144.344471,36.4170221 143.990632,36.2894676 143.575699,36.2894676 C142.94869,36.2894676 142.439253,36.5197744 142.047373,36.9803949 C141.655492,37.4410155 141.459555,38.1697298 141.459555,39.1665599 C141.459555,40.1775629 141.648577,40.9121826 142.026626,41.370441 C142.404676,41.8286994 142.897977,42.0578251 143.506544,42.0578251 C143.995242,42.0578251 144.403253,41.9042872 144.730589,41.5972069 C145.057924,41.2901265 145.265387,40.8177023 145.352984,40.17992 Z M148.423666,42.936543 L148.423666,32.5478303 L149.668457,32.5478303 L149.668457,42.936543 L148.423666,42.936543 Z M157.220387,42.936543 L157.220387,41.8310592 C156.648702,42.6814356 155.871868,43.1066174 154.889861,43.1066174 C154.456488,43.1066174 154.051935,43.021581 153.67619,42.8515058 C153.300446,42.6814305 153.021523,42.4676585 152.839414,42.2101835 C152.657305,41.9527084 152.529369,41.6373652 152.455603,41.2641445 C152.40489,41.0137559 152.379533,40.6169195 152.379533,40.0736235 L152.379533,35.4107497 L153.624324,35.4107497 L153.624324,39.5846595 C153.624324,40.2507877 153.649681,40.6995907 153.700394,40.9310821 C153.778771,41.2665083 153.944741,41.5298848 154.198311,41.7212195 C154.451881,41.9125542 154.76538,42.0082201 155.13882,42.0082201 C155.512259,42.0082201 155.862641,41.9101921 156.189976,41.7141331 C156.517312,41.5180741 156.748979,41.2511544 156.884985,40.913366 C157.02099,40.5755776 157.088992,40.0854375 157.088992,39.4429309 L157.088992,35.4107497 L158.333783,35.4107497 L158.333783,42.936543 L157.220387,42.936543 Z M160.595351,40.6901433 L161.826311,40.4917231 C161.895466,40.9972246 162.087946,41.3846125 162.403756,41.6538984 C162.719565,41.9231842 163.161001,42.0578251 163.728075,42.0578251 C164.29976,42.0578251 164.723906,41.938538 165.000528,41.6999602 C165.27715,41.4613824 165.415458,41.181471 165.415458,40.8602177 C165.415458,40.5720346 165.293286,40.345271 165.048937,40.17992 C164.878353,40.0665365 164.454206,39.9224471 163.776484,39.7476475 C162.863632,39.5114319 162.23087,39.3071084 161.878177,39.134671 C161.525485,38.9622335 161.258088,38.7236593 161.075979,38.4189411 C160.893869,38.1142229 160.802816,37.7776206 160.802816,37.4091242 C160.802816,37.073698 160.877733,36.763079 161.02757,36.4772581 C161.177407,36.1914372 161.381412,35.954044 161.639592,35.7650715 C161.833227,35.6186177 162.097167,35.4946064 162.431418,35.3930337 C162.765669,35.2914609 163.124119,35.2406753 163.506779,35.2406753 C164.083074,35.2406753 164.589053,35.3257117 165.024732,35.4957869 C165.460411,35.6658622 165.781979,35.896169 165.989445,36.1867143 C166.196911,36.4772596 166.33983,36.8658285 166.418207,37.3524327 L165.201078,37.5225072 C165.145753,37.1351135 164.985546,36.832762 164.72045,36.6154436 C164.455354,36.3981252 164.080768,36.2894676 163.59668,36.2894676 C163.024996,36.2894676 162.616985,36.3863146 162.372636,36.5800114 C162.128287,36.7737082 162.006114,37.0004719 162.006114,37.2603091 C162.006114,37.4256601 162.056827,37.5744737 162.158255,37.7067545 C162.259683,37.8437595 162.418738,37.9571414 162.635425,38.0469033 C162.759905,38.0941464 163.126423,38.202804 163.73499,38.3728793 C164.615569,38.6138193 165.22989,38.8110564 165.577973,38.9645965 C165.926055,39.1181367 166.199215,39.3413572 166.39746,39.6342646 C166.595706,39.927172 166.694827,40.2909387 166.694827,40.7255755 C166.694827,41.1507637 166.573807,41.5511432 166.331763,41.9267261 C166.089719,42.302309 165.740489,42.5928499 165.284064,42.7983575 C164.827638,43.0038651 164.311285,43.1066174 163.73499,43.1066174 C162.780646,43.1066174 162.053373,42.903475 161.553149,42.4971841 C161.052924,42.0908931 160.733662,41.4885522 160.595351,40.6901433 Z M168.990972,34.0147222 L168.990972,32.5478303 L170.235763,32.5478303 L170.235763,34.0147222 L168.990972,34.0147222 Z M168.990972,42.936543 L168.990972,35.4107497 L170.235763,35.4107497 L170.235763,42.936543 L168.990972,42.936543 Z M174.979998,42.936543 L172.186133,35.4107497 L173.500079,35.4107497 L175.076815,39.917722 C175.247398,40.4043262 175.404148,40.9098201 175.547069,41.4342189 C175.657718,41.0373766 175.812162,40.5602281 176.010408,40.0027592 L177.642467,35.4107497 L178.921836,35.4107497 L176.141802,42.936543 L174.979998,42.936543 Z M185.858285,40.5129824 L187.144569,40.6759704 C186.941713,41.4460335 186.565975,42.0436501 186.017342,42.4688383 C185.468709,42.8940265 184.767945,43.1066174 183.915028,43.1066174 C182.840814,43.1066174 181.989063,42.767653 181.359749,42.0897141 C180.730435,41.4117751 180.415782,40.4610214 180.415782,39.2374243 C180.415782,37.9713083 180.733893,36.9886659 181.370122,36.2894676 C182.006352,35.5902692 182.831594,35.2406753 183.845873,35.2406753 C184.82788,35.2406753 185.63007,35.5831829 186.252469,36.2682083 C186.874868,36.9532337 187.186062,37.9169791 187.186062,39.1594735 C187.186062,39.2350625 187.182388,39.3933267 187.179147,39.4996223 L181.702066,39.4996223 C181.74817,40.3263771 181.976379,40.9594256 182.386701,41.3987867 C182.797024,41.8381479 183.308766,42.0578251 183.921944,42.0578251 C184.378369,42.0578251 184.767939,41.9349948 185.090664,41.6893305 C185.413389,41.4436663 185.66926,41.0515541 185.858285,40.5129824 Z M181.771221,38.4508301 L185.872116,38.4508301 C185.816792,37.8177721 185.660042,37.3429857 185.401862,37.0264568 C185.005371,36.5351282 184.491323,36.2894676 183.859704,36.2894676 C183.288019,36.2894676 182.807397,36.4855236 182.417821,36.8776416 C182.028246,37.2697596 181.812715,37.7941505 181.771221,38.4508301 Z" id="CentralVietnamExclusive" fill="#D8D8D4" fill-rule="nonzero" opacity="0.699999988"></path>
        </g>
    </g>
</svg>