<svg width="16" height="17" viewBox="0 0 16 17" fill="none" xmlns="http://www.w3.org/2000/svg">
<path fill-rule="evenodd" clip-rule="evenodd" d="M11.9576 12.0171L15.8041 15.8637C16.0653 16.1216 16.0653 16.5461 15.8041 16.8041C15.5429 17.0653 15.1216 17.0653 14.8604 16.8041L11.0139 12.9608C9.85143 13.9143 8.36571 14.4857 6.74286 14.4857C3.01714 14.4857 0 11.4653 0 7.74286C0 4.02041 3.01714 1 6.74286 1C10.4653 1 13.4857 4.02041 13.4857 7.74286C13.4857 9.36571 12.911 10.8547 11.9576 12.0171ZM1.33878 7.74286C1.33878 10.7208 3.76163 13.1437 6.74286 13.1437C9.72082 13.1437 12.1469 10.7208 12.1469 7.74286C12.1469 4.7649 9.72082 2.33878 6.74286 2.33878C3.76163 2.33878 1.33878 4.7649 1.33878 7.74286Z" fill="white"/>
</svg>
