<svg width="18" height="18" viewBox="0 0 18 18" fill="none" xmlns="http://www.w3.org/2000/svg">
<path fill-rule="evenodd" clip-rule="evenodd" d="M8.99181 0C11.3943 0 13.65 0.937657 15.3483 2.63598C17.0466 4.33431 17.9805 6.59749 17.9805 8.99623C17.9805 11.395 17.0466 13.6544 15.3483 15.3527C13.65 17.051 11.3943 17.9849 8.99181 17.9849C7.50059 17.9849 6.03574 17.6159 4.73281 16.9155C3.76503 17.582 2.6052 17.9623 1.50185 17.9623C1.27967 17.9623 1.06503 17.9435 0.865447 17.9134C0.500175 17.8569 0.221514 17.5745 0.165029 17.2092C0.112309 16.8477 0.296828 16.4937 0.624443 16.3318C1.16294 16.0682 1.63741 15.5184 2.04034 14.6937C-0.878067 11.1464 -0.640829 5.91213 2.63532 2.63598C4.33365 0.937657 6.5893 0 8.99181 0ZM8.99181 16.9644C11.1194 16.9644 13.1228 16.136 14.629 14.6297C17.7395 11.523 17.7395 6.46192 14.629 3.3477C13.1228 1.84142 11.1194 1.01297 8.99181 1.01297C6.86419 1.01297 4.86084 1.84142 3.35457 3.3477C0.379673 6.32259 0.232811 11.1201 3.01942 14.2682C3.15122 14.4188 3.18511 14.6297 3.10603 14.8105C2.68051 15.7858 2.17214 16.4862 1.56587 16.9381C2.07423 16.9268 3.23407 16.795 4.38637 15.9025C4.47674 15.8347 4.58972 15.7971 4.69892 15.7971C4.78553 15.7971 4.87591 15.8234 4.95499 15.8686C6.17131 16.5841 7.56838 16.9644 8.99181 16.9644Z" fill="white"/>
<path d="M12.7575 6.02515H5.22614C4.94371 6.02515 4.71777 6.25109 4.71777 6.53351C4.71777 6.81594 4.94371 7.04188 5.22614 7.04188H12.7575C13.0399 7.04188 13.2659 6.81594 13.2659 6.53351C13.2659 6.25109 13.0362 6.02515 12.7575 6.02515Z" fill="white"/>
<path d="M12.7575 8.48413H5.22614C4.94371 8.48413 4.71777 8.71007 4.71777 8.9925C4.71777 9.27493 4.94371 9.50087 5.22614 9.50087H12.7575C13.0399 9.50087 13.2659 9.27493 13.2659 8.9925C13.2659 8.71007 13.0362 8.48413 12.7575 8.48413Z" fill="white"/>
<path d="M12.7575 10.9431H5.22614C4.94371 10.9431 4.71777 11.1691 4.71777 11.4515C4.71777 11.7339 4.94371 11.9599 5.22614 11.9599H12.7575C13.0399 11.9599 13.2659 11.7339 13.2659 11.4515C13.2659 11.1691 13.0362 10.9431 12.7575 10.9431Z" fill="white"/>
</svg>
