<svg width="20" height="16" viewBox="0 0 20 16" fill="none" xmlns="http://www.w3.org/2000/svg">
<path d="M20 0.000366211H0V16.0003H20V0.000366211Z" fill="white"/>
<path d="M0 0.00038147H4.10083e-05H0ZM2.23599 0.00038147L7.86841 4.50635V0.00038147H2.23599ZM12.1315 0.00038147V4.5064L17.764 0.00038147H12.1315ZM0 1.78928V5.33369H4.43048L0 1.78928ZM20 1.78928L15.5694 5.33369H20V1.78928ZM0 10.6669V14.2115L4.43069 10.6669H0ZM15.5693 10.6669L20 14.2115V10.6669H15.5693ZM7.86841 11.4944L2.23612 16.0003H7.86841V11.4944ZM12.1315 11.4944V16.0003H17.7638L12.1315 11.4944Z" fill="#00247D"/>
<path d="M0 0.000389099L9.99998 8.00035V6.80765L1.49088 0.000389099H0ZM9.99998 8.00035H11.4909L20 1.19309V0.000389099L9.99998 8.00035ZM9.99998 8.00035V9.19306L18.5091 16.0003H20L9.99998 8.00035ZM9.99998 8.00035H8.5091L0 14.8076V16.0003L9.99998 8.00035Z" fill="#CF142B"/>
<path d="M8.72114 0V6.39997H0.00012207V9.59995H8.72114V15.9999H11.279V9.59995H20.0001V6.39997H11.279V0H8.72114Z" fill="#CF142B"/>
</svg>
