<?xml version="1.0" encoding="UTF-8"?>
<svg width="43px" height="57px" viewBox="0 0 43 57" version="1.1" xmlns="http://www.w3.org/2000/svg" xmlns:xlink="http://www.w3.org/1999/xlink">
    <!-- Generator: Sketch 54.1 (76490) - https://sketchapp.com -->
    <title>hiker copy</title>
    <desc>Created with Sketch.</desc>
    <g id="Page-1" stroke="none" stroke-width="1" fill="none" fill-rule="evenodd">
        <g id="hiker-copy" fill="#00294E" fill-rule="nonzero">
            <path d="M42.8274401,20.1545008 C42.6575677,19.9259301 42.3810911,19.7961829 42.0943125,19.8112596 L40.9277135,19.8693652 L40.9277135,9.1179577 C40.9277135,8.65443346 40.5453047,8.27850781 40.0735365,8.27850781 L37.7038333,8.27850781 C37.2321771,8.27850781 36.8496563,8.65432341 36.8496563,9.1179577 L36.8496563,20.0721845 L36.7085625,20.0792276 L36.7084505,20.0792276 L28.514375,20.4264306 L25.2909427,17.3903028 C25.466638,16.2642866 25.1974401,15.1318877 24.5257891,14.1911932 C24.3692422,13.9719766 24.1945547,13.7702577 24.0053099,13.5855963 L24.3900703,10.9391502 C25.0103229,10.8987624 25.5944063,10.6539045 26.0575521,10.2302178 C26.589901,9.74325323 26.8975078,9.08351253 26.923487,8.37270932 L27.1246016,2.87963887 C27.1506927,2.16872562 26.8920208,1.48906614 26.396513,0.965675512 C25.9010052,0.442394935 25.2298021,0.140201778 24.5064167,0.114670528 L21.3152344,0.00165072737 C19.8150495,-0.0499620151 18.5556198,1.10301603 18.5017578,2.5746945 L18.3007552,8.06776495 C18.2746641,8.77867821 18.5333359,9.45833769 19.0288438,9.98172831 C19.1102526,10.0676762 19.1968125,10.1470211 19.2871797,10.2208637 L18.9726302,11.9197923 L17.9109557,11.7368917 C17.8305547,11.7230256 17.7506016,11.7158724 17.6709844,11.7119107 L18.2239375,8.61129445 C18.3136328,8.10859294 18.1979583,7.60060911 17.8984141,7.1812143 C17.5988698,6.76170946 17.1521849,6.48229634 16.6405521,6.39414749 L12.2431302,5.63679378 C11.1844792,5.45389318 10.1725234,6.15237096 9.98708594,7.19265935 L9.73020573,8.63385439 L8.17156771,8.25099569 C7.94234635,8.19454081 7.6996875,8.23415827 7.50148438,8.36005374 C7.30305729,8.48583917 7.16644271,8.68678772 7.12422656,8.91502829 L5.45260156,17.9364735 C5.37141667,18.3744665 5.65214844,18.7983732 6.09245052,18.9028093 L7.82588802,19.3142806 L7.27002344,22.4314041 C7.08447396,23.4715824 7.79475781,24.4663107 8.85329688,24.6485511 L13.2507188,25.4059048 C13.3311198,25.4197709 13.4110729,25.426814 13.4906901,25.4307757 L12.8348281,29.1088164 L10.1058958,38.2882912 L2.48929688,45.45707 C2.48627344,45.4599313 2.48358594,45.4632328 2.4805625,45.466094 C2.47933073,45.4673046 2.477875,45.468405 2.47641927,45.4697256 L0.258559896,47.649346 C-0.0750260417,47.9771805 -0.0750260417,48.5087147 0.258559896,48.8363291 L6.25605208,54.7305263 C6.41629427,54.8880057 6.63342188,54.9763746 6.85995573,54.9763746 C6.86040365,54.9763746 6.86096354,54.9763746 6.86152344,54.9763746 C7.08861719,54.9759344 7.30608073,54.8866851 7.46609896,54.7283253 L8.13629427,54.0648429 C8.92283594,53.2861398 8.99338281,52.0500752 8.30023177,51.1897161 L6.94797135,49.5113665 L14.7949115,42.0331313 C14.7981589,42.03016 14.8012943,42.0269686 14.8043177,42.0238873 C14.9203281,41.909877 15.0260365,41.7860725 15.1267057,41.6462008 C15.3946719,41.322108 15.5855964,40.9559767 15.6925365,40.5635438 L17.8807214,32.79357 L22.3325651,40.5169933 L22.3325651,51.6171444 L22.3325651,54.6997127 C22.3325651,55.1632369 22.714974,55.5391626 23.1867422,55.5391626 L31.6686042,55.5391626 C31.8956979,55.5391626 32.1133854,55.4503534 32.2736276,55.2921037 C32.4338698,55.133964 32.5234531,54.9196996 32.5226693,54.6966313 L32.5191979,53.7617694 C32.5149427,52.6643658 31.6755469,51.7414992 30.5663932,51.6148334 L28.3382318,51.3604013 L28.3382318,39.8784919 C28.3382318,39.7173809 28.3238984,39.55638 28.2944479,39.3872355 C28.250776,38.9718024 28.122224,38.5801398 27.9155104,38.2283148 L23.0752109,29.8309546 L24.1151615,23.9980544 L25.9864453,25.8370748 C26.0882344,25.9371088 26.2132031,26.0093006 26.3488099,26.048698 C26.4411927,26.0822628 26.5408542,26.1005308 26.6444349,26.1005308 C26.6568646,26.1005308 26.6694063,26.1003107 26.6819479,26.0997605 L36.8498802,25.6690307 L36.8498802,55.5055978 C36.8498802,55.969122 37.2322891,56.3450477 37.7040573,56.3450477 L40.0737604,56.3450477 C40.5454167,56.3450477 40.9279375,55.9692321 40.9279375,55.5055978 L40.9279375,25.4986756 C41.1284922,25.4081057 41.290862,25.2442435 41.3717109,25.0330605 L42.9370677,20.9453093 C43.0385208,20.6803125 42.9973125,20.3830715 42.8274401,20.1545008 Z M20.2089922,2.63500108 C20.2285885,2.10049555 20.6772891,1.67867969 21.2172526,1.67867969 C21.2294583,1.67867969 21.241776,1.67889978 21.2539818,1.67933998 L24.4455,1.79213968 C24.6884948,1.80072346 24.9158125,1.89536517 25.0938594,2.05889723 C23.7169635,3.53024555 21.4459141,4.26250822 20.1378854,4.57966797 L20.2089922,2.63500108 Z M20.0740573,6.31964467 C21.225987,6.07786813 23.5450755,5.45169221 25.3719036,4.07003341 L25.2165885,8.31218265 C25.2070703,8.5748684 25.0924036,8.8195062 24.8940885,9.00108621 C24.6955495,9.18255617 24.4373255,9.27664763 24.1718229,9.26784375 L20.9801927,9.15515409 C20.8729167,9.1513024 20.768888,9.13017309 20.6705703,9.09462742 C20.6209635,9.06524448 20.5677734,9.04070366 20.5114479,9.02155523 C20.4265677,8.97280374 20.3484063,8.91117659 20.2792031,8.83821444 C20.0944375,8.64309846 19.9981354,8.39108742 20.0077656,8.12829162 L20.0740573,6.31964467 Z M22.6710781,10.8946906 L22.4245,12.5900977 C22.1690755,12.4966665 21.9034609,12.4245847 21.6294479,12.3773739 L20.6550052,12.20966 L20.9099818,10.8324032 C20.9128932,10.8325132 20.9158047,10.8328433 20.9187161,10.8329534 L22.6710781,10.8946906 Z M8.12117708,17.6572804 L7.27763802,17.4572123 L8.64143229,10.0969491 L9.43458073,10.291845 L8.12117708,17.6572804 Z M9.14802604,22.9949624 C9.01958594,22.9729527 8.92989063,22.8474974 8.95251042,22.7211618 L11.6697969,7.48252707 C11.6923047,7.35630145 11.8199609,7.26848276 11.948513,7.29038241 L16.3459349,8.04773613 C16.474375,8.06974582 16.5640703,8.1952011 16.5414505,8.32153677 L14.550237,19.4883773 L13.8241641,23.5602815 C13.8016562,23.6865071 13.674224,23.7743258 13.5455599,23.7523161 L9.14802604,22.9949624 Z M6.96096094,52.2318753 C7.11773177,52.4265511 7.10183073,52.7059642 6.92389583,52.8821518 L6.85760417,52.9477407 L2.07027083,48.2428376 L3.00596875,47.3232724 L5.12707813,49.9558524 C5.12763802,49.9566227 5.1283099,49.957283 5.12886979,49.9580533 L6.96096094,52.2318753 Z M14.0445391,40.1223594 C13.9970599,40.2966762 13.9113958,40.4576771 13.7901224,40.6007402 C13.7736615,40.6201087 13.7579844,40.6403576 13.7434271,40.6611568 C13.6965078,40.7278462 13.6497005,40.7843011 13.6003177,40.8332726 L5.88226563,48.1885836 L4.23247656,46.1409114 L11.4524453,39.3455271 C11.5605052,39.2438423 11.6395625,39.1158559 11.6815547,38.9747737 L14.2735365,30.256182 L16.6548854,30.6662227 L16.6903828,30.7277398 L14.0445391,40.1223594 Z M30.3691979,53.281958 C30.6202552,53.3105706 30.8100599,53.5194426 30.8109557,53.767602 L30.8112917,53.8599327 L24.0409193,53.8599327 L24.0409193,52.5593796 L30.3691979,53.281958 Z M26.9483464,24.4080951 L19.0232448,16.6196332 C18.6896589,16.2917988 18.1487995,16.2917988 17.8154375,16.6196332 C17.4818516,16.9474677 17.4818516,17.4790019 17.8154375,17.8066162 L22.6398359,22.5478354 L21.3399818,29.8376676 C21.3058281,30.029372 21.3404297,30.2269091 21.4380755,30.3962737 L26.4329063,39.061712 C26.5248411,39.2180909 26.5800469,39.3914173 26.5970677,39.5769591 C26.5994193,39.6020501 26.6028906,39.6270311 26.6074818,39.651682 C26.6227109,39.7336681 26.6301016,39.8079508 26.6301016,39.8783819 L26.6301016,51.1648451 L24.0410313,50.8692548 L24.0410313,40.2955757 C24.0410313,40.1505318 24.0028464,40.008019 23.9300599,39.8817934 L18.3514818,30.2035788 C18.3511458,30.2029185 18.3508099,30.2023683 18.350362,30.201708 L18.0093854,29.6101973 C18.001099,29.595781 17.9942682,29.5809244 17.9869896,29.5660679 L17.9725443,29.5371251 C17.8519427,29.2972194 17.6222734,29.128295 17.3541953,29.0820746 L14.6566172,28.6174499 L17.3375104,13.582515 C17.3600182,13.4562893 17.4874505,13.3686907 17.6161146,13.3903703 L19.4284974,13.7024678 C19.4542526,13.7095109 19.4804557,13.7157837 19.5073307,13.7206258 C19.5374531,13.7260182 19.5673516,13.7292096 19.597138,13.7315206 L21.3348307,14.0308525 C22.0626953,14.1561977 22.6992969,14.5555637 23.1277292,15.155438 C23.2273906,15.2949795 23.3122708,15.4414541 23.3830417,15.5927707 L22.3016589,14.574272 C21.9611302,14.2534806 21.4203828,14.2648156 21.0940755,14.5994731 C20.7677682,14.9341305 20.7790781,15.4655547 21.1197188,15.786236 L27.5960339,21.8863339 C27.7642266,22.0448037 27.9916563,22.1284406 28.223901,22.1189764 L35.9290755,21.7924626 L36.0269453,24.0232555 L26.9483464,24.4080951 Z M38.5581224,9.95729755 L39.2195833,9.95729755 L39.2195833,19.9301119 L38.5581224,19.9301119 L38.5581224,9.95729755 Z M39.2195833,54.6660379 L38.5581224,54.6660379 L38.5581224,25.6652891 L39.2195833,25.6652891 L39.2195833,54.6660379 Z M39.9756667,23.9121065 L37.7340677,23.9663605 L37.6351901,21.713998 L39.7477891,21.6089017 L40.0737604,21.6089017 C40.1464349,21.6089017 40.2165339,21.5991074 40.2839453,21.5822699 L40.8792266,21.5526669 L39.9756667,23.9121065 Z" id="Shape"></path>
        </g>
    </g>
</svg>