<?xml version="1.0" encoding="UTF-8"?>
<svg width="55px" height="55px" viewBox="0 0 55 55" version="1.1" xmlns="http://www.w3.org/2000/svg" xmlns:xlink="http://www.w3.org/1999/xlink">
    <!-- Generator: Sketch 54.1 (76490) - https://sketchapp.com -->
    <title>hotel-2 copy</title>
    <desc>Created with Sketch.</desc>
    <g id="Page-1" stroke="none" stroke-width="1" fill="none" fill-rule="evenodd">
        <g id="hotel-2-copy" fill="#00294E" fill-rule="nonzero">
            <rect id="Rectangle" x="23.7841268" y="26.5286383" width="1.82952183" height="1.82952183"></rect>
            <rect id="Rectangle" x="20.1250832" y="26.5286383" width="1.82952183" height="1.82952183"></rect>
            <rect id="Rectangle" x="34.7612578" y="29.272921" width="1.82952183" height="1.82952183"></rect>
            <rect id="Rectangle" x="31.1022141" y="29.272921" width="1.82952183" height="1.82952183"></rect>
            <rect id="Rectangle" x="34.7612578" y="25.6138773" width="1.82952183" height="1.82952183"></rect>
            <rect id="Rectangle" x="31.1022141" y="25.6138773" width="1.82952183" height="1.82952183"></rect>
            <rect id="Rectangle" x="34.7612578" y="21.9548337" width="1.82952183" height="1.82952183"></rect>
            <rect id="Rectangle" x="31.1022141" y="21.9548337" width="1.82952183" height="1.82952183"></rect>
            <rect id="Rectangle" x="34.7612578" y="18.29579" width="1.82952183" height="1.82952183"></rect>
            <rect id="Rectangle" x="31.1022141" y="18.29579" width="1.82952183" height="1.82952183"></rect>
            <rect id="Rectangle" x="34.7612578" y="14.6367464" width="1.82952183" height="1.82952183"></rect>
            <rect id="Rectangle" x="31.1022141" y="14.6367464" width="1.82952183" height="1.82952183"></rect>
            <rect id="Rectangle" x="16.4660395" y="26.5286383" width="1.82952183" height="1.82952183"></rect>
            <rect id="Rectangle" x="23.7841268" y="22.8695946" width="1.82952183" height="1.82952183"></rect>
            <rect id="Rectangle" x="20.1250832" y="22.8695946" width="1.82952183" height="1.82952183"></rect>
            <rect id="Rectangle" x="16.4660395" y="22.8695946" width="1.82952183" height="1.82952183"></rect>
            <rect id="Rectangle" x="23.7841268" y="19.2105509" width="1.82952183" height="1.82952183"></rect>
            <rect id="Rectangle" x="20.1250832" y="19.2105509" width="1.82952183" height="1.82952183"></rect>
            <rect id="Rectangle" x="16.4660395" y="19.2105509" width="1.82952183" height="1.82952183"></rect>
            <rect id="Rectangle" x="23.7841268" y="15.5515073" width="1.82952183" height="1.82952183"></rect>
            <rect id="Rectangle" x="20.1250832" y="15.5515073" width="1.82952183" height="1.82952183"></rect>
            <rect id="Rectangle" x="16.4660395" y="15.5515073" width="1.82952183" height="1.82952183"></rect>
            <rect id="Rectangle" x="23.7841268" y="11.8924636" width="1.82952183" height="1.82952183"></rect>
            <rect id="Rectangle" x="20.1250832" y="11.8924636" width="1.82952183" height="1.82952183"></rect>
            <rect id="Rectangle" x="16.4660395" y="11.8924636" width="1.82952183" height="1.82952183"></rect>
            <rect id="Rectangle" x="23.7841268" y="8.23341996" width="1.82952183" height="1.82952183"></rect>
            <rect id="Rectangle" x="20.1250832" y="8.23341996" width="1.82952183" height="1.82952183"></rect>
            <rect id="Rectangle" x="16.4660395" y="8.23341996" width="1.82952183" height="1.82952183"></rect>
            <rect id="Rectangle" x="15.5512786" y="38.4205301" width="1.82952183" height="1.82952183"></rect>
            <rect id="Rectangle" x="19.2103222" y="38.4205301" width="7.31808732" height="1.82952183"></rect>
            <rect id="Rectangle" x="11.8922349" y="42.0795738" width="19.2099792" height="1.82952183"></rect>
            <path d="M51.2269543,38.3290541 C53.3550312,37.8914553 54.8832536,36.0193971 54.8859979,33.8467256 C54.8859979,27.0774948 53.133316,22.8695946 50.3121933,22.8695946 C47.4910707,22.8695946 45.7383888,27.0774948 45.7383888,33.8467256 C45.7411331,36.0193971 47.2693555,37.8914553 49.3974324,38.3290541 L49.3974324,53.0567048 L45.7383888,53.0567048 L45.7383888,47.5681393 L46.6531497,47.5681393 C47.1583264,47.5681393 47.5679106,47.1585551 47.5679106,46.6533784 L47.5679106,40.250052 C47.5679106,39.8947817 47.3620894,39.5715281 47.0400936,39.4212786 L43.116684,37.5917568 C42.8351663,37.4602599 42.5061954,37.480499 42.2430873,37.6457277 C41.6125884,38.0433056 40.9450416,38.3787942 40.2498233,38.6473909 L40.2498233,12.8072245 C40.2498233,12.4380042 40.0279938,12.1050312 39.6872453,11.9629002 L29.2726923,7.62327443 L29.2726923,0.91533264 C29.2730353,0.410155925 28.8636798,0.000343035343 28.3585031,-4.91343802e-16 C28.2486175,-0.000114345114 28.1396466,0.0196673597 28.0368503,0.0582016632 L13.4006757,5.54676715 C13.0433472,5.68066528 12.8067672,6.02232848 12.8069958,6.40389813 L12.8069958,36.0494699 C10.7477547,37.2096154 8.93984407,38.7677963 7.48857588,40.6333368 C7.37788981,40.7885031 7.31843035,40.9743139 7.31843035,41.1648129 L7.31843035,46.6533784 C7.31843035,47.1585551 7.72801455,47.5681393 8.23319127,47.5681393 L9.14795218,47.5681393 L9.14795218,53.0567048 L5.48890852,53.0567048 L5.48890852,38.3290541 C7.61698545,37.8914553 9.1452079,36.0193971 9.14795218,33.8467256 C9.14795218,27.0774948 7.39527027,22.8695946 4.57414761,22.8695946 C1.75302495,22.8695946 0.000343035343,27.0774948 0.000343035343,33.8467256 C0.00308731809,36.0193971 1.53130977,37.8914553 3.65938669,38.3290541 L3.65938669,53.0567048 L0.000343035343,53.0567048 L0.000343035343,54.8862266 L54.8859979,54.8862266 L54.8859979,53.0567048 L51.2269543,53.0567048 L51.2269543,38.3290541 Z M3.65938669,36.4226923 C2.56681913,36.0364345 1.83466736,35.005499 1.82986486,33.8467256 C1.82986486,27.5348753 3.43435551,24.6991164 4.57414761,24.6991164 C5.71393971,24.6991164 7.31843035,27.5348753 7.31843035,33.8467256 C7.31362786,35.005499 6.58147609,36.0364345 5.48890852,36.4226923 L5.48890852,33.8467256 L3.65938669,33.8467256 L3.65938669,36.4226923 Z M29.2726923,9.60556133 L38.4203015,13.4173701 L38.4203015,32.9319647 L29.2726923,32.9319647 L29.2726923,9.60556133 Z M29.2726923,34.7614865 L38.4203015,34.7614865 L38.4203015,39.1614865 C37.8170166,39.2752599 37.2046985,39.3334615 36.5907796,39.3352911 C33.8684511,39.3352911 32.2593867,38.2549584 30.3969335,37.0044802 C30.0310291,36.7611538 29.6587214,36.5141684 29.2726923,36.2726715 L29.2726923,34.7614865 Z M14.6365177,7.03782744 L27.4431705,2.23533264 L27.4431705,30.1876819 L14.6365177,30.1876819 L14.6365177,7.03782744 Z M14.6365177,32.0172037 L27.4431705,32.0172037 L27.4431705,35.2399064 C25.4475052,34.2796362 23.2540229,33.8023597 21.0398441,33.8467256 C18.839158,33.8453534 16.6609979,34.2893555 14.6365177,35.1520894 L14.6365177,32.0172037 Z M9.14795218,41.4767464 C12.0739293,37.8984304 16.4187006,35.779158 21.0398441,35.6762474 C25.1361435,35.6762474 27.2913202,37.1233992 29.3769751,38.5229834 C31.3116944,39.8219439 33.3113617,41.1648129 36.5907796,41.1648129 C38.7709979,41.1582952 40.9097089,40.5679314 42.7846258,39.4551247 L45.7383888,40.8327547 L45.7383888,45.7386175 L9.14795218,45.7386175 L9.14795218,41.4767464 Z M12.8069958,53.0567048 L10.977474,53.0567048 L10.977474,47.5681393 L12.8069958,47.5681393 L12.8069958,53.0567048 Z M21.0398441,53.0567048 L14.6365177,53.0567048 L14.6365177,51.227183 L21.0398441,51.227183 L21.0398441,53.0567048 Z M21.0398441,49.3976611 L14.6365177,49.3976611 L14.6365177,47.5681393 L21.0398441,47.5681393 L21.0398441,49.3976611 Z M26.5284096,53.0567048 L22.8693659,53.0567048 L22.8693659,47.5681393 L26.5284096,47.5681393 L26.5284096,53.0567048 Z M32.0169751,53.0567048 L28.3579314,53.0567048 L28.3579314,47.5681393 L32.0169751,47.5681393 L32.0169751,53.0567048 Z M40.2498233,53.0567048 L33.8464969,53.0567048 L33.8464969,51.227183 L40.2498233,51.227183 L40.2498233,53.0567048 Z M40.2498233,49.3976611 L33.8464969,49.3976611 L33.8464969,47.5681393 L40.2498233,47.5681393 L40.2498233,49.3976611 Z M43.9088669,53.0567048 L42.0793451,53.0567048 L42.0793451,47.5681393 L43.9088669,47.5681393 L43.9088669,53.0567048 Z M49.3974324,36.4226923 C48.3048649,36.0364345 47.5727131,35.005499 47.5679106,33.8467256 C47.5679106,27.5348753 49.1724012,24.6991164 50.3121933,24.6991164 C51.4519854,24.6991164 53.0564761,27.5348753 53.0564761,33.8467256 C53.0516736,35.005499 52.3195218,36.0364345 51.2269543,36.4226923 L51.2269543,33.8467256 L49.3974324,33.8467256 L49.3974324,36.4226923 Z" id="Shape"></path>
            <rect id="Rectangle" x="42.0793451" y="42.0795738" width="1.82952183" height="1.82952183"></rect>
        </g>
    </g>
</svg>