<?xml version="1.0" encoding="UTF-8"?>
<svg width="58px" height="58px" viewBox="0 0 58 58" version="1.1" xmlns="http://www.w3.org/2000/svg" xmlns:xlink="http://www.w3.org/1999/xlink">
    <!-- Generator: Sketch 54.1 (76490) - https://sketchapp.com -->
    <title>car copy</title>
    <desc>Created with Sketch.</desc>
    <g id="Page-1" stroke="none" stroke-width="1" fill="none" fill-rule="evenodd">
        <g id="car-copy" fill="#00294E" fill-rule="nonzero">
            <path d="M57.1503509,15.4062924 C55.6199649,15.4062924 54.3749435,14.161384 54.3749435,12.630885 C54.3749435,12.1615712 53.9946082,11.7812359 53.5252943,11.7812359 C53.0559805,11.7812359 52.6756452,12.1615712 52.6756452,12.630885 C52.6756452,14.161271 51.4307368,15.4062924 49.9002378,15.4062924 C49.430924,15.4062924 49.0505887,15.7866277 49.0505887,16.2559415 C49.0505887,16.7252554 49.430924,17.1055906 49.9002378,17.1055906 C51.4306238,17.1055906 52.6756452,18.3506121 52.6756452,19.8809981 C52.6756452,20.3503119 53.0559805,20.7306472 53.5252943,20.7306472 C53.9946082,20.7306472 54.3749435,20.3503119 54.3749435,19.8809981 C54.3749435,18.3506121 55.6198519,17.1055906 57.1503509,17.1055906 C57.6196647,17.1055906 58,16.7252554 58,16.2559415 C58,15.7866277 57.6196647,15.4062924 57.1503509,15.4062924 Z M53.5254074,17.2603704 C53.245922,16.8749474 52.9062885,16.5354269 52.5209786,16.2559415 C52.9064016,15.9764561 53.2460351,15.6368226 53.5254074,15.2515127 C53.8048928,15.6369357 54.1445263,15.9764561 54.5298363,16.2559415 C54.1444133,16.5354269 53.8048928,16.8750604 53.5254074,17.2603704 Z" id="Shape"></path>
            <path d="M8.21270955,15.4062924 C6.68243665,15.4062924 5.43730214,14.161384 5.43730214,12.630885 C5.43730214,12.1615712 5.0568538,11.7812359 4.58765302,11.7812359 C4.11845224,11.7812359 3.7380039,12.1615712 3.7380039,12.630885 C3.7380039,14.161271 2.4928694,15.4062924 0.962596491,15.4062924 C0.493395712,15.4062924 0.112947368,15.7866277 0.112947368,16.2559415 C0.112947368,16.7252554 0.493395712,17.1055906 0.962596491,17.1055906 C2.4928694,17.1055906 3.7380039,18.3506121 3.7380039,19.8809981 C3.7380039,20.3503119 4.11845224,20.7306472 4.58765302,20.7306472 C5.0568538,20.7306472 5.43730214,20.3503119 5.43730214,19.8809981 C5.43730214,18.3506121 6.68243665,17.1055906 8.21270955,17.1055906 C8.68191033,17.1055906 9.06235867,16.7252554 9.06235867,16.2559415 C9.06235867,15.7866277 8.68191033,15.4062924 8.21270955,15.4062924 Z M4.58765302,17.2603704 C4.30816764,16.8749474 3.96864717,16.5354269 3.58322417,16.2559415 C3.96876023,15.9764561 4.3082807,15.6368226 4.58765302,15.2515127 C4.8671384,15.6369357 5.20665887,15.9764561 5.59208187,16.2559415 C5.20677193,16.5354269 4.8671384,16.8750604 4.58765302,17.2603704 Z" id="Shape"></path>
            <path d="M33.5877661,4.53123587 C31.557653,4.53123587 29.9060663,2.87976218 29.9060663,0.849536062 C29.9061793,0.380335283 29.5258441,0 29.0565302,0 C28.5873294,0 28.2068811,0.380335283 28.2068811,0.849649123 C28.2068811,2.87976218 26.5551813,4.53134893 24.5251813,4.53134893 C24.0559805,4.53134893 23.6755322,4.91168421 23.6755322,5.38099805 C23.6755322,5.85031189 24.0559805,6.23064717 24.5251813,6.23064717 C26.5551813,6.23064717 28.2068811,7.88223392 28.2068811,9.91234698 C28.2068811,10.3816608 28.5873294,10.7619961 29.0565302,10.7619961 C29.5258441,10.7619961 29.9061793,10.3816608 29.9061793,9.91234698 C29.9061793,7.88223392 31.5577661,6.23064717 33.5878791,6.23064717 C34.057193,6.23064717 34.4375283,5.85031189 34.4375283,5.38099805 C34.4375283,4.91168421 34.0570799,4.53123587 33.5877661,4.53123587 Z M29.0565302,7.01279922 C28.6365107,6.3588577 28.0785575,5.80090448 27.4245029,5.38088499 C28.0785575,4.9608655 28.6365107,4.40291228 29.0565302,3.74897076 C29.4765497,4.40291228 30.0345029,4.9608655 30.6884444,5.38088499 C30.0345029,5.80090448 29.4765497,6.3588577 29.0565302,7.01279922 Z" id="Shape"></path>
            <path d="M46.7455127,28.6607057 L43.4405302,19.2965887 C43.1932671,18.5958402 42.5277934,18.1250565 41.7847602,18.1250565 L16.1017271,18.1250565 C15.3585809,18.1250565 14.6932203,18.5958402 14.4459571,19.2964756 L11.1409747,28.6607057 C10.9489981,29.2046394 11.366191,29.7931189 11.9421209,29.7931189 L45.9443665,29.7931189 C46.2200078,29.7931189 46.478577,29.6592554 46.6377661,29.4342651 C46.7970682,29.2091618 46.8373177,28.9207446 46.7455127,28.6607057 Z M13.1429357,28.0938207 L16.0482495,19.8620039 C16.0559376,19.8401832 16.0784366,19.8242417 16.101614,19.8242417 L41.7847602,19.8242417 C41.8079376,19.8242417 41.8304366,19.8401832 41.8382378,19.862117 L44.7435517,28.0938207 L13.1429357,28.0938207 Z" id="Shape"></path>
            <path d="M45.2558285,39.8751696 C42.2384717,39.8751696 39.8749435,41.4426394 39.8749435,43.4435828 C39.8749435,45.4445263 42.2384717,47.0119961 45.2558285,47.0119961 C48.2731852,47.0119961 50.6367135,45.4445263 50.6367135,43.4435828 C50.6367135,41.4426394 48.2731852,39.8751696 45.2558285,39.8751696 Z M45.2558285,45.3126979 C43.1486082,45.3126979 41.5741287,44.3259064 41.5741287,43.4435828 C41.5741287,42.5612593 43.1484951,41.5744678 45.2558285,41.5744678 C47.3630487,41.5744678 48.9375283,42.5612593 48.9375283,43.4435828 C48.9375283,44.3259064 47.3630487,45.3126979 45.2558285,45.3126979 Z" id="Shape"></path>
            <path d="M12.6306589,39.8751696 C9.61330214,39.8751696 7.24977388,41.4426394 7.24977388,43.4435828 C7.24977388,45.4445263 9.61330214,47.0119961 12.6306589,47.0119961 C15.6480156,47.0119961 18.0115439,45.4445263 18.0115439,43.4435828 C18.0115439,41.4426394 15.6480156,39.8751696 12.6306589,39.8751696 Z M12.6306589,45.3126979 C10.5235517,45.3126979 8.94895906,44.3259064 8.94895906,43.4435828 C8.94895906,42.5612593 10.5234386,41.5744678 12.6306589,41.5744678 C14.7378791,41.5744678 16.3123587,42.5612593 16.3123587,43.4435828 C16.3123587,44.3259064 14.7378791,45.3126979 12.6306589,45.3126979 Z" id="Shape"></path>
            <path d="M56.130885,27.1876413 L51.5996491,27.1876413 C51.2098168,27.1876413 50.8699571,27.4529942 50.7754386,27.8311813 L50.1785926,30.2184522 L46.0042885,18.391653 C45.3740897,16.6060897 43.6784094,15.4062924 41.7847602,15.4062924 L16.1017271,15.4062924 C14.208078,15.4062924 12.5123977,16.6060897 11.8821988,18.3917661 L7.7080078,30.2185653 L7.11116179,27.8311813 C7.01653021,27.4528811 6.67667057,27.1876413 6.28695127,27.1876413 L1.75560234,27.1876413 C1.28640156,27.1876413 0.905953216,27.5679766 0.905953216,28.0372904 L0.905953216,31.662347 C0.905953216,32.1316608 1.28640156,32.5119961 1.75560234,32.5119961 L6.44840156,32.5119961 L3.55190643,36.5670214 C3.00672904,37.3302924 2.71853801,38.2298012 2.71853801,39.1678635 L2.71853801,49.7874035 C2.71853801,51.258885 3.43274074,52.5665419 4.53247953,53.382499 C4.53214035,53.3924483 4.53100975,53.4022846 4.53100975,53.412347 L4.53100975,56.1311111 C4.53100975,57.0993606 5.31870175,57.8869396 6.28683821,57.8869396 L11.7243665,57.8869396 C12.692616,57.8869396 13.4801949,57.0992476 13.4801949,56.1311111 L13.4801949,54.2619961 L44.4060663,54.2619961 L44.4060663,56.1311111 C44.4060663,57.0993606 45.1937583,57.8869396 46.1618947,57.8869396 L51.599423,57.8869396 C52.5676725,57.8869396 53.3552515,57.0992476 53.3552515,56.1311111 L53.3552515,53.412347 C53.3552515,53.4022846 53.3541209,53.3924483 53.3537817,53.382499 C54.4535205,52.5665419 55.1677232,51.258885 55.1677232,49.7874035 L55.1677232,39.1678635 C55.1677232,38.2296881 54.8794191,37.3301793 54.3342417,36.5670214 L51.4377466,32.5119961 L56.1306589,32.5119961 C56.5999727,32.5119961 56.980308,32.1316608 56.980308,31.662347 L56.980308,28.0372904 C56.9804211,27.5678635 56.6001988,27.1876413 56.130885,27.1876413 Z M2.60525146,30.8125848 L2.60525146,28.8868265 L5.62351267,28.8868265 L6.10492398,30.8125848 L2.60525146,30.8125848 Z M11.7811228,56.1311111 C11.7811228,56.1623158 11.7557973,56.1877544 11.7244795,56.1877544 L6.28695127,56.1877544 C6.25574659,56.1877544 6.23030799,56.1623158 6.23030799,56.1311111 L6.23030799,54.2619961 L7.19324366,54.2619961 L11.7811228,54.2619961 L11.7811228,56.1311111 Z M51.6561793,56.1311111 C51.6561793,56.1623158 51.6307407,56.1877544 51.5995361,56.1877544 L46.1620078,56.1877544 C46.1308031,56.1877544 46.1053645,56.1623158 46.1053645,56.1311111 L46.1053645,54.2619961 L50.6932437,54.2619961 L51.6561793,54.2619961 L51.6561793,56.1311111 L51.6561793,56.1311111 Z M50.6933567,52.5626979 L7.1931306,52.5626979 C5.95907602,52.5626979 4.91100585,51.7529591 4.55124756,50.6369396 L53.3351267,50.6369396 C52.9753684,51.7529591 51.9274113,52.5626979 50.6933567,52.5626979 Z M36.2498869,43.3869396 L36.2498869,45.3126979 L21.6366004,45.3126979 L21.6366004,43.3869396 L36.2498869,43.3869396 Z M21.7701248,41.6876413 C22.129883,40.5716218 23.1778402,39.761883 24.4120078,39.761883 L33.4745926,39.761883 C34.7086472,39.761883 35.7567173,40.5716218 36.1164756,41.6876413 L21.7701248,41.6876413 Z M36.2498869,47.011883 L36.2498869,48.9376413 L21.6366004,48.9376413 L21.6366004,47.011883 L36.2498869,47.011883 Z M52.9518519,37.5546043 C53.2900156,38.0279883 53.4687641,38.5858285 53.4687641,39.1677505 L53.4687641,48.9377544 L37.9491852,48.9377544 L37.9491852,42.5372904 C37.9491852,40.0699727 35.9417973,38.0626979 33.4745926,38.0626979 L24.4120078,38.0626979 C21.9446901,38.0626979 19.9374152,40.0700858 19.9374152,42.5372904 L19.9374152,48.9377544 L4.4177232,48.9377544 L4.4177232,39.1677505 C4.4177232,38.5858285 4.59647173,38.0279883 4.93463548,37.5546043 L8.53662768,32.511883 L39.8181871,32.511883 C40.287501,32.511883 40.6678363,32.1315478 40.6678363,31.6622339 C40.6678363,31.1929201 40.287501,30.8125848 39.8181871,30.8125848 L9.30023782,30.8125848 L13.4844912,18.9571813 C13.8754542,17.8497544 14.9271423,17.1054776 16.1017271,17.1054776 L41.7848733,17.1054776 C42.959345,17.1054776 44.0110331,17.8496413 44.4021092,18.9571813 L48.5862495,30.8125848 L43.4432437,30.8125848 C42.9739298,30.8125848 42.5935945,31.1929201 42.5935945,31.6622339 C42.5935945,32.1315478 42.9739298,32.511883 43.4432437,32.511883 L49.3498596,32.511883 L52.9518519,37.5546043 Z M55.2812359,30.8125848 L51.7814503,30.8125848 L52.2628616,28.8868265 L55.2812359,28.8868265 L55.2812359,30.8125848 Z" id="Shape"></path>
            <path d="M15.349423,37.1564055 L9.91189474,37.1564055 C9.44269396,37.1564055 9.06224561,37.5367407 9.06224561,38.0060546 C9.06224561,38.4753684 9.44269396,38.8557037 9.91189474,38.8557037 L15.349423,38.8557037 C15.8186238,38.8557037 16.1990721,38.4753684 16.1990721,38.0060546 C16.1990721,37.5367407 15.8186238,37.1564055 15.349423,37.1564055 Z" id="Path"></path>
            <path d="M47.9745926,37.1564055 L42.5370643,37.1564055 C42.0677505,37.1564055 41.6874152,37.5367407 41.6874152,38.0060546 C41.6874152,38.4753684 42.0677505,38.8557037 42.5370643,38.8557037 L47.9745926,38.8557037 C48.4439064,38.8557037 48.8242417,38.4753684 48.8242417,38.0060546 C48.8242417,37.5367407 48.4439064,37.1564055 47.9745926,37.1564055 Z" id="Path"></path>
        </g>
    </g>
</svg>