<svg width="17" height="17" viewBox="0 0 17 17" fill="none" xmlns="http://www.w3.org/2000/svg">
<path fill-rule="evenodd" clip-rule="evenodd" d="M14.6772 8.69764C14.8231 5.22139 12.0951 2.30215 8.56978 2.24207C5.16804 2.18411 2.36648 4.93143 2.31274 8.36353C2.26004 11.7313 4.98809 14.6153 8.49432 14.6168C11.8196 14.622 14.5389 11.9915 14.6772 8.69764ZM0.53525 8.38322C0.556064 4.01132 4.13158 0.452181 8.49237 0.462547C12.9276 0.473079 16.4752 4.05336 16.4565 8.49998C16.4382 12.8604 12.8495 16.4119 8.47918 16.3946C4.05786 16.3771 0.514186 12.8034 0.53525 8.38322Z" fill="#5D5D5D"/>
<path d="M14.6772 8.69764L14.927 8.70813V8.70812L14.6772 8.69764ZM8.56978 2.24207L8.57404 1.99211H8.57404L8.56978 2.24207ZM2.31274 8.36353L2.06278 8.35961V8.35961L2.31274 8.36353ZM8.49432 14.6168L8.49471 14.3668L8.49443 14.3668L8.49432 14.6168ZM0.53525 8.38322L0.785247 8.38441V8.38441L0.53525 8.38322ZM8.49237 0.462547L8.49178 0.712546H8.49178L8.49237 0.462547ZM16.4565 8.49998L16.7065 8.50103V8.50103L16.4565 8.49998ZM8.47918 16.3946L8.47819 16.6446H8.47819L8.47918 16.3946ZM14.927 8.70812C15.0788 5.09154 12.2399 2.05459 8.57404 1.99211L8.56552 2.49204C11.9503 2.54972 14.5675 5.35123 14.4274 8.68715L14.927 8.70812ZM8.57404 1.99211C5.0314 1.93174 2.11863 4.79205 2.06278 8.35961L2.56271 8.36744C2.61433 5.07081 5.30468 2.43647 8.56552 2.49204L8.57404 1.99211ZM2.06278 8.35961C2.00793 11.8648 4.84626 14.8652 8.49421 14.8668L8.49443 14.3668C5.12992 14.3653 2.51216 11.5979 2.56271 8.36744L2.06278 8.35961ZM8.49393 14.8668C11.9541 14.8722 14.783 12.1353 14.927 8.70813L14.4274 8.68715C14.2947 11.8477 11.6852 14.3718 8.49471 14.3668L8.49393 14.8668ZM0.785247 8.38441C0.805408 4.14974 4.26942 0.70251 8.49178 0.712546L8.49296 0.212548C3.99374 0.201853 0.306721 3.87289 0.285252 8.38203L0.785247 8.38441ZM8.49178 0.712546C12.7882 0.722748 16.2247 4.18995 16.2065 8.49893L16.7065 8.50103C16.7258 3.91677 13.0671 0.223409 8.49296 0.212548L8.49178 0.712546ZM16.2065 8.49893C16.1888 12.7208 12.7129 16.1613 8.48017 16.1446L8.47819 16.6446C12.986 16.6624 16.6876 13 16.7065 8.50103L16.2065 8.49893ZM8.48017 16.1446C4.19693 16.1276 0.764842 12.6664 0.785247 8.38441L0.285252 8.38203C0.26353 12.9404 3.91878 16.6265 8.47819 16.6446L8.48017 16.1446Z" fill="white"/>
<path fill-rule="evenodd" clip-rule="evenodd" d="M12.055 11.0556C11.6206 10.8876 11.2041 10.7281 10.7887 10.5658C9.78831 10.1748 8.78908 9.7809 7.78745 9.39313C7.66397 9.34532 7.60298 9.29084 7.60352 9.14348C7.60932 7.49344 7.60713 5.84337 7.60775 4.19333C7.60779 4.13976 7.61546 4.08619 7.62069 4.01819H8.93595C8.93993 4.09133 8.94602 4.15158 8.94602 4.21186C8.94652 5.60653 8.94992 7.00119 8.94154 8.39581C8.94055 8.56345 8.99383 8.63203 9.14517 8.68971C10.1939 9.08925 11.2387 9.49886 12.2847 9.90558C12.3478 9.93012 12.4097 9.95774 12.4964 9.9941C12.3446 10.3592 12.2027 10.7003 12.055 11.0556Z" fill="#5D5D5D"/>
</svg>
