<?xml version="1.0" encoding="UTF-8"?>
<svg width="66px" height="22px" viewBox="0 0 66 22" version="1.1" xmlns="http://www.w3.org/2000/svg" xmlns:xlink="http://www.w3.org/1999/xlink">
    <!-- Generator: Sketch 53.2 (72643) - https://sketchapp.com -->
    <title>Group 11</title>
    <desc>Created with Sketch.</desc>
    <g id="Page-1" stroke="none" stroke-width="1" fill="none" fill-rule="evenodd">
        <g id="Group-11">
            <rect id="Rectangle-Copy-40" fill="#DADBDC" x="0" y="0" width="66" height="22" rx="3"></rect>
            <path d="M29,13.921875 L29,8 L32.2382812,8 L32.2382812,8.5390625 L29.59375,8.5390625 L29.59375,10.6640625 L32.1523438,10.6640625 L32.1523438,11.203125 L29.59375,11.203125 L29.59375,13.3867188 L32.2382812,13.3867188 L32.2382812,13.921875 L29,13.921875 Z M39.140625,13.921875 L39.140625,11.3867188 C39.140625,10.9622375 39.0507821,10.6236992 38.8710938,10.3710938 C38.6627594,10.0820298 38.3554708,9.9375 37.9492188,9.9375 C37.5429667,9.9375 37.2369802,10.0820298 37.03125,10.3710938 C36.8489574,10.6236992 36.7578125,10.9622375 36.7578125,11.3867188 L36.7578125,13.921875 L36.1992188,13.921875 L36.1992188,11.3867188 C36.1992188,10.9622375 36.1080738,10.6236992 35.9257812,10.3710938 C35.7200511,10.0820298 35.4140645,9.9375 35.0078125,9.9375 C34.5989563,9.9375 34.2916677,10.0820298 34.0859375,10.3710938 C33.9036449,10.6236992 33.8125,10.9622375 33.8125,11.3867188 L33.8125,13.921875 L33.2539062,13.921875 L33.2539062,9.546875 L33.8125,9.546875 L33.8125,10.0507812 C34.072918,9.63932086 34.4713515,9.43359375 35.0078125,9.43359375 C35.6744825,9.43359375 36.1640609,9.71353887 36.4765625,10.2734375 C36.8281268,9.71353887 37.3190073,9.43359375 37.9492188,9.43359375 C38.4960965,9.43359375 38.9283838,9.61458152 39.2460938,9.9765625 C39.5507828,10.3203142 39.703125,10.7682264 39.703125,11.3203125 L39.703125,13.921875 L39.140625,13.921875 Z M44.6367188,13.921875 L44.6367188,13.1523438 L44.6210938,13.1523438 C44.2356752,13.73568 43.6679725,14.0273438 42.9179688,14.0273438 C42.2591113,14.0273438 41.7031273,13.8072939 41.25,13.3671875 C40.7942686,12.9270811 40.5664062,12.3789095 40.5664062,11.7226562 C40.5664062,11.0716113 40.7968727,10.5260439 41.2578125,10.0859375 C41.7135439,9.65103949 42.2669238,9.43359375 42.9179688,9.43359375 C43.6809934,9.43359375 44.2486961,9.72655957 44.6210938,10.3125 L44.6367188,10.3125 L44.6367188,9.546875 L45.1992188,9.546875 L45.1992188,13.921875 L44.6367188,13.921875 Z M44.671875,11.7382812 C44.671875,11.2460913 44.5039079,10.8242205 44.1679688,10.4726562 C43.8268212,10.1158836 43.4101587,9.9375 42.9179688,9.9375 C42.399737,9.9375 41.9713559,10.1093733 41.6328125,10.453125 C41.2942691,10.7968767 41.125,11.227862 41.125,11.7460938 C41.125,12.256513 41.2955712,12.6809879 41.6367188,13.0195312 C41.9778663,13.3554704 42.4049454,13.5234375 42.9179688,13.5234375 C43.4101587,13.5234375 43.8268212,13.347658 44.1679688,12.9960938 C44.5039079,12.6497379 44.671875,12.2304712 44.671875,11.7382812 Z M46.2109375,9.01171875 L46.2109375,8 L46.7695312,8 L46.7695312,9.01171875 L46.2109375,9.01171875 Z M46.2109375,13.921875 L46.2109375,9.546875 L46.7695312,9.546875 L46.7695312,13.921875 L46.2109375,13.921875 Z M47.8085938,13.921875 L47.8085938,8 L48.3671875,8 L48.3671875,13.921875 L47.8085938,13.921875 Z" id="Email" fill="#6D6D6D" fill-rule="nonzero"></path>
            <g id="envelope" transform="translate(15.000000, 7.000000)" fill="#6D6D6D" fill-rule="nonzero">
                <path d="M0.863191406,2.19250195 C0.976957031,2.27278125 1.31988867,2.51121094 1.89200391,2.90766797 C2.46413672,3.304125 2.90242969,3.60938672 3.20690039,3.8234707 C3.24035156,3.8469375 3.31141992,3.89794922 3.42014063,3.97657617 C3.52887891,4.05525586 3.61923047,4.11883594 3.691125,4.16733398 C3.76307227,4.21581445 3.85004883,4.27020117 3.95214258,4.33040625 C4.05420117,4.39055859 4.15040625,4.43580469 4.24074023,4.46575781 C4.3310918,4.49595703 4.41472852,4.51091602 4.49166797,4.51091602 L4.49671289,4.51091602 L4.50177539,4.51091602 C4.57871484,4.51091602 4.66238672,4.49593945 4.75273828,4.46575781 C4.84303711,4.43580469 4.93933008,4.39050586 5.04130078,4.33040625 C5.14332422,4.27013086 5.23030078,4.21579687 5.30224805,4.16733398 C5.37419531,4.11883594 5.46447656,4.05525586 5.57325,3.97657617 C5.68195313,3.89787891 5.75310938,3.8469375 5.78656055,3.8234707 C6.09431836,3.60938672 6.87730078,3.06567773 8.13526172,2.19239648 C8.37949219,2.02183594 8.58353906,1.81603125 8.74745508,1.57512305 C8.91149414,1.33432031 8.99342578,1.08170508 8.99342578,0.817417969 C8.99342578,0.596566406 8.91391992,0.407513672 8.75497852,0.250277344 C8.59605469,0.0930058594 8.40782812,0.0144140625 8.19042188,0.0144140625 L0.802951172,0.0144140625 C0.54534375,0.0144140625 0.347097656,0.101390625 0.208248047,0.27534375 C0.0694160156,0.449332031 0,0.666808594 0,0.927755859 C0,1.13853516 0.0920390625,1.36694531 0.276029297,1.6128457 C0.460001953,1.85876367 0.655787109,2.052 0.863191406,2.19250195 Z" id="Path"></path>
                <path d="M8.4915,2.72944336 C7.39420313,3.47213672 6.561,4.04933203 5.99229492,4.46090625 C5.80158984,4.60137305 5.64688477,4.71102539 5.52807422,4.78959961 C5.40926367,4.86822656 5.25125391,4.94852344 5.05381641,5.03045508 C4.85644922,5.11250977 4.67251172,5.15341406 4.5018457,5.15341406 L4.49673047,5.15341406 L4.49168555,5.15341406 C4.32105469,5.15341406 4.13701172,5.11250977 3.93964453,5.03045508 C3.74227734,4.94852344 3.58416211,4.86822656 3.46538672,4.78959961 C3.34664648,4.71102539 3.19188867,4.60137305 3.00120117,4.46090625 C2.54949609,4.12969922 1.71808594,3.55246875 0.506935547,2.72944336 C0.316177734,2.60238867 0.147216797,2.45675391 0,2.29283789 L0,6.27753516 C0,6.49849219 0.0785917969,6.68743945 0.235863281,6.84469336 C0.393099609,7.002 0.582169922,7.08062695 0.803003906,7.08062695 L8.19049219,7.08062695 C8.41127344,7.08062695 8.60032617,7.002 8.75758008,6.84469336 C8.91488672,6.68738672 8.99344336,6.49850977 8.99344336,6.27753516 L8.99344336,2.29283789 C8.84954883,2.45336133 8.68231055,2.59899609 8.4915,2.72944336 Z" id="Path"></path>
            </g>
        </g>
    </g>
</svg>