<?xml version="1.0" encoding="UTF-8"?>
<svg width="77px" height="22px" viewBox="0 0 77 22" version="1.1" xmlns="http://www.w3.org/2000/svg" xmlns:xlink="http://www.w3.org/1999/xlink">
    <!-- Generator: Sketch 53.2 (72643) - https://sketchapp.com -->
    <title>Group 7</title>
    <desc>Created with Sketch.</desc>
    <g id="Page-1" stroke="none" stroke-width="1" fill="none" fill-rule="evenodd">
        <g id="Group-7">
            <rect id="Rectangle" fill="#385590" x="0" y="0" width="77" height="22" rx="3"></rect>
            <path d="M25.8222656,8.6171875 L25.8222656,10.7617188 L28.1308594,10.7617188 L28.1308594,11.296875 L25.8222656,11.296875 L25.8222656,14 L25.2285156,14 L25.2285156,8.078125 L28.2207031,8.078125 L28.2207031,8.6171875 L25.8222656,8.6171875 Z M32.9550781,14 L32.9550781,13.2304688 L32.9394531,13.2304688 C32.5540345,13.813805 31.9863319,14.1054688 31.2363281,14.1054688 C30.5774707,14.1054688 30.0214866,13.8854189 29.5683594,13.4453125 C29.1126279,13.0052061 28.8847656,12.4570345 28.8847656,11.8007812 C28.8847656,11.1497363 29.1152321,10.6041689 29.5761719,10.1640625 C30.0319033,9.72916449 30.5852832,9.51171875 31.2363281,9.51171875 C31.9993528,9.51171875 32.5670554,9.80468457 32.9394531,10.390625 L32.9550781,10.390625 L32.9550781,9.625 L33.5175781,9.625 L33.5175781,14 L32.9550781,14 Z M32.9902344,11.8164062 C32.9902344,11.3242163 32.8222673,10.9023455 32.4863281,10.5507812 C32.1451806,10.1940086 31.7285181,10.015625 31.2363281,10.015625 C30.7180964,10.015625 30.2897152,10.1874983 29.9511719,10.53125 C29.6126285,10.8750017 29.4433594,11.305987 29.4433594,11.8242188 C29.4433594,12.334638 29.6139306,12.7591129 29.9550781,13.0976562 C30.2962257,13.4335954 30.7233047,13.6015625 31.2363281,13.6015625 C31.7285181,13.6015625 32.1451806,13.425783 32.4863281,13.0742188 C32.8222673,12.7278629 32.9902344,12.3085962 32.9902344,11.8164062 Z M38.8613281,12.7109375 C38.3899716,13.6406296 37.6647184,14.1054688 36.6855469,14.1054688 C36.034502,14.1054688 35.4811221,13.8867209 35.0253906,13.4492188 C34.5644508,13.0065082 34.3339844,12.4622428 34.3339844,11.8164062 C34.3339844,11.175778 34.5657529,10.6302106 35.0292969,10.1796875 C35.4902367,9.73437277 36.0423145,9.51171875 36.6855469,9.51171875 C37.1673201,9.51171875 37.6035137,9.63801957 37.9941406,9.890625 C38.3951843,10.151043 38.6842439,10.502602 38.8613281,10.9453125 L38.2441406,10.9453125 C37.9186182,10.3255177 37.4043004,10.015625 36.7011719,10.015625 C36.1985652,10.015625 35.7727882,10.1874983 35.4238281,10.53125 C35.0696597,10.8750017 34.8925781,11.2981746 34.8925781,11.8007812 C34.8925781,12.3085963 35.0670555,12.7356754 35.4160156,13.0820312 C35.7649757,13.4283871 36.1933568,13.6015625 36.7011719,13.6015625 C37.4225296,13.6015625 37.9368474,13.3046905 38.2441406,12.7109375 L38.8613281,12.7109375 Z M44.0449219,12.015625 L40.0605469,12.015625 C40.0813803,12.4453146 40.2623681,12.8177068 40.6035156,13.1328125 C40.942059,13.4453141 41.3274718,13.6015625 41.7597656,13.6015625 C42.1035173,13.6015625 42.4186184,13.5104176 42.7050781,13.328125 C43.0019546,13.1380199 43.2089838,12.8841162 43.3261719,12.5664062 L43.9199219,12.5664062 C43.7584627,13.0247419 43.4798197,13.3958319 43.0839844,13.6796875 C42.6881491,13.9635431 42.2493514,14.1054688 41.7675781,14.1054688 C41.1373666,14.1054688 40.5983095,13.8802106 40.1503906,13.4296875 C39.7076801,12.9843728 39.4863281,12.4466177 39.4863281,11.8164062 C39.4863281,11.1887989 39.7076801,10.6484398 40.1503906,10.1953125 C40.5983095,9.73958105 41.1347625,9.51171875 41.7597656,9.51171875 C42.3951855,9.51171875 42.9368467,9.74478934 43.3847656,10.2109375 C43.8300804,10.6718773 44.0527344,11.2200489 44.0527344,11.8554688 L44.0449219,12.015625 Z M43.4785156,11.5117188 C43.4055986,11.0794249 43.2115901,10.7226577 42.8964844,10.4414062 C42.5787745,10.1575507 42.2024761,10.015625 41.7675781,10.015625 C41.3352843,10.015625 40.958986,10.1575507 40.6386719,10.4414062 C40.3235661,10.7226577 40.1308597,11.0794249 40.0605469,11.5117188 L43.4785156,11.5117188 Z M49.5605469,11.8007812 C49.5605469,12.4570345 49.3326846,13.0052061 48.8769531,13.4453125 C48.4238259,13.8854189 47.8678418,14.1054688 47.2089844,14.1054688 C46.4720015,14.1054688 45.9029968,13.813805 45.5019531,13.2304688 L45.4863281,13.2304688 L45.4863281,14 L44.9277344,14 L44.9277344,8.078125 L45.4863281,8.078125 L45.4863281,10.390625 L45.5019531,10.390625 C45.9134135,9.80468457 46.4824182,9.51171875 47.2089844,9.51171875 C47.8600293,9.51171875 48.4121071,9.72916449 48.8652344,10.1640625 C49.3287784,10.6041689 49.5605469,11.1497363 49.5605469,11.8007812 Z M48.9980469,11.8242188 C48.9980469,11.305987 48.8300798,10.8750017 48.4941406,10.53125 C48.1555973,10.1874983 47.7272161,10.015625 47.2089844,10.015625 C46.7167944,10.015625 46.3001319,10.1940086 45.9589844,10.5507812 C45.6230452,10.9023455 45.4550781,11.3242163 45.4550781,11.8164062 C45.4550781,12.3085962 45.6230452,12.7278629 45.9589844,13.0742188 C46.3001319,13.425783 46.7167944,13.6015625 47.2089844,13.6015625 C47.7220078,13.6015625 48.1477848,13.4335954 48.4863281,13.0976562 C48.8274757,12.7591129 48.9980469,12.334638 48.9980469,11.8242188 Z M54.7480469,11.8085938 C54.7480469,12.4362011 54.5227887,12.9752582 54.0722656,13.4257812 C53.6217425,13.8789085 53.0826854,14.1054688 52.4550781,14.1054688 C51.8378875,14.1054688 51.3040387,13.8815127 50.8535156,13.4335938 C50.4003884,12.9856748 50.1738281,12.4544302 50.1738281,11.8398438 C50.1738281,11.2044239 50.3951801,10.6588564 50.8378906,10.203125 C51.2832054,9.7421852 51.8222625,9.51171875 52.4550781,9.51171875 C53.0774771,9.51171875 53.6152321,9.73827898 54.0683594,10.1914062 C54.5214866,10.6445335 54.7480469,11.1835906 54.7480469,11.8085938 Z M54.1894531,11.7851562 C54.1894531,11.3059872 54.0214861,10.8919288 53.6855469,10.5429688 C53.3470035,10.1914045 52.9394555,10.015625 52.4628906,10.015625 C51.9733048,10.015625 51.5605486,10.1979148 51.2246094,10.5625 C50.8964827,10.9166684 50.7324219,11.3398413 50.7324219,11.8320312 C50.7324219,12.3112003 50.9003889,12.7252587 51.2363281,13.0742188 C51.5748715,13.425783 51.9837216,13.6015625 52.4628906,13.6015625 C52.9576848,13.6015625 53.3717431,13.4218768 53.7050781,13.0625 C54.0279964,12.7109357 54.1894531,12.2851587 54.1894531,11.7851562 Z M59.9863281,11.8085938 C59.9863281,12.4362011 59.76107,12.9752582 59.3105469,13.4257812 C58.8600238,13.8789085 58.3209667,14.1054688 57.6933594,14.1054688 C57.0761688,14.1054688 56.54232,13.8815127 56.0917969,13.4335938 C55.6386696,12.9856748 55.4121094,12.4544302 55.4121094,11.8398438 C55.4121094,11.2044239 55.6334613,10.6588564 56.0761719,10.203125 C56.5214866,9.7421852 57.0605437,9.51171875 57.6933594,9.51171875 C58.3157583,9.51171875 58.8535134,9.73827898 59.3066406,10.1914062 C59.7597679,10.6445335 59.9863281,11.1835906 59.9863281,11.8085938 Z M59.4277344,11.7851562 C59.4277344,11.3059872 59.2597673,10.8919288 58.9238281,10.5429688 C58.5852848,10.1914045 58.1777368,10.015625 57.7011719,10.015625 C57.2115861,10.015625 56.7988298,10.1979148 56.4628906,10.5625 C56.134764,10.9166684 55.9707031,11.3398413 55.9707031,11.8320312 C55.9707031,12.3112003 56.1386702,12.7252587 56.4746094,13.0742188 C56.8131527,13.425783 57.2220028,13.6015625 57.7011719,13.6015625 C58.195966,13.6015625 58.6100244,13.4218768 58.9433594,13.0625 C59.2662777,12.7109357 59.4277344,12.2851587 59.4277344,11.7851562 Z M63.5761719,14 L62.1386719,12.2734375 L61.4316406,13.1679688 L61.4316406,14 L60.8730469,14 L60.8730469,8.078125 L61.4316406,8.078125 L61.4316406,12.296875 L61.4472656,12.296875 L63.4902344,9.625 L64.2089844,9.625 L62.4824219,11.8320312 L64.2988281,14 L63.5761719,14 Z" id="Facebook" fill="#FFFFFF" fill-rule="nonzero"></path>
            <g id="facebook" transform="translate(11.000000, 7.000000)" fill="#FFFFFF" fill-rule="nonzero">
                <path d="M6.828125,0 L1.171875,0 C0.525756844,0 0,0.525756844 0,1.171875 L0,6.828125 C0,7.47424316 0.525756844,8 1.171875,8 L3.53125,8 L3.53125,5.171875 L2.59375,5.171875 L2.59375,3.765625 L3.53125,3.765625 L3.53125,2.8125 C3.53125,2.03704834 4.16204834,1.40625 4.9375,1.40625 L6.359375,1.40625 L6.359375,2.8125 L4.9375,2.8125 L4.9375,3.765625 L6.359375,3.765625 L6.125,5.171875 L4.9375,5.171875 L4.9375,8 L6.828125,8 C7.47424316,8 8,7.47424316 8,6.828125 L8,1.171875 C8,0.525756844 7.47424316,0 6.828125,0 Z" id="Path"></path>
            </g>
        </g>
    </g>
</svg>