<?xml version="1.0" encoding="UTF-8"?>
<svg width="77px" height="22px" viewBox="0 0 77 22" version="1.1" xmlns="http://www.w3.org/2000/svg" xmlns:xlink="http://www.w3.org/1999/xlink">
    <!-- Generator: Sketch 53.2 (72643) - https://sketchapp.com -->
    <title>Group 10</title>
    <desc>Created with Sketch.</desc>
    <g id="Page-1" stroke="none" stroke-width="1" fill="none" fill-rule="evenodd">
        <g id="Group-10">
            <rect id="Rectangle-Copy-39" fill="#2283B6" x="0" y="0" width="77" height="22" rx="3"></rect>
            <path d="M30,13.921875 L30,8 L30.59375,8 L30.59375,13.3867188 L33.0390625,13.3867188 L33.0390625,13.921875 L30,13.921875 Z M33.5625,9.01171875 L33.5625,8 L34.1210938,8 L34.1210938,9.01171875 L33.5625,9.01171875 Z M33.5625,13.921875 L33.5625,9.546875 L34.1210938,9.546875 L34.1210938,13.921875 L33.5625,13.921875 Z M38.4492188,13.921875 L38.4492188,11.515625 C38.4492188,11.2812488 38.4179691,11.0651052 38.3554688,10.8671875 C38.2851559,10.6354155 38.1770841,10.4505215 38.03125,10.3125 C37.7656237,10.0624988 37.4492206,9.9375 37.0820312,9.9375 C36.7122377,9.9375 36.3945326,10.0624988 36.1289062,10.3125 C35.9856764,10.4479173 35.8789066,10.627603 35.8085938,10.8515625 C35.7486976,11.0442718 35.71875,11.251301 35.71875,11.4726562 L35.71875,13.921875 L35.1601562,13.921875 L35.1601562,9.546875 L35.71875,9.546875 L35.71875,10.1054688 L35.734375,10.1054688 C36.0234389,9.65754984 36.4726532,9.43359375 37.0820312,9.43359375 C37.6940135,9.43359375 38.1718733,9.6289043 38.515625,10.0195312 C38.8437516,10.3945331 39.0078125,10.8932261 39.0078125,11.515625 L39.0078125,13.921875 L38.4492188,13.921875 Z M42.78125,13.921875 L41.34375,12.1953125 L40.6367188,13.0898438 L40.6367188,13.921875 L40.078125,13.921875 L40.078125,8 L40.6367188,8 L40.6367188,12.21875 L40.6523438,12.21875 L42.6953125,9.546875 L43.4140625,9.546875 L41.6875,11.7539062 L43.5039062,13.921875 L42.78125,13.921875 Z M48.3945312,11.9375 L44.4101562,11.9375 C44.4309897,12.3671896 44.6119775,12.7395818 44.953125,13.0546875 C45.2916684,13.3671891 45.6770812,13.5234375 46.109375,13.5234375 C46.4531267,13.5234375 46.7682277,13.4322926 47.0546875,13.25 C47.351564,13.0598949 47.5585932,12.8059912 47.6757812,12.4882812 L48.2695312,12.4882812 C48.1080721,12.9466169 47.8294291,13.3177069 47.4335938,13.6015625 C47.0377584,13.8854181 46.5989607,14.0273438 46.1171875,14.0273438 C45.486976,14.0273438 44.9479189,13.8020856 44.5,13.3515625 C44.0572895,12.9062478 43.8359375,12.3684927 43.8359375,11.7382812 C43.8359375,11.1106739 44.0572895,10.5703148 44.5,10.1171875 C44.9479189,9.66145605 45.4843719,9.43359375 46.109375,9.43359375 C46.7447948,9.43359375 47.2864561,9.66666434 47.734375,10.1328125 C48.1796897,10.5937523 48.4023438,11.1419239 48.4023438,11.7773438 L48.3945312,11.9375 Z M47.828125,11.4335938 C47.755208,11.0012999 47.5611995,10.6445327 47.2460938,10.3632812 C46.9283838,10.0794257 46.5520855,9.9375 46.1171875,9.9375 C45.6848937,9.9375 45.3085954,10.0794257 44.9882812,10.3632812 C44.6731755,10.6445327 44.4804691,11.0012999 44.4101562,11.4335938 L47.828125,11.4335938 Z M53.1132812,13.921875 L53.1132812,13.1523438 L53.0976562,13.1523438 C52.7070293,13.73568 52.1393266,14.0273438 51.3945312,14.0273438 C50.7356738,14.0273438 50.1796898,13.8072939 49.7265625,13.3671875 C49.2708311,12.9270811 49.0429688,12.3789095 49.0429688,11.7226562 C49.0429688,11.0716113 49.2734352,10.5260439 49.734375,10.0859375 C50.1901064,9.65103949 50.7434863,9.43359375 51.3945312,9.43359375 C52.1367225,9.43359375 52.7044251,9.72135129 53.0976562,10.296875 L53.1132812,10.296875 L53.1132812,8 L53.6757812,8 L53.6757812,13.921875 L53.1132812,13.921875 Z M53.1484375,11.7382812 C53.1484375,11.2460913 52.9804704,10.8242205 52.6445312,10.4726562 C52.3033837,10.1158836 51.8867212,9.9375 51.3945312,9.9375 C50.8762995,9.9375 50.4479184,10.1093733 50.109375,10.453125 C49.7708316,10.7968767 49.6015625,11.227862 49.6015625,11.7460938 C49.6015625,12.256513 49.7721337,12.6809879 50.1132812,13.0195312 C50.4544288,13.3554704 50.8815079,13.5234375 51.3945312,13.5234375 C51.8867212,13.5234375 52.3033837,13.347658 52.6445312,12.9960938 C52.9804704,12.6497379 53.1484375,12.2304712 53.1484375,11.7382812 Z M54.7304688,9.01171875 L54.7304688,8 L55.2890625,8 L55.2890625,9.01171875 L54.7304688,9.01171875 Z M54.7304688,13.921875 L54.7304688,9.546875 L55.2890625,9.546875 L55.2890625,13.921875 L54.7304688,13.921875 Z M59.6171875,13.921875 L59.6171875,11.515625 C59.6171875,11.2812488 59.5859378,11.0651052 59.5234375,10.8671875 C59.4531246,10.6354155 59.3450528,10.4505215 59.1992188,10.3125 C58.9335924,10.0624988 58.6171893,9.9375 58.25,9.9375 C57.8802065,9.9375 57.5625013,10.0624988 57.296875,10.3125 C57.1536451,10.4479173 57.0468754,10.627603 56.9765625,10.8515625 C56.9166664,11.0442718 56.8867188,11.251301 56.8867188,11.4726562 L56.8867188,13.921875 L56.328125,13.921875 L56.328125,9.546875 L56.8867188,9.546875 L56.8867188,10.1054688 L56.9023438,10.1054688 C57.1914077,9.65754984 57.640622,9.43359375 58.25,9.43359375 C58.8619822,9.43359375 59.339842,9.6289043 59.6835938,10.0195312 C60.0117204,10.3945331 60.1757812,10.8932261 60.1757812,11.515625 L60.1757812,13.921875 L59.6171875,13.921875 Z" id="Linkedin" fill="#FFFFFF" fill-rule="nonzero"></path>
            <g id="linkedin-logo" transform="translate(15.000000, 7.000000)" fill="#FFFFFF" fill-rule="nonzero">
                <path d="M7.98361021,4.68757309 L7.98361021,7.63916473 L6.27246404,7.63916473 L6.27246404,4.8852529 C6.27246404,4.1934478 6.0249652,3.72131787 5.40558701,3.72131787 C4.9327703,3.72131787 4.65139675,4.03949884 4.52761021,4.34728538 C4.48246868,4.45731787 4.47084919,4.61046868 4.47084919,4.76449188 L4.47084919,7.63916473 L2.75912761,7.63916473 C2.75912761,7.63916473 2.78218097,2.974942 2.75912761,2.49169374 L4.47068213,2.49169374 L4.47068213,3.22132715 C4.46721114,3.22678422 4.4627007,3.23266821 4.45943387,3.23795824 L4.47068213,3.23795824 L4.47068213,3.22132715 C4.69807889,2.87109049 5.10418561,2.37076566 6.01317865,2.37076566 C7.13935963,2.3707471 7.98361021,3.10646868 7.98361021,4.68757309 Z M0.968593968,0.0103573086 C0.383016241,0.0103573086 0,0.394450116 0,0.899545244 C0,1.39363341 0.371935035,1.78938283 0.94587471,1.78938283 L0.957308585,1.78938283 C1.55422738,1.78938283 1.92545708,1.39370766 1.92545708,0.899545244 C1.91420882,0.394450116 1.55422738,0.0103573086 0.968593968,0.0103573086 Z M0.101661253,7.63916473 L1.81273318,7.63916473 L1.81273318,2.49169374 L0.101661253,2.49169374 L0.101661253,7.63916473 Z" id="LinkedIn"></path>
            </g>
        </g>
    </g>
</svg>