<svg width="15" height="19" viewBox="0 0 15 19" fill="none" xmlns="http://www.w3.org/2000/svg">
<path fill-rule="evenodd" clip-rule="evenodd" d="M4.60938 7.61475C4.60938 9.26897 5.95539 10.6147 7.60938 10.6147C9.26336 10.6147 10.6094 9.26897 10.6094 7.61475C10.6094 5.96052 9.26389 4.61475 7.60938 4.61475C5.95486 4.61475 4.60938 5.96052 4.60938 7.61475ZM5.13764 7.61527C5.13764 6.25207 6.24646 5.14344 7.60938 5.14344C8.97229 5.14344 10.0811 6.25207 10.0811 7.61527C10.0811 8.97848 8.97229 10.0871 7.60938 10.0871C6.24646 10.0871 5.13764 8.97848 5.13764 7.61527Z" fill="#D1E300"/>
<path d="M7.60938 10.3647C6.09344 10.3647 4.85938 9.13089 4.85938 7.61475H4.35938C4.35938 9.40706 5.81733 10.8647 7.60938 10.8647V10.3647ZM10.3594 7.61475C10.3594 9.13089 9.12531 10.3647 7.60938 10.3647V10.8647C9.40142 10.8647 10.8594 9.40706 10.8594 7.61475H10.3594ZM7.60938 4.86475C9.1258 4.86475 10.3594 6.09858 10.3594 7.61475H10.8594C10.8594 5.82247 9.40198 4.36475 7.60938 4.36475V4.86475ZM4.85938 7.61475C4.85938 6.09858 6.09295 4.86475 7.60938 4.86475V4.36475C5.81677 4.36475 4.35938 5.82247 4.35938 7.61475H4.85938ZM7.60938 4.89344C6.10839 4.89344 4.88764 6.11399 4.88764 7.61527H5.38764C5.38764 6.39015 6.38452 5.39344 7.60938 5.39344V4.89344ZM10.3311 7.61527C10.3311 6.11399 9.11036 4.89344 7.60938 4.89344V5.39344C8.83423 5.39344 9.83111 6.39015 9.83111 7.61527H10.3311ZM7.60938 10.3371C9.11036 10.3371 10.3311 9.11656 10.3311 7.61527H9.83111C9.83111 8.8404 8.83423 9.83711 7.60938 9.83711V10.3371ZM4.88764 7.61527C4.88764 9.11656 6.10839 10.3371 7.60938 10.3371V9.83711C6.38452 9.83711 5.38764 8.8404 5.38764 7.61527H4.88764Z" fill="#D1E300"/>
<path fill-rule="evenodd" clip-rule="evenodd" d="M7.27828 17.8676C7.3204 17.9492 7.4027 18 7.49225 18C7.58181 18 7.66411 17.9492 7.70623 17.8676L9.72395 13.9557C12.2853 12.9964 14 10.4877 14 7.68237C14 3.99737 11.0843 1 7.5 1C3.91573 1 1 3.99737 1 7.68188C1 10.4782 2.70645 12.984 5.25717 13.9483L7.27828 17.8676ZM1.4841 7.68237C1.4841 4.27202 4.18295 1.49757 7.5 1.49757C10.817 1.49757 13.5159 4.27202 13.5159 7.68237C13.5159 10.309 11.8917 12.6546 9.47464 13.5189C9.41655 13.5398 9.36862 13.5821 9.34006 13.6373L7.49225 17.2203L5.64106 13.6303C5.6125 13.5751 5.56506 13.5333 5.50745 13.5124C3.10099 12.6432 1.4841 10.3001 1.4841 7.68237Z" fill="#D1E300"/>
<path d="M7.27828 17.8676L7.05609 17.9822L7.05613 17.9823L7.27828 17.8676ZM7.70623 17.8676L7.92838 17.9823L7.92841 17.9822L7.70623 17.8676ZM9.72395 13.9557L9.63627 13.7216L9.54597 13.7554L9.50177 13.8411L9.72395 13.9557ZM5.25717 13.9483L5.47936 13.8337L5.43537 13.7484L5.34557 13.7144L5.25717 13.9483ZM9.47464 13.5189L9.39047 13.2835L9.39002 13.2836L9.47464 13.5189ZM9.34006 13.6373L9.118 13.5225L9.11787 13.5227L9.34006 13.6373ZM7.49225 17.2203L7.27006 17.3349L7.49224 17.7658L7.71445 17.3349L7.49225 17.2203ZM5.64106 13.6303L5.86326 13.5158L5.86312 13.5155L5.64106 13.6303ZM5.50745 13.5124L5.5927 13.2774L5.59238 13.2773L5.50745 13.5124ZM7.49225 17.75C7.49873 17.75 7.50081 17.7537 7.50044 17.753L7.05613 17.9823C7.13999 18.1448 7.30667 18.25 7.49225 18.25V17.75ZM7.48407 17.753C7.4837 17.7537 7.48578 17.75 7.49225 17.75V18.25C7.67784 18.25 7.84452 18.1448 7.92838 17.9823L7.48407 17.753ZM9.50177 13.8411L7.48404 17.753L7.92841 17.9822L9.94614 14.0703L9.50177 13.8411ZM13.75 7.68237C13.75 10.3865 12.0971 12.7999 9.63627 13.7216L9.81164 14.1899C12.4735 13.1929 14.25 10.5888 14.25 7.68237H13.75ZM7.5 1.25C10.9397 1.25 13.75 4.12888 13.75 7.68237H14.25C14.25 3.86586 11.2288 0.75 7.5 0.75V1.25ZM1.25 7.68188C1.25 4.12889 4.06026 1.25 7.5 1.25V0.75C3.7712 0.75 0.75 3.86584 0.75 7.68188H1.25ZM5.34557 13.7144C2.89497 12.788 1.25 10.3774 1.25 7.68188H0.75C0.75 10.5791 2.51792 13.18 5.16876 14.1821L5.34557 13.7144ZM7.50048 17.7531L5.47936 13.8337L5.03497 14.0629L7.05609 17.9822L7.50048 17.7531ZM7.5 1.24757C4.0384 1.24757 1.2341 4.14052 1.2341 7.68237H1.7341C1.7341 4.40353 4.3275 1.74757 7.5 1.74757V1.24757ZM13.7659 7.68237C13.7659 4.14052 10.9616 1.24757 7.5 1.24757V1.74757C10.6725 1.74757 13.2659 4.40353 13.2659 7.68237H13.7659ZM9.55881 13.7543C12.0785 12.8533 13.7659 10.4114 13.7659 7.68237H13.2659C13.2659 10.2067 11.705 12.4559 9.39047 13.2835L9.55881 13.7543ZM9.56213 13.7521C9.56213 13.7521 9.5614 13.7534 9.55927 13.7541L9.39002 13.2836C9.2717 13.3262 9.17511 13.412 9.118 13.5225L9.56213 13.7521ZM7.71445 17.3349L9.56225 13.7519L9.11787 13.5227L7.27006 17.1057L7.71445 17.3349ZM5.41886 13.7449L7.27006 17.3349L7.71445 17.1057L5.86326 13.5158L5.41886 13.7449ZM5.42219 13.7474C5.42 13.7466 5.41896 13.7451 5.419 13.7452L5.86312 13.5155C5.80604 13.4051 5.71011 13.32 5.5927 13.2774L5.42219 13.7474ZM1.2341 7.68237C1.2341 10.4021 2.91394 12.8414 5.42251 13.7475L5.59238 13.2773C3.28804 12.4449 1.7341 10.1981 1.7341 7.68237H1.2341Z" fill="#D1E300"/>
</svg>
