<svg width="12" height="20" viewBox="0 0 12 20" fill="none" xmlns="http://www.w3.org/2000/svg">
<mask id="mask0" mask-type="alpha" maskUnits="userSpaceOnUse" x="0" y="0" width="12" height="20">
<path fill-rule="evenodd" clip-rule="evenodd" d="M0 0H11.9721V19.1209H0V0Z" fill="white"/>
</mask>
<g mask="url(#mask0)">
<path fill-rule="evenodd" clip-rule="evenodd" d="M5.98364 2.74767C4.20601 2.7436 2.73183 4.18671 2.728 5.93465C2.72404 7.72738 4.15658 9.17527 5.94099 9.18215C7.76365 9.18913 9.22942 7.76725 9.23248 5.9892C9.23559 4.19675 7.78737 2.75182 5.98364 2.74767ZM6.60176 0C6.96372 0.080749 7.33514 0.132335 7.68601 0.246837C10.028 1.01125 11.4503 2.60572 11.8916 5.03154C12.1413 6.40398 11.7978 7.67766 11.0299 8.82234C10.5922 9.47474 10.0962 10.0907 9.59592 10.6979C8.65667 11.8379 8.01819 13.141 7.48665 14.5025C6.94015 15.9022 6.51192 17.339 6.21092 18.8126C6.20298 18.8515 6.20036 18.8983 6.17688 18.9258C6.11731 18.9956 6.04732 19.0565 5.98144 19.121C5.91814 19.0517 5.81846 18.9922 5.79723 18.9119C5.59414 18.1449 5.4259 17.3681 5.20641 16.606C4.70772 14.8747 4.07836 13.1904 3.09589 11.671C2.64869 10.9795 2.08435 10.3635 1.57046 9.71531C0.948036 8.9302 0.39312 8.10115 0.161247 7.11347C-0.272665 5.26513 0.18214 3.60755 1.36904 2.15761C2.36949 0.935522 3.68141 0.240765 5.25255 0.0439841C5.28922 0.0394422 5.3234 0.0151554 5.35873 0H6.60176Z" fill="#D1E300"/>
</g>
</svg>
