<svg width="15" height="15" viewBox="0 0 15 15" fill="none" xmlns="http://www.w3.org/2000/svg">
<path fill-rule="evenodd" clip-rule="evenodd" d="M14.5894 0.0246325C14.68 -0.0150647 14.7845 -0.00636355 14.8673 0.0477185C14.9501 0.101801 15 0.194056 15 0.292963V12.9299C15 13.0288 14.9501 13.1211 14.8673 13.1752C14.8189 13.2068 14.7631 13.2229 14.707 13.2229C14.6671 13.2229 14.6271 13.2148 14.5894 13.1983L9.9002 11.1427L7.70698 13.3323C7.65094 13.3883 7.57608 13.418 7.49991 13.418C7.46215 13.418 7.42403 13.4107 7.38776 13.3956C7.27837 13.3502 7.20703 13.2434 7.20703 13.125V9.96216L0.175342 6.87978C0.0688184 6.83305 0 6.72776 0 6.61145C0 6.49514 0.0688184 6.38985 0.175342 6.34312L14.5894 0.0246325ZM6.53048 9.0258L7.32123 9.37245L13.7734 1.0221L1.0227 6.61145L5.97735 8.78334L8.83834 5.08069C8.93728 4.95266 9.12126 4.92905 9.24929 5.02798C9.37731 5.12692 9.40093 5.3109 9.30199 5.43893L6.53048 9.0258ZM7.79297 12.4185V10.219L9.32394 10.8901L7.79297 12.4185ZM7.87436 9.61491L14.4141 12.4816V1.15127L7.87436 9.61491Z" fill="#D1E300"/>
<path d="M10.0673 12.1529C9.93926 12.054 9.75527 12.0776 9.65634 12.2056L7.86194 14.5279C7.763 14.6559 7.78661 14.8399 7.91464 14.9389C7.96796 14.9801 8.03101 15 8.09356 15C8.18118 15 8.26787 14.9609 8.32559 14.8862L10.12 12.5639C10.2189 12.4359 10.1953 12.2519 10.0673 12.1529Z" fill="#D1E300"/>
<path d="M4.01707 14.4729C3.88911 14.3739 3.70512 14.3974 3.6061 14.5253L3.60425 14.5277C3.50523 14.6557 3.5287 14.8397 3.65666 14.9387C3.71001 14.98 3.77312 15 3.83573 15C3.9233 15 4.0099 14.9609 4.06764 14.8863L4.06949 14.8839C4.16851 14.7559 4.14504 14.5719 4.01707 14.4729Z" fill="#D1E300"/>
<path d="M6.28676 11.5361C6.15873 11.4372 5.97475 11.4608 5.87581 11.5888L4.18225 13.7806C4.08331 13.9086 4.10693 14.0926 4.23495 14.1916C4.28827 14.2328 4.35132 14.2527 4.41387 14.2527C4.5015 14.2527 4.58818 14.2136 4.6459 14.1389L6.33946 11.9471C6.4384 11.8191 6.41482 11.6351 6.28676 11.5361Z" fill="#D1E300"/>
<path d="M9.91727 4.16481C9.7893 4.06579 9.60532 4.08922 9.50627 4.21719L9.50269 4.22182C9.40367 4.34976 9.42714 4.53378 9.55507 4.63283C9.60845 4.67414 9.67156 4.69412 9.7342 4.69412C9.82173 4.69412 9.90834 4.65503 9.96608 4.58044L9.96965 4.57582C10.0687 4.44788 10.0452 4.26386 9.91727 4.16481Z" fill="#D1E300"/>
</svg>
