<svg width="13" height="19" viewBox="0 0 13 19" fill="none" xmlns="http://www.w3.org/2000/svg">
<path fill-rule="evenodd" clip-rule="evenodd" d="M2.57554 0.00383042H10.3716C11.6361 0.00383042 12.9874 0.705369 12.9874 2.67693V16.2763C12.9874 17.5705 12.298 18.9534 10.3716 18.9534H2.63857C1.37402 18.9534 0.0228119 18.2479 0.0228119 16.2763V2.68097C-0.0223927 1.94984 0.226725 1.23162 0.712206 0.693273C1.21635 0.214443 1.8888 -0.0343712 2.57554 0.00383042ZM10.3716 18.3487C12.1955 18.3487 12.3964 16.8972 12.3925 16.2763V14.6636H0.613721V16.2763C0.613721 18.1471 2.0319 18.3487 2.63857 18.3487H10.3716ZM12.3925 14.0669H0.613721V3.51959H12.3925V14.0669ZM0.613721 2.91884H12.3964V2.68097C12.3964 0.810196 10.9783 0.608605 10.3716 0.608605H2.60311C2.06396 0.569043 1.53219 0.755313 1.12978 1.12468C0.759183 1.55064 0.572997 2.11212 0.613721 2.68097V2.91884Z" fill="#D1E300"/>
<path d="M7.43603 1.47949H5.58452C5.42133 1.47949 5.28906 1.61486 5.28906 1.78188C5.28906 1.9489 5.42133 2.08427 5.58452 2.08427H7.43603C7.59922 2.08427 7.73149 1.9489 7.73149 1.78188C7.73149 1.61486 7.59922 1.47949 7.43603 1.47949Z" fill="#D1E300"/>
<path fill-rule="evenodd" clip-rule="evenodd" d="M5.21094 16.5666C5.20878 15.834 5.78728 15.2383 6.50306 15.2361C7.22102 15.2361 7.80306 15.8318 7.80306 16.5666C7.8009 17.296 7.22368 17.8868 6.51094 17.889C5.79516 17.8912 5.21311 17.2992 5.21094 16.5666ZM6.50306 17.2883V17.2843C6.89252 17.2865 7.20999 16.9652 7.21216 16.5666C7.21216 16.1696 6.89883 15.8471 6.51094 15.8449C6.12149 15.8427 5.80402 16.164 5.80185 16.5626C5.79969 16.9612 6.11361 17.2861 6.50306 17.2883Z" fill="#D1E300"/>
</svg>
