<svg width="23" height="23" viewBox="0 0 23 23" fill="none" xmlns="http://www.w3.org/2000/svg">
<path fill-rule="evenodd" clip-rule="evenodd" d="M0 11.5C0 5.12273 5.12273 0 11.5 0C17.8773 0 23 5.12273 23 11.5C23 17.8773 17.8773 23 11.5 23C5.12273 23 0 17.8773 0 11.5ZM17.25 12.5455C17.5636 12.5455 17.7727 12.3364 17.7727 12.0227V10.9773C17.7727 10.6636 17.5636 10.4545 17.25 10.4545H12.8068C12.65 10.4545 12.5455 10.35 12.5455 10.1932V5.75C12.5455 5.43636 12.3364 5.22727 12.0227 5.22727H10.9773C10.6636 5.22727 10.4545 5.43636 10.4545 5.75V10.1932C10.4545 10.35 10.35 10.4545 10.1932 10.4545H5.75C5.43636 10.4545 5.22727 10.6636 5.22727 10.9773V12.0227C5.22727 12.3364 5.43636 12.5455 5.75 12.5455H10.1932C10.35 12.5455 10.4545 12.65 10.4545 12.8068V17.25C10.4545 17.5636 10.6636 17.7727 10.9773 17.7727H12.0227C12.3364 17.7727 12.5455 17.5636 12.5455 17.25V12.8068C12.5455 12.65 12.65 12.5455 12.8068 12.5455H17.25Z" fill="#00294E"/>
</svg>
