<svg width="17" height="19" viewBox="0 0 17 19" fill="none" xmlns="http://www.w3.org/2000/svg">
<path d="M2.75278 6.67618C3.51164 6.67618 4.17565 6.9623 4.64994 7.43917L11.3848 3.52884C11.29 3.33809 11.29 3.05197 11.29 2.86122C11.29 1.23986 12.5231 0 14.1357 0C15.7483 0 16.9814 1.23986 16.9814 2.86122C16.9814 4.48258 15.7483 5.72244 14.1357 5.72244C13.3769 5.72244 12.7128 5.43632 12.2386 4.95945L5.50366 8.86978C5.59851 9.06053 5.59851 9.34665 5.59851 9.5374C5.59851 9.72815 5.59851 10.0143 5.50366 10.205L12.2386 14.2107C12.7128 13.7339 13.3769 13.4477 14.1357 13.4477C15.6534 13.4477 16.8866 14.6876 16.8866 16.2136C16.8866 17.7396 15.6534 18.9794 14.1357 18.9794C12.618 18.9794 11.3848 17.7396 11.3848 16.2136C11.3848 16.0228 11.3848 15.8321 11.4797 15.546L4.74479 11.5403C4.2705 12.0171 3.6065 12.3032 2.84764 12.3032C1.23506 12.3032 0.00190544 11.0634 0.00190544 9.44203C0.00190544 7.82067 1.1402 6.67618 2.75278 6.67618Z" fill="#5D5D5D"/>
</svg>
