<svg width="56" height="59" viewBox="0 0 56 59" fill="none" xmlns="http://www.w3.org/2000/svg">
<rect width="56" height="66" fill="#D1E300"/>
<path d="M27.595 18.1506L22.1257 23.9283C21.9903 24.0888 21.9643 24.2643 22.0476 24.4549C22.1311 24.6453 22.2821 24.7409 22.5009 24.7409H26.0012V43.5185C26.0012 43.659 26.048 43.7744 26.1418 43.8646C26.2355 43.9547 26.3554 44 26.5012 44H29.5013C29.6471 44 29.767 43.9549 29.8606 43.8647C29.9543 43.7743 30.001 43.6589 30.001 43.5186V24.7408H33.5013C33.71 24.7408 33.8609 24.645 33.9544 24.4547C34.0381 24.264 34.0064 24.0885 33.8609 23.9279L28.3288 18.1503C28.2247 18.05 28.0999 18 27.9539 18C27.8188 18 27.6992 18.0503 27.595 18.1506Z" fill="white"/>
</svg>
