<?xml version="1.0" encoding="UTF-8"?>
<svg width="66px" height="22px" viewBox="0 0 66 22" version="1.1" xmlns="http://www.w3.org/2000/svg" xmlns:xlink="http://www.w3.org/1999/xlink">
    <!-- Generator: Sketch 53.2 (72643) - https://sketchapp.com -->
    <title>Group 8</title>
    <desc>Created with Sketch.</desc>
    <g id="Page-1" stroke="none" stroke-width="1" fill="none" fill-rule="evenodd">
        <g id="Group-8">
            <rect id="Rectangle-Copy-37" fill="#53A8E6" x="0" y="0" width="66" height="22" rx="3"></rect>
            <g id="flaticon1549964088-svg" transform="translate(12.000000, 8.000000)" fill="#FFFFFF" fill-rule="nonzero">
                <path d="M9,0.840864293 C8.66875,0.98249355 8.31332353,1.07854489 7.93988235,1.12142673 C8.32119118,0.901100361 8.61307353,0.551631837 8.75141176,0.136492518 C8.39373529,0.340528896 7.99892647,0.488685501 7.57825,0.569000258 C7.24138235,0.222242002 6.76222059,0.00625773994 6.23075,0.00625773994 C5.21113235,0.00625773994 4.38441176,0.803970588 4.38441176,1.78727296 C4.38441176,1.92673117 4.40072059,2.06293989 4.43222059,2.19318885 C2.89801471,2.11883385 1.53758824,1.40958075 0.627073529,0.331844685 C0.467911765,0.594499484 0.377367647,0.900546956 0.377367647,1.22724071 C0.377367647,1.84533798 0.703558824,2.39071207 1.19847059,2.70978586 C0.895897059,2.70002322 0.611323529,2.61970846 0.362191176,2.48621001 L0.362191176,2.50845975 C0.362191176,3.37128999 0.998823529,4.09139835 1.84297059,4.25529154 C1.68830882,4.29544892 1.52522059,4.31769866 1.3565,4.31769866 C1.23727941,4.31769866 1.12198529,4.30630418 1.00894118,4.28459365 C1.24401471,4.99276832 1.92564706,5.50774768 2.73325,5.52186662 C2.10167647,5.99941305 1.30532353,6.28322497 0.440367647,6.28322497 C0.291338235,6.28322497 0.144544118,6.27454076 1.47058824e-05,6.25880418 C0.817176471,6.76511352 1.78730882,7.06031992 2.82998529,7.06031992 C6.22627941,7.06031992 8.08275,4.34592234 8.08275,1.99186275 L8.07655882,1.76123452 C8.43929412,1.51159185 8.75310294,1.1979386 9,0.840864293 Z" id="Shape"></path>
            </g>
            <path d="M28.1621094,8.6171875 L28.1621094,14 L27.5683594,14 L27.5683594,8.6171875 L26.2089844,8.6171875 L26.2089844,8.078125 L29.5136719,8.078125 L29.5136719,8.6171875 L28.1621094,8.6171875 Z M34.4550781,14 L33.8222656,14 L32.8925781,11.0898438 L32.8769531,11.0898438 L31.9667969,14 L31.3339844,14 L29.6699219,9.625 L30.2558594,9.625 L31.6308594,13.2890625 L31.6464844,13.2890625 L32.6464844,10.1523438 L33.1347656,10.1523438 L34.1425781,13.2890625 L34.1582031,13.2890625 L35.5488281,9.625 L36.1269531,9.625 L34.4550781,14 Z M36.7324219,9.08984375 L36.7324219,8.078125 L37.2910156,8.078125 L37.2910156,9.08984375 L36.7324219,9.08984375 Z M36.7324219,14 L36.7324219,9.625 L37.2910156,9.625 L37.2910156,14 L36.7324219,14 Z M39.4003906,10.1289062 L39.4003906,14 L38.8417969,14 L38.8417969,10.1289062 L37.9199219,10.1289062 L37.9199219,9.625 L38.8417969,9.625 L38.8417969,8.078125 L39.4003906,8.078125 L39.4003906,9.625 L40.4472656,9.625 L40.4472656,10.1289062 L39.4003906,10.1289062 Z M42.1113281,10.1289062 L42.1113281,14 L41.5527344,14 L41.5527344,10.1289062 L40.6308594,10.1289062 L40.6308594,9.625 L41.5527344,9.625 L41.5527344,8.078125 L42.1113281,8.078125 L42.1113281,9.625 L43.1582031,9.625 L43.1582031,10.1289062 L42.1113281,10.1289062 Z M48.0917969,12.015625 L44.1074219,12.015625 C44.1282553,12.4453146 44.3092431,12.8177068 44.6503906,13.1328125 C44.988934,13.4453141 45.3743468,13.6015625 45.8066406,13.6015625 C46.1503923,13.6015625 46.4654934,13.5104176 46.7519531,13.328125 C47.0488296,13.1380199 47.2558588,12.8841162 47.3730469,12.5664062 L47.9667969,12.5664062 C47.8053377,13.0247419 47.5266947,13.3958319 47.1308594,13.6796875 C46.7350241,13.9635431 46.2962264,14.1054688 45.8144531,14.1054688 C45.1842416,14.1054688 44.6451845,13.8802106 44.1972656,13.4296875 C43.7545551,12.9843728 43.5332031,12.4466177 43.5332031,11.8164062 C43.5332031,11.1887989 43.7545551,10.6484398 44.1972656,10.1953125 C44.6451845,9.73958105 45.1816375,9.51171875 45.8066406,9.51171875 C46.4420605,9.51171875 46.9837217,9.74478934 47.4316406,10.2109375 C47.8769554,10.6718773 48.0996094,11.2200489 48.0996094,11.8554688 L48.0917969,12.015625 Z M47.5253906,11.5117188 C47.4524736,11.0794249 47.2584651,10.7226577 46.9433594,10.4414062 C46.6256495,10.1575507 46.2493511,10.015625 45.8144531,10.015625 C45.3821593,10.015625 45.005861,10.1575507 44.6855469,10.4414062 C44.3704411,10.7226577 44.1777347,11.0794249 44.1074219,11.5117188 L47.5253906,11.5117188 Z M50.7597656,10.1054688 C49.9264281,10.1731774 49.5097656,10.6184855 49.5097656,11.4414062 L49.5097656,14 L48.9511719,14 L48.9511719,9.625 L49.5097656,9.625 L49.5097656,10.2578125 L49.5253906,10.2578125 C49.6399745,9.99479035 49.8053375,9.80468809 50.0214844,9.6875 C50.1985686,9.59374953 50.4446599,9.53515637 50.7597656,9.51171875 L50.7597656,10.1054688 Z" id="Twitter" fill="#FFFFFF" fill-rule="nonzero"></path>
        </g>
    </g>
</svg>