<svg width="30" height="18" viewBox="0 0 30 18" fill="none" xmlns="http://www.w3.org/2000/svg">
<path opacity="0.5" fill-rule="evenodd" clip-rule="evenodd" d="M0 9C0 9.15911 0.0260414 9.31823 0.078125 9.47734C0.130209 9.63645 0.234374 9.76905 0.390625 9.87512L7.89062 17.5125C8.46355 18.149 9.04948 18.1622 9.64844 17.5523C10.2474 16.9423 10.2344 16.3457 9.60938 15.7623L4.29688 10.2729H28.75C29.1146 10.2729 29.4141 10.1536 29.6484 9.9149C29.8828 9.67623 30 9.37126 30 9C30 8.62874 29.8828 8.32378 29.6484 8.0851C29.4141 7.84643 29.1146 7.7271 28.75 7.7271H4.29688L9.60938 2.23773C10.2344 1.65432 10.2474 1.05765 9.64844 0.447716C9.04948 -0.162216 8.46355 -0.148957 7.89062 0.487497L0.390625 8.12488C0.234374 8.23096 0.130209 8.36355 0.078125 8.52266C0.0260414 8.68178 0 8.84089 0 9Z" fill="white"/>
</svg>
