<svg width="108" height="16" viewBox="0 0 108 16" fill="none" xmlns="http://www.w3.org/2000/svg">
<path d="M8.90195 0.263541L11.0643 5.31475L16.6003 5.78413C16.9843 5.81685 17.1405 6.28968 16.849 6.53858L12.6499 10.1291L13.9082 15.4706C13.9955 15.8418 13.588 16.1337 13.2581 15.9365L8.50054 13.1047L3.74296 15.9365C3.41223 16.1329 3.00559 15.8409 3.09285 15.4706L4.35118 10.1291L0.151211 6.53772C-0.140248 6.28882 0.0150805 5.81599 0.399911 5.78326L5.93588 5.31389L8.09826 0.263541C8.24835 -0.0878471 8.75186 -0.0878471 8.90195 0.263541Z" fill="#D1E300"/>
<path d="M31.902 0.263541L34.0643 5.31475L39.6003 5.78413C39.9843 5.81685 40.1405 6.28968 39.849 6.53858L35.6499 10.1291L36.9082 15.4706C36.9955 15.8418 36.588 16.1337 36.2581 15.9365L31.5005 13.1047L26.743 15.9365C26.4122 16.1329 26.0056 15.8409 26.0928 15.4706L27.3512 10.1291L23.1512 6.53772C22.8598 6.28882 23.0151 5.81599 23.3999 5.78326L28.9359 5.31389L31.0983 0.263541C31.2484 -0.0878471 31.7519 -0.0878471 31.902 0.263541Z" fill="#D1E300"/>
<path d="M54.902 0.263541L57.0643 5.31475L62.6003 5.78413C62.9843 5.81685 63.1405 6.28968 62.849 6.53858L58.6499 10.1291L59.9082 15.4706C59.9955 15.8418 59.588 16.1337 59.2581 15.9365L54.5005 13.1047L49.743 15.9365C49.4122 16.1329 49.0056 15.8409 49.0928 15.4706L50.3512 10.1291L46.1512 6.53772C45.8598 6.28882 46.0151 5.81599 46.3999 5.78326L51.9359 5.31389L54.0983 0.263541C54.2484 -0.0878471 54.7519 -0.0878471 54.902 0.263541Z" fill="#D1E300"/>
<path d="M76.902 0.263541L79.0643 5.31475L84.6003 5.78413C84.9843 5.81685 85.1405 6.28968 84.849 6.53858L80.6499 10.1291L81.9082 15.4706C81.9955 15.8418 81.588 16.1337 81.2581 15.9365L76.5005 13.1047L71.743 15.9365C71.4122 16.1329 71.0056 15.8409 71.0928 15.4706L72.3512 10.1291L68.1512 6.53772C67.8598 6.28882 68.0151 5.81599 68.3999 5.78326L73.9359 5.31389L76.0983 0.263541C76.2484 -0.0878471 76.7519 -0.0878471 76.902 0.263541Z" fill="#D1E300"/>
<path d="M99.902 0.263541L102.064 5.31475L107.6 5.78413C107.984 5.81685 108.14 6.28968 107.849 6.53858L103.65 10.1291L104.908 15.4706C104.996 15.8418 104.588 16.1337 104.258 15.9365L99.5005 13.1047L94.743 15.9365C94.4122 16.1329 94.0056 15.8409 94.0928 15.4706L95.3512 10.1291L91.1512 6.53772C90.8598 6.28882 91.0151 5.81599 91.3999 5.78326L96.9359 5.31389L99.0983 0.263541C99.2484 -0.0878471 99.7519 -0.0878471 99.902 0.263541Z" fill="#D1E300"/>
</svg>
