<svg width="50" height="50" viewBox="0 0 50 50" fill="none" xmlns="http://www.w3.org/2000/svg">
<path d="M49.9813 47.8307C49.9813 48.4539 49.7731 48.9733 49.3569 49.3887C48.9405 49.7003 48.5243 49.9079 47.8998 49.9079H2.10747C1.58715 49.9079 1.06673 49.7002 0.650398 49.3887C0.234063 48.9732 0.0259953 48.4539 0.0259953 47.8307V17.3977H49.9813V47.8307Z" fill="#FFD15C"/>
<path d="M49.3569 49.3886C48.9405 49.7002 48.5243 49.9079 47.8998 49.9079H2.10747C1.58715 49.9079 1.06673 49.7001 0.650398 49.3886L25.0036 28.5115L49.3569 49.3886Z" fill="#F8B64C"/>
<path d="M49.9813 17.3976L42.9043 22.4871L26.3566 34.3279C25.524 34.9511 24.3792 34.9511 23.5466 34.3279L7.10299 22.4871L0.0259953 17.3976L7.10299 12.3081L22.5059 1.29829L23.6507 0.467371C24.4833 -0.15579 25.6281 -0.15579 26.4607 0.467371L27.6055 1.29829L34.9947 6.5955L38.6373 9.19212L42.9043 12.3081L49.9813 17.3976Z" fill="#40596B"/>
<path d="M42.9043 7.7381V22.4871L26.3566 34.328C25.524 34.9511 24.3792 34.9511 23.5466 34.328L7.10299 22.4871V3.37568C7.10299 2.23313 8.03964 1.29834 9.18446 1.29834H36.3476L42.9043 7.7381Z" fill="#F2F2F2"/>
<path d="M36.4517 6.07627C36.4517 7.01106 37.1802 7.7381 38.1168 7.7381H42.9042L36.4516 1.29834L36.4517 6.07627V6.07627Z" fill="#CDD6E0"/>
<path fill-rule="evenodd" clip-rule="evenodd" d="M32.8092 22.1756H31.144C30.5195 22.9026 29.791 23.4219 28.8544 23.8375C27.9177 24.149 26.7729 24.3568 25.524 24.3568C24.171 24.3568 23.0262 24.1491 21.9855 23.7336C20.9447 23.3181 20.2161 22.5911 19.5917 21.6563C19.0714 20.7215 18.7592 19.6828 18.7592 18.5403C18.7592 17.2939 18.9672 16.1513 19.4876 15.1127C20.0081 14.074 20.7366 13.243 21.7773 12.6198C22.818 11.9967 24.0668 11.685 25.5239 11.685C27.2931 11.685 28.6461 12.1005 29.5828 13.0353C30.5195 13.8662 31.0398 15.0088 31.0398 16.3591C31.0398 17.0861 30.8318 17.8133 30.5195 18.5403C30.2073 19.2673 29.6869 19.7866 29.1665 20.2021C28.7502 20.5137 28.334 20.7214 28.1258 20.7214C28.0815 20.7214 28.0561 20.7214 28.0335 20.7134C28.0029 20.7026 27.9775 20.6773 27.9176 20.6175C27.8135 20.5137 27.8135 20.4098 27.8135 20.3059C27.8135 20.202 27.8135 19.9944 27.9176 19.5789L29.1665 13.7624H26.981L26.7728 14.6972C26.2524 13.9701 25.5239 13.5546 24.5872 13.5546C23.2343 13.5546 22.0894 14.1778 21.2569 15.4242C20.5284 16.5667 20.2161 17.7093 20.2161 18.9557C20.2161 19.9944 20.5284 20.8254 21.1528 21.4486C21.6732 22.0717 22.4017 22.3833 23.3383 22.3833C24.1709 22.3833 24.8995 22.0717 25.5239 21.4486C25.5239 21.7601 25.7321 21.9678 25.9402 22.1756C26.1484 22.2795 26.5646 22.3833 26.981 22.3833C28.6461 22.3833 29.9991 21.7602 31.0398 20.306C31.8724 19.1635 32.2887 17.9171 32.2887 16.5668C32.2887 15.4243 31.9765 14.2818 31.4562 13.347C30.9358 12.3083 30.1032 11.5812 29.0624 11.0619C28.0217 10.5426 26.7729 10.231 25.4199 10.231C23.8588 10.231 22.4018 10.5426 21.1529 11.1657C19.904 11.7889 18.9673 12.7237 18.2388 14.074C17.5104 15.4243 17.1981 16.7746 17.1981 18.3325C17.1981 19.6827 17.5104 21.033 18.1348 22.1756C18.7592 23.4219 19.7999 24.2529 21.0488 24.8761C22.2977 25.4992 23.8589 25.8109 25.6281 25.8109C27.5014 25.8109 29.0624 25.4992 30.3114 24.7722C31.4562 24.149 32.2888 23.3181 32.8092 22.1756ZM22.714 20.4098C22.4018 19.9944 22.2977 19.5789 22.2977 18.8518C22.2977 18.3324 22.4018 17.7093 22.6099 17.0859C22.818 16.3589 23.1302 15.8396 23.5465 15.528C23.8588 15.2164 24.3791 15.0087 24.7954 15.0087C25.2118 15.0087 25.5239 15.2163 25.8362 15.528C26.1484 15.9435 26.2525 16.359 26.2525 16.9822C26.2525 17.5014 26.1484 18.1247 25.9402 18.7479C25.7322 19.3711 25.524 19.8904 25.2118 20.202C25.0037 20.4097 24.7955 20.6174 24.5873 20.7213C24.3792 20.8252 24.067 20.9291 23.7548 20.9291C23.3384 20.9291 23.0263 20.7214 22.714 20.4098Z" fill="#FF7058"/>
</svg>
