<svg width="39" height="37" viewBox="0 0 39 37" fill="none" xmlns="http://www.w3.org/2000/svg">
<path fill-rule="evenodd" clip-rule="evenodd" d="M22.3508 22.0415C21.0081 15.0874 14.6739 11.927 8.2093 13.1585C8.7771 10.1695 11.0414 7.59806 13.1307 5.22526C13.7688 4.50065 14.3905 3.79457 14.9426 3.10078C15.2773 2.68023 15.4498 1.94064 14.9426 1.54435C13.6984 0.572244 12.5373 0.269572 11.4676 0.423031C11.3934 0.218824 11.197 0.0665777 10.9419 0.14725C7.14504 1.34965 4.68623 5.42875 3.0412 8.80929C0.870464 13.2711 -0.21852 18.4364 0.0365877 23.3944C0.438851 31.2109 7.37784 38.6642 15.6408 36.4942C21.6731 34.9101 23.3853 27.3999 22.3508 22.0415ZM6.89034 28.2964C6.89057 28.2953 6.89096 28.2945 6.89138 28.2937L6.8918 28.2928C6.89233 28.2918 6.89286 28.2909 6.89315 28.2897C6.92099 28.1817 6.94588 28.073 6.97081 27.9641L6.97081 27.9641L6.99769 27.8473C7.10946 27.9925 7.21098 28.1536 7.30064 28.3289C7.15891 28.3475 7.02101 28.3594 6.88913 28.3623C6.88872 28.3507 6.88923 28.3397 6.88974 28.3289C6.89024 28.3181 6.89074 28.3074 6.89034 28.2964ZM5.45819 10.0331C5.34803 10.0228 5.24228 9.99572 5.14257 9.95286C4.82032 10.6178 4.51475 11.2901 4.24175 11.9755C4.35413 11.9753 4.46429 11.9931 4.56943 12.0236C4.83761 11.3465 5.13533 10.6842 5.45819 10.0331ZM4.31372 29.7942C4.57345 30.0641 4.85208 30.3227 5.14217 30.5718C5.09875 30.6282 5.06196 30.6888 5.0308 30.7525C4.77227 30.4482 4.52822 30.132 4.31372 29.7942ZM11.0239 28.3204C11.1819 28.8475 11.4334 29.3301 11.7663 29.7673C11.925 29.8823 12.0914 29.9814 12.2669 30.0621C11.8598 29.2218 11.421 28.3904 10.875 27.6439C10.8995 27.8364 10.9379 28.0226 10.9865 28.204C11.0074 28.2428 11.0201 28.2816 11.0239 28.3204Z" fill="#D1E300"/>
<path fill-rule="evenodd" clip-rule="evenodd" d="M26.1898 6.77514C25.1263 8.37991 24.0926 9.93978 23.6099 11.9009C31.2619 10.5673 39.5372 17.3005 38.7471 25.29C37.8981 33.8761 30.0264 37.6422 22.2019 35.8646C21.8372 35.7817 21.6343 35.568 21.5571 35.3152C21.2624 34.995 21.1499 34.5224 21.4518 34.0176C22.7953 31.7705 23.705 29.3374 24.1022 26.9075C24.0075 26.1427 24.0706 25.3818 24.3191 24.6774C24.4637 19.8488 22.4334 15.2661 17.5255 12.4516C17.1116 12.2141 16.9775 11.6627 17.2129 11.2525L17.2788 11.138C17.3035 11.0954 17.3281 11.0529 17.3526 11.0101C17.2669 10.8067 17.2292 10.5836 17.2655 10.3637C17.5731 8.50639 18.4991 6.57552 19.7885 4.98472C20.7609 3.53707 21.9779 2.24126 23.0926 1.23094C23.7231 0.659562 24.5465 1.04351 24.8193 1.62844C25.3993 1.85166 25.9416 2.12481 26.4948 2.40346L26.4948 2.40347C26.8009 2.55767 27.1104 2.71356 27.4315 2.86359C27.9244 3.09388 28.0169 3.7708 27.7815 4.2061C27.2901 5.11461 26.736 5.9508 26.1898 6.77513L26.1898 6.77514ZM26.6301 34.0584C26.6158 34.0735 26.6016 34.0886 26.5865 34.1029C27.3054 34.0267 28.0137 33.8955 28.704 33.719C28.6954 33.7007 28.6861 33.683 28.6769 33.6653L28.6769 33.6653C28.6528 33.6192 28.6288 33.5733 28.6157 33.5176C28.6123 33.5029 28.6095 33.4889 28.6067 33.4749C28.6041 33.4621 28.6015 33.4492 28.5985 33.4359C28.0406 33.7624 27.384 33.9654 26.6657 34.0214C26.6535 34.0335 26.6418 34.0459 26.6301 34.0584ZM32.1364 19.0819C32.0646 19.2145 32.0012 19.3476 31.9378 19.4809L31.9316 19.494C31.9291 19.476 31.9276 19.4577 31.9261 19.4394C31.9245 19.4187 31.9228 19.3979 31.9197 19.3775C31.9295 19.0932 31.9794 18.8003 32.0562 18.5016C32.0603 18.5045 32.0647 18.5071 32.0691 18.5097C32.0734 18.5124 32.0778 18.515 32.0819 18.5178C32.1213 18.6824 32.1535 18.8502 32.1786 19.0211C32.1729 19.0303 32.1664 19.0389 32.1598 19.0476L32.1598 19.0476C32.1515 19.0585 32.1433 19.0695 32.1364 19.0819ZM35.8679 27.1309C35.8746 27.3212 35.8776 27.5102 35.8746 27.6979C36.006 27.3093 36.1208 26.9089 36.1996 26.4841C36.1035 26.7066 35.9906 26.9215 35.8679 27.1309Z" fill="#D1E300"/>
</svg>
