<svg width="110" height="739" viewBox="0 0 110 739" fill="none" xmlns="http://www.w3.org/2000/svg">
<path opacity="0.1" d="M108 687.26C108 664.628 96.0615 650.272 77.5312 650.272C63.4688 650.272 52.8486 661.625 52.1895 675.907H51.6035C49.9922 664.188 40.5439 655.18 28.6787 655.18C12.3457 655.18 2.31152 667.777 2.31152 688.578V738.017H108V687.26ZM21.3545 711.137V695.683C21.3545 686.674 25.749 681.4 33.1465 681.4C40.7637 681.4 45.3779 687.187 45.3779 697.001V711.137H21.3545ZM88.957 711.137H61.7109V695.023C61.7109 683.891 66.5449 677.592 75.1875 677.592C84.123 677.592 88.957 683.817 88.957 694.877V711.137ZM2.31152 610.349V637.228H70.5C94.2305 637.228 109.831 619.211 109.831 591.672C109.831 564.206 94.2305 546.188 70.5 546.188H2.31152L2.31152 573.068H67.6436C79.9482 573.068 87.2725 579.733 87.2725 591.672C87.2725 603.684 79.9482 610.349 67.6436 610.349H2.31152ZM77.3848 531.753C97.8926 531.46 109.831 514.834 109.831 487.881C109.831 460.635 96.4277 443.276 75.4072 443.276C58.708 443.276 49.2598 452.651 45.2314 473.525L42.668 487.222C40.3975 498.281 37.248 502.969 31.5352 502.969C25.0898 502.969 20.8418 496.743 20.8418 487.368C20.8418 477.7 25.4561 470.596 33.1465 470.083V445.327C13.2979 445.62 0.480469 461.221 0.480469 487.661C0.480469 512.124 13.6641 529.702 34.1719 529.702C50.2119 529.702 60.7588 519.668 64.4941 500.185L67.2041 486.343C69.6943 474.331 72.5508 469.863 78.4102 469.863C84.7822 469.863 89.4697 476.675 89.4697 487.148C89.4697 497.109 84.6357 505.239 77.3848 506.191V531.753ZM108 402.034H2.31152V428.914H108V402.034ZM108 358.741H45.9639V358.155L108 313.111V291.871H2.31152V317.359H63.7617V317.945L2.31152 362.769V384.229H108V358.741ZM86.3203 201.63V247.186H64.7871V204.34H45.0117V247.186H23.9912L23.9912 201.63H2.31152L2.31152 274.066H108V201.63H86.3203ZM77.3848 188.073C97.8926 187.78 109.831 171.154 109.831 144.201C109.831 116.955 96.4277 99.5963 75.4072 99.5963C58.708 99.5963 49.2598 108.971 45.2314 129.845L42.668 143.542C40.3975 154.601 37.248 159.289 31.5352 159.289C25.0898 159.289 20.8418 153.063 20.8418 143.688C20.8418 134.02 25.4561 126.916 33.1465 126.403V101.647C13.2979 101.94 0.480469 117.541 0.480469 143.981C0.480469 168.444 13.6641 186.022 34.1719 186.022C50.2119 186.022 60.7588 175.988 64.4941 156.505L67.2041 142.663C69.6943 130.651 72.5508 126.183 78.4102 126.183C84.7822 126.183 89.4697 132.995 89.4697 143.468C89.4697 153.429 84.6357 161.559 77.3848 162.511L77.3848 188.073ZM77.3848 88.6031C97.8926 88.3101 109.831 71.6841 109.831 44.731C109.831 17.4849 96.4277 0.126526 75.4072 0.126526C58.708 0.126526 49.2598 9.50153 45.2314 30.3755L42.668 44.0718C40.3975 55.1314 37.248 59.8189 31.5352 59.8189C25.0898 59.8189 20.8418 53.5933 20.8418 44.2183C20.8418 34.5504 25.4561 27.4459 33.1465 26.9332V2.17731C13.2979 2.47028 0.480469 18.0709 0.480469 44.5113C0.480469 68.9742 13.6641 86.5523 34.1719 86.5523C50.2119 86.5523 60.7588 76.5181 64.4941 57.0357L67.2041 43.1929C69.6943 31.1812 72.5508 26.7134 78.4102 26.7134C84.7822 26.7134 89.4697 33.525 89.4697 43.9986C89.4697 53.9595 84.6357 62.0894 77.3848 63.0416V88.6031Z" fill="white"/>
</svg>
