<svg width="79" height="15" viewBox="0 0 79 15" fill="none" xmlns="http://www.w3.org/2000/svg">
<path d="M55.7414 0C55.4902 0 55.2388 0.188305 55.176 0.439487L52.5178 9.54483L50.7803 3.55841C50.6966 3.30723 50.4665 3.11892 50.2153 3.11892H47.7661C47.494 3.11892 47.2639 3.2863 47.2011 3.55841L45.9243 7.91239L47.578 13.6474L48.9803 8.83307L50.4664 13.8988C50.5501 14.15 50.7806 14.3383 51.0318 14.3383H54.0039C54.276 14.3383 54.5061 14.1709 54.5689 13.8988L58.6298 0H55.7414ZM59.216 3.11892C58.8811 3.11892 58.6089 3.39112 58.6089 3.72603V6.34251V11.1568V13.7733C58.6089 14.1082 58.8811 14.38 59.216 14.38H61.8325H67.8606V11.2615H61.8325V10.3196H63.9465L64.8468 7.20063H61.8325V6.23785H66.9608L67.8819 3.11892H61.8325H59.216ZM69.5143 3.11892C69.1794 3.11892 68.9072 3.39112 68.9072 3.72603V13.7312C68.9072 14.0661 69.1794 14.3383 69.5143 14.3383H75.1242C76.0661 14.3383 76.8616 14.0032 77.5314 13.3334C78.2012 12.6845 78.5568 11.7635 78.5359 10.8216C78.5149 10.0262 78.2431 9.33543 77.7198 8.72841C78.2641 8.10045 78.5359 7.36792 78.5359 6.50972C78.5359 5.48406 78.1592 4.6261 77.3638 3.93535C76.7358 3.41205 75.9406 3.11892 75.1242 3.11892H69.5143ZM72.0261 6.21659H74.5171C74.7264 6.21659 74.9356 6.30056 75.0821 6.46802C75.2286 6.63547 75.3127 6.84487 75.3127 7.07512C75.3127 7.3263 75.2496 7.51436 75.0821 7.68182C74.9146 7.84927 74.7264 7.93324 74.5171 7.93324H72.0261V6.23785V6.21659ZM72.047 9.54483H74.538C74.7473 9.54483 74.9568 9.64973 75.1034 9.79626C75.2499 9.94278 75.3335 10.1519 75.3335 10.3821C75.3335 10.6124 75.2708 10.8009 75.1034 10.9684C74.9359 11.1358 74.7473 11.2194 74.538 11.2194V11.2402H72.047V9.54483Z" fill="white"/>
<path d="M0.607105 3.11914C0.272195 3.11914 0 3.39134 0 3.72625V13.7523C0 14.0872 0.272195 14.3594 0.607105 14.3594H5.50523C7.03326 14.3594 8.51942 13.7945 9.58694 12.7269C10.6754 11.6385 11.2402 10.3198 11.2402 8.74988C11.2402 7.18 10.6754 5.86096 9.58694 4.75158C8.51942 3.68405 7.03326 3.11914 5.50523 3.11914H0.607105ZM14.9454 3.11914C14.6942 3.11914 14.4637 3.30745 14.38 3.55863L11.2194 14.3385H14.1081C14.3802 14.3385 14.6103 14.1711 14.694 13.899L16.9131 6.23806L17.855 9.5659H17.3317C17.0805 9.5659 16.85 9.75461 16.7663 10.0058L15.992 12.6848H18.7757L19.1318 13.899C19.1946 14.1711 19.4247 14.3385 19.6968 14.3385H22.5855L19.4249 3.55863C19.3621 3.28651 19.1316 3.11914 18.8595 3.11914H14.9454ZM24.0086 3.11914C23.6737 3.11914 23.4019 3.39134 23.4019 3.72625V14.3385H26.0184C26.3533 14.3385 26.6251 14.0663 26.6251 13.7314V7.61948L30.0372 14.0245C30.1418 14.2129 30.3302 14.3385 30.5605 14.3385H34.6422V3.72625C34.6422 3.39134 34.37 3.11914 34.0351 3.11914H32.0257C31.6908 3.11914 31.4186 3.39134 31.4186 3.72625V9.75437L28.0278 3.43312C27.9231 3.24473 27.7348 3.11914 27.5045 3.11914H24.0086ZM39.1842 3.11914C38.933 3.11914 38.7029 3.30745 38.6192 3.55863L35.4586 14.3385H38.3469C38.6191 14.3385 38.8495 14.1711 38.9332 13.899L41.1519 6.23806L42.0938 9.5659H41.5705C41.3193 9.5659 41.0893 9.75461 41.0055 10.0058L40.2308 12.6848H43.0149L43.3706 13.899C43.4334 14.1711 43.6639 14.3385 43.936 14.3385H46.8243L43.6637 3.55863C43.6009 3.28651 43.3708 3.11914 43.0987 3.11914H39.1842ZM3.22358 6.23806H5.63074C6.94945 6.23806 8.0379 7.34712 8.0379 8.72862C8.01697 10.1101 6.94945 11.2196 5.63074 11.2196H3.22358V6.23806Z" fill="white"/>
</svg>
