<svg width="14" height="11" viewBox="0 0 14 11" fill="none" xmlns="http://www.w3.org/2000/svg">
<path d="M1.34372 3.39077C1.52082 3.51575 2.05466 3.88693 2.94527 4.50412C3.8359 5.12131 4.51819 5.59653 4.99216 5.92981C5.04423 5.96634 5.15486 6.04575 5.32411 6.16816C5.49338 6.29064 5.63403 6.38962 5.74595 6.46512C5.85795 6.5406 5.99334 6.62526 6.15227 6.71899C6.31115 6.81263 6.46091 6.88307 6.60153 6.9297C6.74218 6.97671 6.87238 7 6.99215 7H7H7.00788C7.12765 7 7.2579 6.97669 7.39855 6.9297C7.53912 6.88307 7.68902 6.81255 7.84776 6.71899C8.00658 6.62515 8.14197 6.54057 8.25397 6.46512C8.36597 6.38962 8.50651 6.29064 8.67584 6.16816C8.84505 6.04564 8.95582 5.96634 9.0079 5.92981C9.48698 5.59653 10.7058 4.7501 12.6641 3.39061C13.0443 3.12509 13.3619 2.8047 13.6171 2.42966C13.8725 2.05478 14 1.66152 14 1.25009C14 0.906275 13.8762 0.611964 13.6288 0.367184C13.3814 0.122349 13.0884 0 12.75 0H1.24995C0.848933 0 0.540324 0.135402 0.324178 0.406206C0.108059 0.677065 0 1.01563 0 1.42186C0 1.74999 0.143277 2.10557 0.429693 2.48838C0.716082 2.87122 1.02086 3.17204 1.34372 3.39077Z" fill="#D1E300"/>
<path d="M13.2186 4.63834C11.5105 5.7242 10.2134 6.56809 9.32814 7.16983C9.03127 7.3752 8.79045 7.53552 8.6055 7.6504C8.42054 7.76535 8.17457 7.88275 7.86722 8.00254C7.55998 8.12251 7.27365 8.18231 7.00798 8.18231H7.00001H6.99216C6.72654 8.18231 6.44004 8.12251 6.1328 8.00254C5.82556 7.88275 5.57943 7.76535 5.39453 7.6504C5.20969 7.53552 4.96878 7.3752 4.67194 7.16983C3.96877 6.68559 2.67453 5.84165 0.789141 4.63834C0.492191 4.45258 0.229171 4.23965 0 4V9.82584C0 10.1489 0.122343 10.4251 0.367166 10.6551C0.611934 10.885 0.906258 11 1.25003 11H12.7501C13.0937 11 13.388 10.885 13.6328 10.6551C13.8777 10.4251 14 10.1489 14 9.82584V4C13.776 4.23469 13.5157 4.44762 13.2186 4.63834Z" fill="#D1E300"/>
</svg>
