<svg width="30" height="30" viewBox="0 0 30 30" fill="none" xmlns="http://www.w3.org/2000/svg">
<path opacity="0.2" fill-rule="evenodd" clip-rule="evenodd" d="M15 30C23.2843 30 30 23.2843 30 15C30 6.71573 23.2843 0 15 0C6.71573 0 0 6.71573 0 15C0 23.2843 6.71573 30 15 30Z" fill="white"/>
<path d="M11.2235 15.4564H12.7425V21.7742C12.7425 21.8989 12.8425 22 12.966 22H15.5415C15.665 22 15.765 21.8989 15.765 21.7742V15.4862H17.5112C17.6248 15.4862 17.7203 15.4001 17.7333 15.2861L17.9985 12.9602C18.0058 12.8963 17.9857 12.8322 17.9433 12.7842C17.9009 12.7361 17.8402 12.7086 17.7765 12.7086H15.7651V11.2506C15.7651 10.8111 15.9993 10.5882 16.4614 10.5882C16.5272 10.5882 17.7765 10.5882 17.7765 10.5882C17.9 10.5882 18 10.4871 18 10.3624V8.22748C18 8.10274 17.9 8.00167 17.7765 8.00167H15.9641C15.9513 8.00104 15.9229 8 15.8811 8C15.5666 8 14.4735 8.06237 13.6101 8.86488C12.6534 9.7542 12.7864 10.819 12.8181 11.0036V12.7086H11.2235C11.1 12.7086 11 12.8096 11 12.9344V15.2305C11 15.3553 11.1 15.4564 11.2235 15.4564Z" fill="white"/>
</svg>
