<svg width="30" height="30" viewBox="0 0 30 30" fill="none" xmlns="http://www.w3.org/2000/svg">
<path fill-rule="evenodd" clip-rule="evenodd" d="M15 30C23.2843 30 30 23.2843 30 15C30 6.71573 23.2843 0 15 0C6.71573 0 0 6.71573 0 15C0 23.2843 6.71573 30 15 30Z" fill="#D1E300"/>
<path d="M11.2235 16.4564H12.7425V22.7742C12.7425 22.8989 12.8425 23 12.966 23H15.5415C15.665 23 15.765 22.8989 15.765 22.7742V16.4862H17.5112C17.6248 16.4862 17.7203 16.4001 17.7333 16.2861L17.9985 13.9602C18.0058 13.8963 17.9857 13.8322 17.9433 13.7842C17.9009 13.7361 17.8402 13.7086 17.7765 13.7086H15.7651V12.2506C15.7651 11.8111 15.9993 11.5882 16.4614 11.5882C16.5272 11.5882 17.7765 11.5882 17.7765 11.5882C17.9 11.5882 18 11.4871 18 11.3624V9.22748C18 9.10274 17.9 9.00167 17.7765 9.00167H15.9641C15.9513 9.00104 15.9229 9 15.8811 9C15.5666 9 14.4735 9.06237 13.6101 9.86488C12.6534 10.7542 12.7864 11.819 12.8181 12.0036V13.7086H11.2235C11.1 13.7086 11 13.8096 11 13.9344V16.2305C11 16.3553 11.1 16.4564 11.2235 16.4564Z" fill="white"/>
</svg>
