<svg width="30" height="30" viewBox="0 0 30 30" fill="none" xmlns="http://www.w3.org/2000/svg">
<path fill-rule="evenodd" clip-rule="evenodd" d="M15 30C23.2843 30 30 23.2843 30 15C30 6.71573 23.2843 0 15 0C6.71573 0 0 6.71573 0 15C0 23.2843 6.71573 30 15 30Z" fill="white" fill-opacity="0.17"/>
<path d="M11.7923 12H9.20766C9.09295 12 9 12.096 9 12.2144V20.7856C9 20.9041 9.09295 21 9.20766 21H11.7923C11.9071 21 12 20.9041 12 20.7856V12.2144C12 12.096 11.9071 12 11.7923 12Z" fill="white"/>
<path d="M10.5251 7C9.42184 7 8.52429 7.89701 8.52429 8.99959C8.52429 10.1026 9.42184 11 10.5251 11C11.6275 11 12.5243 10.1026 12.5243 8.99959C12.5243 7.89701 11.6275 7 10.5251 7Z" fill="white"/>
<path d="M19.4876 11C18.3839 11 17.568 11.5 17.0732 12.0681V11.4639C17.0732 11.3354 16.9744 11.2312 16.8524 11.2312H14.2208C14.0988 11.2312 14 11.3354 14 11.4639V20.7673C14 20.8958 14.0988 21 14.2208 21H16.9627C17.0847 21 17.1835 20.8958 17.1835 20.7673V16.1643C17.1835 14.6132 17.5833 14.0089 18.6093 14.0089C19.7267 14.0089 19.8155 14.9776 19.8155 16.2441V20.7673C19.8155 20.8959 19.9143 21 20.0363 21H22.7792C22.9012 21 23 20.8959 23 20.7673V15.6643C23 13.3578 22.5827 11 19.4876 11Z" fill="white"/>
</svg>
