<svg width="13" height="17" viewBox="0 0 13 17" fill="none" xmlns="http://www.w3.org/2000/svg">
<path fill-rule="evenodd" clip-rule="evenodd" d="M0 5.98266C0 2.68383 2.91595 0 6.49973 0C10.0837 0 12.9996 2.68383 13 5.98266C13 6.84312 12.8088 7.66467 12.4316 8.42468C10.8059 11.6981 7.6901 15.1536 6.77401 16.1344C6.70535 16.2078 6.60525 16.25 6.49991 16.25C6.39457 16.25 6.29447 16.2078 6.22581 16.1344C5.30935 15.1534 2.19356 11.6977 0.568446 8.42468C0.191349 7.66467 0 6.84312 0 5.98266ZM3 6.21333C3 8.05795 4.57019 9.55882 6.5 9.55882C8.43 9.55882 10.0002 8.05795 10 6.21333C10 4.36852 8.42981 2.86765 6.5 2.86765C4.57019 2.86765 3 4.36852 3 6.21333Z" fill="#D1E300"/>
</svg>
