<svg width="14" height="14" viewBox="0 0 14 14" fill="none" xmlns="http://www.w3.org/2000/svg">
<path d="M13.9702 10.8474C13.9306 10.7281 13.6787 10.5523 13.2146 10.3205C13.0888 10.2475 12.9097 10.1482 12.6779 10.0222C12.4458 9.89625 12.2352 9.78017 12.0464 9.67409C11.8572 9.56805 11.68 9.46531 11.5144 9.36602C11.4879 9.34614 11.4051 9.28822 11.2659 9.19189C11.1265 9.09584 11.009 9.02455 10.9127 8.97806C10.8166 8.93185 10.7221 8.90858 10.6293 8.90858C10.4967 8.90858 10.3311 9.0031 10.1323 9.19189C9.93354 9.38093 9.75118 9.58626 9.58553 9.80852C9.41986 10.0307 9.24415 10.236 9.05872 10.4249C8.87302 10.6139 8.72044 10.7084 8.60126 10.7084C8.54142 10.7084 8.46682 10.6917 8.37742 10.6588C8.28805 10.6256 8.22006 10.5973 8.17339 10.5744C8.12714 10.551 8.04777 10.5048 7.93499 10.4349C7.82201 10.3653 7.75918 10.3272 7.74595 10.3205C6.8378 9.81664 6.05894 9.23992 5.40922 8.59052C4.75971 7.94074 4.18289 7.16199 3.6791 6.2538C3.67249 6.24053 3.63428 6.17753 3.56473 6.06491C3.49507 5.95217 3.44865 5.87274 3.42545 5.82621C3.40225 5.77986 3.37408 5.71187 3.34099 5.62241C3.3079 5.53294 3.29129 5.45841 3.29129 5.39868C3.29129 5.27944 3.38578 5.1269 3.57472 4.94128C3.76363 4.75576 3.96919 4.58003 4.19118 4.41443C4.41335 4.24884 4.6187 4.06649 4.80767 3.8677C4.99658 3.66881 5.09103 3.50318 5.09103 3.37063C5.09103 3.27789 5.06784 3.18334 5.02148 3.08725C4.97509 2.99096 4.90383 2.87345 4.80767 2.73419C4.71148 2.59499 4.65349 2.51221 4.63357 2.48556C4.53424 2.31997 4.4316 2.14267 4.32541 1.95374C4.21922 1.76484 4.10331 1.55428 3.9773 1.32231C3.8514 1.09044 3.75203 0.911395 3.67903 0.785465C3.44715 0.321548 3.27151 0.0695474 3.15215 0.0299155C3.10573 0.0100299 3.03607 0 2.94336 0C2.76427 0 2.53065 0.0330847 2.2423 0.0994629C1.95386 0.165737 1.72688 0.235249 1.56114 0.308279C1.22968 0.447409 0.878365 0.851738 0.507097 1.52113C0.169021 2.14409 0 2.76069 0 3.37046C0 3.54929 0.0115978 3.72328 0.0347933 3.89246C0.0579888 4.06147 0.0994343 4.25208 0.159164 4.46423C0.21879 4.67632 0.266888 4.83388 0.303248 4.93647C0.339644 5.03914 0.407593 5.22306 0.507063 5.48829C0.606392 5.75346 0.666123 5.91578 0.686009 5.97544C0.917999 6.62508 1.19311 7.20504 1.51126 7.71548C2.03473 8.56391 2.74909 9.44073 3.65392 10.3456C4.55879 11.2504 5.43548 11.9646 6.28404 12.4883C6.79444 12.8064 7.37464 13.0814 8.02422 13.3136C8.08392 13.3334 8.24625 13.3929 8.51133 13.4926C8.77651 13.592 8.96051 13.66 9.06318 13.6964C9.16589 13.7329 9.32349 13.781 9.53542 13.8408C9.7478 13.9005 9.93824 13.9419 10.1073 13.9653C10.2764 13.9882 10.4504 14 10.6293 14C11.2391 14 11.8557 13.8309 12.4788 13.4929C13.1482 13.1218 13.5525 12.7704 13.6917 12.4387C13.7649 12.2732 13.8342 12.0461 13.9005 11.7577C13.967 11.4694 14 11.2358 14 11.0568C14.0002 10.9637 13.9902 10.8942 13.9702 10.8474Z" fill="#D1E300"/>
</svg>
