<svg width="30" height="30" viewBox="0 0 30 30" fill="none" xmlns="http://www.w3.org/2000/svg">
<path opacity="0.2" fill-rule="evenodd" clip-rule="evenodd" d="M15 30C23.2843 30 30 23.2843 30 15C30 6.71573 23.2843 0 15 0C6.71573 0 0 6.71573 0 15C0 23.2843 6.71573 30 15 30Z" fill="white"/>
<path fill-rule="evenodd" clip-rule="evenodd" d="M21.8312 15.8989C21.7184 15.5403 21.5571 15.2131 21.3453 14.9115C21.407 14.5573 21.4369 14.2169 21.4363 13.8915C21.4363 13.0089 21.2562 12.1801 20.8962 11.4078C20.5349 10.6367 20.0372 9.95898 19.4055 9.37346C18.7739 8.79044 18.0388 8.33092 17.1991 7.99928C16.3576 7.66514 15.4574 7.49713 14.4988 7.49713C14.3187 7.49713 14.1343 7.50403 13.95 7.51531C13.7681 7.52973 13.5837 7.54791 13.4037 7.57362C13.0853 7.38993 12.7402 7.24951 12.3715 7.14858C12.0027 7.0489 11.6146 7 11.201 7C10.6267 7 10.0841 7.09905 9.57267 7.30217C9.0625 7.50528 8.61337 7.78238 8.22965 8.13469C7.84593 8.48639 7.54693 8.90077 7.3289 9.37722C7.11026 9.85429 7 10.3615 7 10.8981C7 11.6196 7.22301 12.2923 7.67151 12.9186C7.64784 13.0772 7.62479 13.2358 7.60797 13.3913C7.58929 13.5467 7.58056 13.7148 7.58056 13.8915C7.58056 14.8037 7.76059 15.6619 8.12126 16.465C8.47882 17.268 8.97529 17.9696 9.60507 18.5645C10.2367 19.1619 10.9699 19.6308 11.8071 19.9763C12.6462 20.3198 13.5432 20.4922 14.4988 20.4922C14.6813 20.4922 14.8638 20.4872 15.0482 20.4747C15.2319 20.4609 15.4138 20.4427 15.5945 20.4176C16.2454 20.8057 16.9792 21 17.7971 21C18.3715 21 18.9115 20.8978 19.4248 20.6897C19.9381 20.4816 20.3848 20.1951 20.7685 19.8302C21.1522 19.4616 21.4531 19.0372 21.6717 18.5557C21.8897 18.073 22 17.5577 22 17.0091C22 16.6261 21.9433 16.2562 21.8312 15.8989ZM18.2382 15.5403C18.2382 16.0682 18.0924 16.5277 17.7971 16.9189C17.5174 17.3006 17.0889 17.6185 16.5145 17.8749C15.9296 18.0999 15.2575 18.2128 14.5031 18.2128C13.5787 18.2065 12.8094 18.0454 12.1971 17.7269C11.7791 17.5132 11.4358 17.216 11.1686 16.8355C10.8995 16.4656 10.7637 16.0964 10.7637 15.7271C10.76 15.5152 10.8403 15.3265 11.0079 15.1654C11.1755 15.0237 11.3873 14.9516 11.6439 14.9516C11.8451 14.9516 12.0164 15.0112 12.1628 15.1309C12.3198 15.2494 12.44 15.425 12.5291 15.6575C12.6312 15.9027 12.7583 16.1296 12.9172 16.334C13.0424 16.5133 13.233 16.6637 13.4915 16.7822C13.6995 16.8888 14.0278 16.9414 14.4813 16.9414C15.0476 16.9496 15.4973 16.8355 15.8299 16.6042C16.1819 16.3785 16.3601 16.0826 16.3601 15.7171C16.3601 15.4525 16.2623 15.2381 16.0673 15.0714C15.8848 14.8789 15.6456 14.7435 15.3509 14.6626C15.1946 14.6144 15.0158 14.5699 14.8189 14.531C14.619 14.4915 14.3929 14.4395 14.1343 14.378C13.4429 14.2439 12.8792 14.0884 12.4381 13.911C11.974 13.7449 11.6071 13.4997 11.3362 13.1756C11.0671 12.876 10.9306 12.4873 10.9306 12.0096C10.9306 11.5557 11.0714 11.167 11.353 10.8435C11.6346 10.5038 12.05 10.2417 12.5988 10.0511C13.1096 9.86808 13.7369 9.77655 14.4807 9.77655C14.776 9.77655 15.0426 9.79097 15.2868 9.82169C15.5303 9.85304 15.7614 9.89943 15.9813 9.95961C16.1912 10.021 16.3843 10.0938 16.5563 10.1765C16.7276 10.2586 16.8864 10.3483 17.0309 10.4461C17.3169 10.6737 17.5243 10.8881 17.6476 11.0893C17.7722 11.3037 17.8358 11.5262 17.8358 11.7526C17.8401 11.9481 17.7598 12.1218 17.5922 12.276C17.4209 12.4415 17.2172 12.5236 16.9711 12.5236C16.7525 12.5167 16.5787 12.4647 16.4535 12.3682C16.3221 12.2691 16.195 12.1187 16.0698 11.9168C15.9259 11.6416 15.7247 11.4084 15.468 11.2191C15.2556 11.0592 14.8787 10.9796 14.3424 10.9796C13.8783 10.9739 13.4877 11.0592 13.1682 11.2366C12.886 11.4266 12.744 11.641 12.744 11.8811C12.744 12.0453 12.7876 12.1776 12.8748 12.276C12.9875 12.3901 13.1296 12.4873 13.299 12.5588C13.3862 12.5964 13.4734 12.6308 13.5556 12.6603C13.6429 12.6923 13.7344 12.7192 13.8335 12.7437C13.9225 12.7681 14.0409 12.7951 14.1898 12.8271L14.7448 12.9543C15.2512 13.0684 15.7303 13.18 16.1819 13.2941C16.631 13.4395 16.9979 13.6019 17.2801 13.785C17.5872 13.9737 17.8252 14.21 17.994 14.4921C18.1559 14.7755 18.2382 15.1247 18.2382 15.5403Z" fill="white"/>
</svg>
