<svg width="30" height="30" viewBox="0 0 30 30" fill="none" xmlns="http://www.w3.org/2000/svg">
<path fill-rule="evenodd" clip-rule="evenodd" d="M15 30C23.2843 30 30 23.2843 30 15C30 6.71573 23.2843 0 15 0C6.71573 0 0 6.71573 0 15C0 23.2843 6.71573 30 15 30Z" fill="#D1E300"/>
<path fill-rule="evenodd" clip-rule="evenodd" d="M22.8312 16.8989C22.7184 16.5403 22.5571 16.2131 22.3453 15.9115C22.407 15.5573 22.4369 15.2169 22.4363 14.8915C22.4363 14.0089 22.2562 13.1801 21.8962 12.4078C21.5349 11.6367 21.0372 10.959 20.4055 10.3735C19.7739 9.79044 19.0388 9.33092 18.1991 8.99928C17.3576 8.66514 16.4574 8.49713 15.4988 8.49713C15.3187 8.49713 15.1343 8.50403 14.95 8.51531C14.7681 8.52973 14.5837 8.54791 14.4037 8.57362C14.0853 8.38993 13.7402 8.24951 13.3715 8.14858C13.0027 8.0489 12.6146 8 12.201 8C11.6267 8 11.0841 8.09905 10.5727 8.30217C10.0625 8.50528 9.61337 8.78238 9.22965 9.13469C8.84593 9.48639 8.54693 9.90077 8.3289 10.3772C8.11026 10.8543 8 11.3615 8 11.8981C8 12.6196 8.22301 13.2923 8.67151 13.9186C8.64784 14.0772 8.62479 14.2358 8.60797 14.3913C8.58929 14.5467 8.58056 14.7148 8.58056 14.8915C8.58056 15.8037 8.76059 16.6619 9.12126 17.465C9.47882 18.268 9.97529 18.9696 10.6051 19.5645C11.2367 20.1619 11.9699 20.6308 12.8071 20.9763C13.6462 21.3198 14.5432 21.4922 15.4988 21.4922C15.6813 21.4922 15.8638 21.4872 16.0482 21.4747C16.2319 21.4609 16.4138 21.4427 16.5945 21.4176C17.2454 21.8057 17.9792 22 18.7971 22C19.3715 22 19.9115 21.8978 20.4248 21.6897C20.9381 21.4816 21.3848 21.1951 21.7685 20.8302C22.1522 20.4616 22.4531 20.0372 22.6717 19.5557C22.8897 19.073 23 18.5577 23 18.0091C23 17.6261 22.9433 17.2562 22.8312 16.8989ZM19.2382 16.5403C19.2382 17.0682 19.0924 17.5277 18.7971 17.9189C18.5174 18.3006 18.0889 18.6185 17.5145 18.8749C16.9296 19.0999 16.2575 19.2128 15.5031 19.2128C14.5787 19.2065 13.8094 19.0454 13.1971 18.7269C12.7791 18.5132 12.4358 18.216 12.1686 17.8355C11.8995 17.4656 11.7637 17.0964 11.7637 16.7271C11.76 16.5152 11.8403 16.3265 12.0079 16.1654C12.1755 16.0237 12.3873 15.9516 12.6439 15.9516C12.8451 15.9516 13.0164 16.0112 13.1628 16.1309C13.3198 16.2494 13.44 16.425 13.5291 16.6575C13.6312 16.9027 13.7583 17.1296 13.9172 17.334C14.0424 17.5133 14.233 17.6637 14.4915 17.7822C14.6995 17.8888 15.0278 17.9414 15.4813 17.9414C16.0476 17.9496 16.4973 17.8355 16.8299 17.6042C17.1819 17.3785 17.3601 17.0826 17.3601 16.7171C17.3601 16.4525 17.2623 16.2381 17.0673 16.0714C16.8848 15.8789 16.6456 15.7435 16.3509 15.6626C16.1946 15.6144 16.0158 15.5699 15.8189 15.531C15.619 15.4915 15.3929 15.4395 15.1343 15.378C14.4429 15.2439 13.8792 15.0884 13.4381 14.911C12.974 14.7449 12.6071 14.4997 12.3362 14.1756C12.0671 13.876 11.9306 13.4873 11.9306 13.0096C11.9306 12.5557 12.0714 12.167 12.353 11.8435C12.6346 11.5038 13.05 11.2417 13.5988 11.0511C14.1096 10.8681 14.7369 10.7766 15.4807 10.7766C15.776 10.7766 16.0426 10.791 16.2868 10.8217C16.5303 10.853 16.7614 10.8994 16.9813 10.9596C17.1912 11.021 17.3843 11.0938 17.5563 11.1765C17.7276 11.2586 17.8864 11.3483 18.0309 11.4461C18.3169 11.6737 18.5243 11.8881 18.6476 12.0893C18.7722 12.3037 18.8358 12.5262 18.8358 12.7526C18.8401 12.9481 18.7598 13.1218 18.5922 13.276C18.4209 13.4415 18.2172 13.5236 17.9711 13.5236C17.7525 13.5167 17.5787 13.4647 17.4535 13.3682C17.3221 13.2691 17.195 13.1187 17.0698 12.9168C16.9259 12.6416 16.7247 12.4084 16.468 12.2191C16.2556 12.0592 15.8787 11.9796 15.3424 11.9796C14.8783 11.9739 14.4877 12.0592 14.1682 12.2366C13.886 12.4266 13.744 12.641 13.744 12.8811C13.744 13.0453 13.7876 13.1776 13.8748 13.276C13.9875 13.3901 14.1296 13.4873 14.299 13.5588C14.3862 13.5964 14.4734 13.6308 14.5556 13.6603C14.6429 13.6923 14.7344 13.7192 14.8335 13.7437C14.9225 13.7681 15.0409 13.7951 15.1898 13.8271L15.7448 13.9543C16.2512 14.0684 16.7303 14.18 17.1819 14.2941C17.631 14.4395 17.9979 14.6019 18.2801 14.785C18.5872 14.9737 18.8252 15.21 18.994 15.4921C19.1559 15.7755 19.2382 16.1247 19.2382 16.5403Z" fill="white"/>
</svg>
