<svg width="30" height="30" viewBox="0 0 30 30" fill="none" xmlns="http://www.w3.org/2000/svg">
<path fill-rule="evenodd" clip-rule="evenodd" d="M15 30C23.2843 30 30 23.2843 30 15C30 6.71573 23.2843 0 15 0C6.71573 0 0 6.71573 0 15C0 23.2843 6.71573 30 15 30Z" fill="#D1E300"/>
<path d="M22.66 10.3849C22.4244 10.487 22.1821 10.5732 21.9346 10.6432C22.2277 10.3193 22.4511 9.93823 22.5875 9.52122C22.6181 9.42774 22.5864 9.32543 22.5078 9.2643C22.4292 9.20312 22.3201 9.19579 22.2337 9.24586C21.7079 9.55053 21.1407 9.76949 20.546 9.89752C19.9469 9.32552 19.1333 9 18.2921 9C16.5165 9 15.072 10.4115 15.072 12.1464C15.072 12.283 15.0809 12.4189 15.0984 12.5529C12.8951 12.3638 10.8467 11.3057 9.4401 9.6197C9.38997 9.55961 9.31275 9.52722 9.23368 9.53342C9.15457 9.53947 9.08349 9.58306 9.04352 9.65006C8.75823 10.1284 8.60741 10.6755 8.60741 11.2321C8.60741 11.9902 8.88443 12.7096 9.37376 13.2716C9.22497 13.2213 9.08059 13.1583 8.94278 13.0836C8.8688 13.0434 8.77851 13.044 8.70501 13.0852C8.63146 13.1263 8.58535 13.2021 8.58341 13.2849C8.58307 13.2988 8.58307 13.3128 8.58307 13.3269C8.58307 14.4585 9.20639 15.4774 10.1594 16.0327C10.0775 16.0247 9.99568 16.0131 9.91439 15.9979C9.83058 15.9823 9.74441 16.011 9.68789 16.0734C9.63128 16.1359 9.61255 16.2229 9.63863 16.3023C9.99137 17.3784 10.8995 18.1699 11.9974 18.4112C11.0869 18.9685 10.0455 19.2604 8.95236 19.2604C8.72427 19.2604 8.49486 19.2473 8.27035 19.2214C8.15882 19.2084 8.05217 19.2728 8.01419 19.3764C7.9762 19.4801 8.01646 19.5957 8.11135 19.6551C9.51568 20.535 11.1395 21 12.8072 21C16.0856 21 18.1364 19.4894 19.2796 18.2221C20.7051 16.642 21.5226 14.5505 21.5226 12.4839C21.5226 12.3976 21.5213 12.3104 21.5185 12.2235C22.0809 11.8094 22.5652 11.3084 22.9592 10.7324C23.019 10.645 23.0125 10.5294 22.9432 10.4489C22.874 10.3683 22.7586 10.3422 22.66 10.3849Z" fill="white"/>
</svg>
