<?xml version="1.0" encoding="UTF-8"?>
<svg width="30px" height="30px" viewBox="0 0 30 30" version="1.1" xmlns="http://www.w3.org/2000/svg" xmlns:xlink="http://www.w3.org/1999/xlink">
    <!-- Generator: Sketch 54.1 (76490) - https://sketchapp.com -->
    <title>Group 9</title>
    <desc>Created with Sketch.</desc>
    <g id="Page-1" stroke="none" stroke-width="1" fill="none" fill-rule="evenodd">
        <g id="Group-9" fill="#FFFFFF">
            <circle id="Oval-Copy-7" opacity="0.200000003" cx="15" cy="15" r="15"></circle>
            <path d="M20.390566,9.77655382 C19.0334176,8.41937609 17.2289937,7.67198351 15.3096969,7.67198351 C13.3904,7.67198351 11.5859469,8.41937609 10.2287691,9.77655382 C8.87159139,11.1337316 8.12422811,12.9381261 8.12422811,14.857423 C8.12422811,16.073214 8.43199178,17.2679405 9.01617147,18.3262316 L7.49513631,22.6719835 L11.8408297,21.1509777 C12.89915,21.7350987 14.0938765,22.0428917 15.3096676,22.0428917 C17.2289644,22.0428917 19.0334176,21.2954698 20.3905367,19.9383214 C21.7477144,18.581173 22.4951363,16.7767491 22.4951363,14.857423 C22.4951363,12.9380968 21.7477144,11.1337023 20.390566,9.77655382 Z M18.8618844,17.5267198 L18.0323433,18.3562609 C17.3451558,19.0434484 15.3953023,18.2078429 13.6773043,16.4898155 C11.9592769,14.7717882 11.1236422,12.8219933 11.810859,12.1347765 L12.6403707,11.3052648 C12.8121676,11.1334679 13.0907223,11.1334679 13.2625191,11.3052648 L14.2994234,12.3421691 C14.4712203,12.5139659 14.4712203,12.7925206 14.2994234,12.9643175 L13.677275,13.5864659 C14.2807613,14.8604991 15.3066207,15.8863292 16.5806539,16.4898155 L17.2028023,15.8676671 C17.3745992,15.6958702 17.6531539,15.6958702 17.8249508,15.8676671 L18.8618551,16.9045714 C19.0336812,17.0763976 19.0336812,17.354923 18.8618844,17.5267198 Z" id="Shape" fill-rule="nonzero"></path>
        </g>
    </g>
</svg>