<svg width="50" height="50" viewBox="0 0 50 50" fill="none" xmlns="http://www.w3.org/2000/svg">
<g opacity="0.5">
<path fill-rule="evenodd" clip-rule="evenodd" d="M48.6306 16.1519L33.8109 1.33225C32.0346 -0.444084 29.145 -0.444084 27.3689 1.33225L1.3321 27.3688C-0.444033 29.1451 -0.444033 32.0347 1.3321 33.8109L16.1517 48.6307C17.9281 50.4068 20.8178 50.4069 22.5938 48.6307L48.6305 22.5941C50.4068 20.8177 50.4066 17.928 48.6306 16.1519ZM18.8832 31.6499V46.8324C18.6709 46.7596 18.4686 46.6528 18.299 46.4833L3.47932 31.6637C3.47828 31.6626 3.47744 31.6615 3.4767 31.6603L3.47496 31.6572C3.47364 31.6547 3.47231 31.6522 3.47006 31.6501L18.8832 31.6499ZM28.6134 4.38236L4.38282 28.613L27.9507 28.6135C28.3051 28.6135 28.6134 28.3051 28.6136 27.9508L28.6134 4.38236ZM21.9198 45.0101V31.6501H27.9509C28.9395 31.6501 29.8686 31.2652 30.5669 30.5669C31.2652 29.8686 31.6499 28.9397 31.65 27.9509V21.9198L45.0095 21.9203L21.9198 45.0101ZM31.6499 3.47011V18.8833L46.8319 18.8838C46.7596 18.6708 46.6527 18.4686 46.4833 18.2991L31.6637 3.47948C31.6616 3.47738 31.6592 3.4761 31.6568 3.47482C31.6544 3.47353 31.652 3.47224 31.6499 3.47011Z" fill="white"/>
<path d="M1.47953 6.43722H17.0303C17.8473 6.43722 18.5099 5.77488 18.5099 4.9578C18.5099 4.14072 17.8474 3.47827 17.0303 3.47827H1.47953C0.662346 3.47827 0 4.14062 0 4.9578C0 5.77488 0.662346 6.43722 1.47953 6.43722Z" fill="white"/>
<path d="M1.47953 12.2495H11.231C12.048 12.2495 12.7104 11.5871 12.7104 10.77C12.7104 9.95298 12.048 9.29053 11.231 9.29053H1.47953C0.662346 9.29053 0 9.95287 0 10.77C0 11.5871 0.662346 12.2495 1.47953 12.2495Z" fill="white"/>
<path d="M1.47953 17.8858H7.77551C8.59249 17.8858 9.25504 17.2235 9.25504 16.4063C9.25504 15.5891 8.59259 14.9268 7.77551 14.9268H1.47953C0.662346 14.9268 0 15.5892 0 16.4063C0 17.2234 0.662346 17.8858 1.47953 17.8858Z" fill="white"/>
<path d="M7.77551 45.0903H1.47953C0.662346 45.0903 0 45.7528 0 46.5699C0 47.3869 0.662346 48.0494 1.47953 48.0494H7.77551C8.59249 48.0494 9.25504 47.387 9.25504 46.5699C9.25504 45.7528 8.59259 45.0903 7.77551 45.0903Z" fill="white"/>
</g>
</svg>
