<svg width="6" height="10" viewBox="0 0 6 10" fill="none" xmlns="http://www.w3.org/2000/svg">
<path fill-rule="evenodd" clip-rule="evenodd" d="M0.78125 9.24583C0.71875 9.30417 0.625001 9.33333 0.5 9.33333C0.354166 9.33333 0.234375 9.28472 0.140625 9.1875C0.0468745 9.09028 0 8.97361 0 8.8375V0.495833C0 0.359722 0.0468745 0.243057 0.140625 0.145833C0.234375 0.0486099 0.354166 0 0.5 0C0.604167 0 0.6875 0.0291667 0.75 0.0875L0.84375 0.145833L5.71875 4.1125C5.90625 4.2875 6 4.47222 6 4.66667C6 4.86111 5.90625 5.04583 5.71875 5.22083L0.84375 9.1875L0.78125 9.24583Z" fill="#FFCD29"/>
</svg>
