<svg width="26" height="26" viewBox="0 0 26 26" fill="none" xmlns="http://www.w3.org/2000/svg">
<path fill-rule="evenodd" clip-rule="evenodd" d="M12.9967 0H13.0033C20.1711 0 26 5.83213 26 13C26 20.1679 20.1711 26 13.0033 26C10.3594 26 7.90725 25.2135 5.85162 23.8517L0.85475 25.4491L2.47487 20.6196C0.9165 18.4795 0 15.8438 0 13C0 5.8305 5.82888 0 12.9967 0ZM18.0164 20.1922C19.0093 19.9778 20.254 19.2432 20.5676 18.3576C20.8813 17.4704 20.8813 16.7148 20.7903 16.5539C20.7168 16.4262 20.543 16.3426 20.2836 16.2177C20.2161 16.1852 20.1428 16.1499 20.0639 16.1103C19.682 15.9201 17.8246 15.002 17.4736 14.8801C17.1291 14.7501 16.8009 14.7956 16.5409 15.1629C16.4914 15.2321 16.4421 15.3015 16.393 15.3705C16.0793 15.8116 15.7768 16.2372 15.5252 16.5084C15.2961 16.7521 14.9224 16.783 14.6087 16.653C14.5746 16.6387 14.5354 16.6229 14.4915 16.6052C13.9949 16.4046 12.8935 15.9598 11.5602 14.7729C10.4358 13.7719 9.672 12.5255 9.451 12.1518C9.23402 11.7768 9.42118 11.557 9.59416 11.3538C9.59736 11.35 9.60056 11.3463 9.60375 11.3425C9.71528 11.2045 9.82351 11.0896 9.93227 10.9741C10.0105 10.8911 10.089 10.8077 10.1693 10.7153C10.1812 10.7015 10.1928 10.6882 10.204 10.6752C10.3744 10.4794 10.4758 10.3627 10.5901 10.1189C10.7201 9.867 10.6275 9.607 10.5349 9.41525C10.4711 9.28096 10.0775 8.3258 9.73952 7.50584C9.5949 7.15495 9.46049 6.82882 9.3665 6.60238C9.11462 5.9995 8.92288 5.97675 8.541 5.9605C8.52931 5.95992 8.5175 5.95932 8.50556 5.95871C8.38485 5.9526 8.2519 5.94588 8.1055 5.94588C7.60825 5.94588 7.08988 6.09212 6.77625 6.41225C6.76529 6.42344 6.75387 6.43506 6.74201 6.44712C6.34078 6.85517 5.447 7.76416 5.447 9.57613C5.447 11.3916 6.73515 13.1486 6.97349 13.4737C6.98005 13.4826 6.98583 13.4905 6.99075 13.4972C7.00509 13.5161 7.03212 13.5552 7.07146 13.6122C7.55811 14.3169 9.92847 17.7496 13.4631 19.214C16.4499 20.4522 17.3371 20.3369 18.0164 20.1922Z" fill="white"/>
</svg>
