<svg width="24" height="24" viewBox="0 0 24 24" fill="none" xmlns="http://www.w3.org/2000/svg">
<path fill-rule="evenodd" clip-rule="evenodd" d="M23.625 0.160928C23.9197 0.375093 24.0402 0.66064 23.9866 1.01758L20.5585 21.5773C20.5139 21.8361 20.371 22.0368 20.13 22.1796C20.005 22.251 19.8666 22.2867 19.7149 22.2867C19.6166 22.2867 19.5095 22.2644 19.3935 22.2198L12.3364 19.3419L8.34582 23.7189C8.18512 23.9063 7.97533 24 7.71644 24C7.59145 24 7.48879 23.9822 7.40844 23.9465C7.23882 23.884 7.10491 23.7791 7.00671 23.6319C6.90851 23.4847 6.85941 23.3218 6.85941 23.1433V17.0932L0.538815 14.5099C0.2085 14.385 0.0299539 14.1396 0.00317163 13.7737C-0.0236107 13.4257 0.119226 13.1624 0.431686 12.984L22.7145 0.134159C23.0269 -0.053237 23.3304 -0.0443141 23.625 0.160928ZM19.0453 20.2254L22.0047 2.51673L2.80191 13.5863L7.30132 15.4201L18.8578 6.86692L12.4569 17.5349L19.0453 20.2254Z" fill="url(#paint0_linear)"/>
<defs>
<linearGradient id="paint0_linear" x1="-3.06501" y1="-3.1095" x2="-3.06501" y2="27.0208" gradientUnits="userSpaceOnUse">
<stop stop-color="#EDB73D"/>
<stop offset="0.5" stop-color="#FFD300"/>
<stop offset="1" stop-color="#EAAB42"/>
</linearGradient>
</defs>
</svg>
