<svg width="25" height="25" viewBox="0 0 25 25" fill="none" xmlns="http://www.w3.org/2000/svg">
<path fill-rule="evenodd" clip-rule="evenodd" d="M10.5768 1.07414C18.9332 -0.335529 26.0489 7.0078 24.2414 15.0911C27.2158 20.9824 20.6939 27.1768 14.7919 24.0708C6.4428 25.5767 -0.73112 18.339 0.94848 10.237C0.34632 9.22891 0 8.05936 0 6.81011C0 1.43846 6.04032 -1.7276 10.5768 1.07414ZM8.3148 19.7311C10.4978 20.8685 14.1055 20.8633 16.2978 19.966C18.2759 19.1628 19.5458 17.6259 19.551 15.5641C19.551 11.9646 16.1015 11.2036 13.2312 10.5704C12.1507 10.332 11.1524 10.1118 10.451 9.76504C8.5592 8.83975 9.61584 6.93845 12.3022 6.93845C14.3757 6.93845 14.9112 7.87444 15.3828 8.69889C15.754 9.34776 16.0857 9.92753 17.0966 9.92753C19.005 9.92753 19.6435 7.50977 17.2786 5.68817C14.717 3.72478 8.75992 3.88313 6.72984 6.48305C5.56504 7.97138 5.74392 10.0238 6.69136 11.1871C7.95291 12.7384 10.081 13.1886 11.9736 13.5891C13.3529 13.8809 14.6071 14.1463 15.3098 14.792C15.939 15.3716 16.0451 16.5847 14.8876 17.3557C13.7155 18.1423 11.699 18.0978 10.7609 17.6662C9.80279 17.2174 9.43469 16.4628 9.10541 15.7878C8.73234 15.023 8.4091 14.3604 7.33408 14.3604C4.6488 14.3604 5.20208 18.0792 8.3148 19.7311Z" fill="white"/>
</svg>
