<svg width="25" height="25" viewBox="0 0 25 25" fill="none" xmlns="http://www.w3.org/2000/svg">
<g opacity="0.7">
<path d="M1.50246 14.3749C1.66939 14.5417 1.86149 14.6252 2.07851 14.6252C2.29553 14.6252 2.48763 14.5417 2.65456 14.3749L12.497 4.53226L22.3398 14.3749C22.5067 14.5417 22.6989 14.6252 22.9155 14.6252C23.1329 14.6252 23.325 14.5417 23.4918 14.3749L24.7439 13.1225C24.9108 12.9557 24.9937 12.7635 24.9937 12.5468C24.9937 12.3297 24.9103 12.1376 24.7439 11.9708L13.0726 0.300068C12.9059 0.132875 12.714 0.0498047 12.497 0.0498047C12.28 0.0498047 12.0878 0.133138 11.921 0.300068L0.250526 11.9707C0.0833333 12.1376 0 12.3295 0 12.547C0 12.7635 0.0835965 12.9556 0.250526 13.1225L1.50246 14.3749Z" fill="white"/>
<path d="M13.0726 9.91727C12.9059 9.75008 12.714 9.66675 12.497 9.66675C12.28 9.66675 12.0878 9.75034 11.921 9.91727L0.250526 21.5879C0.0833333 21.7548 0 21.9468 0 22.1642C0 22.381 0.0835965 22.5731 0.250526 22.74L1.50246 23.9923C1.66939 24.1592 1.86149 24.2421 2.07851 24.2421C2.29553 24.2421 2.48763 24.1587 2.65456 23.9923L12.497 14.1494L22.3398 23.9923C22.5067 24.1592 22.6989 24.2424 22.9155 24.2424C23.1329 24.2424 23.325 24.1593 23.4918 23.9923L24.7439 22.74C24.9108 22.5731 24.9937 22.381 24.9937 22.1642C24.9937 21.9468 24.9103 21.7548 24.7439 21.5879L13.0726 9.91727Z" fill="white"/>
</g>
</svg>
