<svg width="21" height="21" viewBox="0 0 21 21" fill="none" xmlns="http://www.w3.org/2000/svg">
<path fill-rule="evenodd" clip-rule="evenodd" d="M8.70935 11.1508C8.15027 10.1824 7.69846 9.23945 7.3539 8.32187C7.00934 7.40429 7.05304 6.81552 7.48501 6.55554C8.11999 6.18894 8.61305 5.80108 8.96421 5.39197C9.31537 4.98286 9.20036 4.11003 8.61918 2.77345C8.02549 1.43352 7.35672 0.912149 6.61286 1.20933C5.869 1.50651 5.18921 1.82755 4.57345 2.17247C4.22421 2.37411 3.96489 2.79105 3.79548 3.4233C3.62607 4.05555 3.58777 4.83699 3.68058 5.76762C3.7734 6.69826 4.01426 7.75242 4.40318 8.93013C4.7921 10.1078 5.36232 11.3475 6.11387 12.6493C6.86541 13.951 7.65475 15.0615 8.48189 15.9809C9.30904 16.9003 10.1024 17.6329 10.8619 18.1786C11.6215 18.7243 12.3142 19.081 12.9402 19.2487C13.5662 19.4164 14.0601 19.4012 14.4218 19.2029C15.0251 18.8546 15.6413 18.4327 16.2706 17.9371C16.8999 17.4415 16.7828 16.6016 15.9192 15.4175C15.0523 14.2459 14.3539 13.7099 13.824 13.8094C13.2941 13.909 12.7134 14.1358 12.0818 14.4899C11.6373 14.7465 11.1039 14.4962 10.4815 13.739C9.85914 12.9819 9.26842 12.1191 8.70935 11.1508Z" fill="white"/>
</svg>
