<svg width="68" height="75" viewBox="0 0 68 75" fill="none" xmlns="http://www.w3.org/2000/svg">
<path fill-rule="evenodd" clip-rule="evenodd" d="M68 0V75H0L68 0Z" fill="url(#paint0_linear)"/>
<g filter="url(#filter0_d)">
<path d="M53 53C53 53.1061 52.9826 53.2122 52.9479 53.3182C52.9132 53.4243 52.8438 53.5127 52.7396 53.5834L47.7396 58.675C47.3576 59.0993 46.967 59.1081 46.5677 58.7015C46.1684 58.2949 46.1771 57.8971 46.5938 57.5082L50.1354 53.8486H33.8333C33.5903 53.8486 33.3906 53.769 33.2344 53.6099C33.0781 53.4508 33 53.2475 33 53C33 52.7525 33.0781 52.5492 33.2344 52.3901C33.3906 52.231 33.5903 52.1514 33.8333 52.1514H50.1354L46.5938 48.4918C46.1771 48.1029 46.1684 47.7051 46.5677 47.2985C46.967 46.8919 47.3576 46.9007 47.7396 47.325L52.7396 52.4166C52.8438 52.4873 52.9132 52.5757 52.9479 52.6818C52.9826 52.7879 53 52.8939 53 53Z" fill="white"/>
</g>
<defs>
<filter id="filter0_d" x="31" y="46" width="24" height="16" filterUnits="userSpaceOnUse" color-interpolation-filters="sRGB">
<feFlood flood-opacity="0" result="BackgroundImageFix"/>
<feColorMatrix in="SourceAlpha" type="matrix" values="0 0 0 0 0 0 0 0 0 0 0 0 0 0 0 0 0 0 127 0"/>
<feOffset dy="1"/>
<feGaussianBlur stdDeviation="1"/>
<feColorMatrix type="matrix" values="0 0 0 0 0 0 0 0 0 0 0 0 0 0 0 0 0 0 0.368253 0"/>
<feBlend mode="normal" in2="BackgroundImageFix" result="effect1_dropShadow"/>
<feBlend mode="normal" in="SourceGraphic" in2="effect1_dropShadow" result="shape"/>
</filter>
<linearGradient id="paint0_linear" x1="6.34362" y1="-17.0905" x2="-10.2773" y2="73.7035" gradientUnits="userSpaceOnUse">
<stop stop-color="#F1BB3E"/>
<stop offset="0.61922" stop-color="#FDE54C"/>
<stop offset="1" stop-color="#F1C145"/>
</linearGradient>
</defs>
</svg>
