<svg width="34" height="34" viewBox="0 0 34 34" fill="none" xmlns="http://www.w3.org/2000/svg">
<path d="M9.86 19.72C15.3055 19.72 19.72 15.3055 19.72 9.86C19.72 4.41447 15.3055 0 9.86 0C4.41447 0 0 4.41447 0 9.86C0 15.3055 4.41447 19.72 9.86 19.72Z" fill="#28A8EA"/>
<path d="M24.14 34C29.5856 34 34 29.5856 34 24.14C34 18.6945 29.5856 14.28 24.14 14.28C18.6945 14.28 14.28 18.6945 14.28 24.14C14.28 29.5856 18.6945 34 24.14 34Z" fill="#28A8EA"/>
<path d="M16.9999 33.3199C26.0132 33.3199 33.3199 26.0132 33.3199 16.9999C33.3199 7.98664 26.0132 0.679932 16.9999 0.679932C7.98664 0.679932 0.679932 7.98664 0.679932 16.9999C0.679932 26.0132 7.98664 33.3199 16.9999 33.3199Z" fill="#28A8EA"/>
<path fill-rule="evenodd" clip-rule="evenodd" d="M12.7677 16.69C12.1297 16.2697 11.5974 15.7077 11.2124 15.0478C10.8404 14.3511 10.6568 13.5692 10.6796 12.7797C10.6513 11.7777 10.9932 10.8003 11.64 10.0344C12.312 9.26534 13.1757 8.688 14.1434 8.36119C15.196 7.98948 16.3051 7.80288 17.4214 7.80965C18.1519 7.80273 18.8817 7.85871 19.6026 7.97697C20.1183 8.05669 20.6248 8.18747 21.1146 8.3674C21.5645 8.51979 21.9707 8.77923 22.2982 9.1234C22.5395 9.40648 22.6695 9.7678 22.6638 10.1398C22.6813 10.53 22.5431 10.9112 22.2796 11.1995C22.0296 11.4655 21.6778 11.6121 21.3129 11.6023C21.0645 11.6005 20.8195 11.5455 20.5941 11.4411C20.0393 11.1928 19.4678 10.9837 18.8837 10.8153C18.346 10.6736 17.7916 10.6048 17.2355 10.6108C16.5113 10.5839 15.7948 10.7668 15.172 11.1375C14.6363 11.4629 14.3204 12.0543 14.3479 12.6806C14.344 13.0839 14.4974 13.4728 14.7754 13.765C15.1061 14.1078 15.4967 14.3872 15.9281 14.5892C16.4114 14.829 17.1323 15.1471 18.0906 15.5436C18.1968 15.5771 18.3004 15.6186 18.4005 15.6676C19.3357 16.0374 20.2323 16.4982 21.0774 17.0433C21.745 17.4786 22.3079 18.0564 22.7257 18.7351C23.1369 19.4481 23.3428 20.2609 23.3206 21.0837C23.3551 22.0915 23.0663 23.0839 22.4964 23.9158C21.916 24.7033 21.1132 25.299 20.1913 25.6262C19.0805 26.0229 17.9067 26.214 16.7274 26.1901C15.1067 26.2472 13.4937 25.9423 12.0057 25.2977C11.6249 25.1284 11.291 24.8689 11.0328 24.5417C10.8188 24.2421 10.7079 23.8811 10.7167 23.513C10.6951 23.1199 10.8468 22.7372 11.1318 22.4657C11.4274 22.2068 11.8112 22.0714 12.2038 22.0877C12.6408 22.0937 13.07 22.2042 13.4555 22.4099C13.9346 22.6496 14.3126 22.8294 14.5896 22.9491C14.9059 23.0816 15.2336 23.1853 15.5687 23.2589C15.9817 23.3497 16.4036 23.3933 16.8264 23.389C17.574 23.4422 18.3179 23.2437 18.9396 22.8252C19.4118 22.4556 19.6771 21.8812 19.6521 21.2821C19.653 20.8629 19.4934 20.4593 19.206 20.1542C18.8263 19.7629 18.3819 19.4401 17.8924 19.1999C17.314 18.8942 16.5001 18.5224 15.4508 18.0844C14.5121 17.7104 13.6133 17.2433 12.7677 16.69" fill="white"/>
<path opacity="0.1" d="M12.9405 0.496494C12.5093 0.352141 12.0685 0.238523 11.6213 0.156494C6.17389 1.9047 1.9047 6.17389 0.156494 11.6213C0.238537 12.0685 0.352155 12.5093 0.496494 12.9405C0.617043 13.3309 0.769421 13.7107 0.952094 14.0761C2.16166 7.39253 7.39253 2.16166 14.0761 0.952094C13.7106 0.769443 13.3308 0.617065 12.9405 0.496494Z" fill="black"/>
<path opacity="0.1" d="M12.9403 0.496338C6.80251 2.01018 2.01018 6.80251 0.496338 12.9403C0.616887 13.3307 0.769265 13.7105 0.951938 14.0759C2.1615 7.39237 7.39237 2.1615 14.0759 0.951938C13.7105 0.769286 13.3307 0.616909 12.9403 0.496338Z" fill="black"/>
<path opacity="0.1" d="M33.5037 21.0597C33.3831 20.6693 33.2307 20.2895 33.0481 19.9241C31.8385 26.6076 26.6076 31.8385 19.9241 33.0481C20.2895 33.2307 20.6693 33.3831 21.0597 33.5037C21.4908 33.648 21.9317 33.7616 22.3789 33.8437C27.8263 32.0955 32.0955 27.8263 33.8437 22.3789C33.7616 21.9317 33.648 21.4908 33.5037 21.0597Z" fill="black"/>
<path opacity="0.1" d="M33.0481 19.9241C31.8385 26.6076 26.6076 31.8385 19.9241 33.0481C20.2895 33.2307 20.6693 33.3831 21.0597 33.5037C27.1975 31.9898 31.9898 27.1975 33.5037 21.0597C33.3831 20.6693 33.2307 20.2895 33.0481 19.9241Z" fill="black"/>
</svg>
