<svg width="17" height="17" viewBox="0 0 17 17" fill="none" xmlns="http://www.w3.org/2000/svg">
<path fill-rule="evenodd" clip-rule="evenodd" d="M1.88889 0H15.1111C16.15 0 17 0.85 17 1.88889V15.1111C17 16.15 16.15 17 15.1111 17H1.88889C0.85 17 0 16.15 0 15.1111V1.88889C0 0.85 0.85 0 1.88889 0ZM6.42222 13.2222V9.82222V9.72778H8.78333C10.2 9.72778 10.8611 9.44444 11.4277 8.97222C11.9944 8.5 12.2777 7.74444 12.2777 6.8C12.2777 5.95 12.0889 5.19444 11.4277 4.62778C10.8611 4.06111 10.2 3.77778 8.78333 3.77778H4.72222V13.2222H6.42222Z" fill="#5D5D5D"/>
<path d="M6.41602 8.37443V4.97443H8.84082C9.57885 4.97443 10.106 5.16332 10.4222 5.54109C10.7385 5.91887 10.9493 6.2022 10.9493 6.67443C10.9493 7.24109 10.7385 7.52443 10.4222 7.9022C10.106 8.18554 9.68423 8.37443 8.94625 8.37443H6.41602Z" fill="#5D5D5D"/>
</svg>
