<svg width="16" height="16" viewBox="0 0 16 16" fill="none" xmlns="http://www.w3.org/2000/svg">
<path d="M0.961409 3.49945C1.55045 4.85268 2.54486 6.19118 3.93638 6.76811C4.09523 6.83348 4.27558 6.88251 4.46089 6.92337C4.83152 6.3775 5.25676 5.93459 5.75479 5.57178C6.18332 5.26126 6.63173 5.01775 7.09335 4.82652C6.96098 4.735 6.82201 4.65165 6.67639 4.57647C6.09728 4.27739 5.4702 4.01426 4.85963 3.73152C5.43378 3.88515 6.09231 3.94235 6.64164 4.1401C6.98414 4.26433 7.30017 4.43593 7.59469 4.64022C8.4733 4.34439 9.39161 4.20221 10.3082 4.09436C9.56534 2.87516 7.98021 1.8962 6.78559 1.4533C5.53802 0.990767 4.12499 0.933566 2.73678 0.791396C1.88632 0.704761 0.961393 0.390988 0.284661 0.0248999C0.130783 -0.0584504 -0.0330228 0.0804669 0.0199244 0.248802C0.352516 1.29965 0.521285 2.48944 0.961409 3.49945Z" fill="#5D5D5D"/>
<path d="M15.629 3.33931C14.0638 4.17935 12.2685 4.28231 10.5097 4.4817C9.65097 4.57976 8.80049 4.70068 7.99137 4.94257C7.81599 4.99486 7.64061 5.05371 7.46852 5.11908C6.95725 5.31193 6.46418 5.56525 5.99923 5.90355C5.56242 6.2206 5.20502 6.59651 4.90389 7.00999C4.42405 7.67024 4.08982 8.4302 3.81516 9.21959C3.31381 10.6529 3.08382 12.1761 3.1285 13.6911C3.1467 14.3056 3.15663 14.9446 3.3105 15.5444C3.34525 15.6768 3.37834 15.8451 3.48258 15.9432C3.61826 16.0723 3.86149 15.9399 3.80689 15.752C3.41309 14.4265 3.65797 12.8772 4.20234 11.6106C4.82777 10.1544 6.03563 9.28822 7.51154 8.76035C7.90368 8.6198 8.30411 8.49722 8.71112 8.38119C8.7194 8.37793 8.72767 8.37793 8.73594 8.37793C8.81702 8.37793 8.85177 8.49559 8.76738 8.53319C8.28755 8.74729 7.81102 8.96302 7.35764 9.19673C5.13717 10.3408 4.16757 13.0047 4.99984 13.0047C5.06769 13.0047 5.1471 12.9867 5.2381 12.9491C6.52207 12.4245 8.04761 12.4196 9.45899 12.1614C9.95537 12.0715 10.4385 11.9489 10.8919 11.7626C12.6921 11.0206 13.9794 9.56937 14.7454 7.82391C15.3163 6.52136 15.538 4.98347 15.9698 3.63023C16.0261 3.45699 15.902 3.30829 15.7498 3.30829C15.7118 3.30662 15.6704 3.31644 15.629 3.33931Z" fill="#5D5D5D"/>
</svg>
