<svg width="17" height="13" viewBox="0 0 17 13" fill="none" xmlns="http://www.w3.org/2000/svg">
<path d="M2.75955 5.9805C2.40567 6.33791 2.40567 6.91959 2.75955 7.2805C3.11343 7.63791 3.68934 7.63791 4.04669 7.2805C6.49608 4.80665 10.4824 4.80665 12.9318 7.2805C13.1087 7.45921 13.3412 7.55031 13.5736 7.55031C13.8061 7.55031 14.0385 7.45921 14.2155 7.2805C14.5693 6.92309 14.5693 6.34142 14.2155 5.9805C11.0583 2.78832 5.91669 2.78832 2.75955 5.9805Z" fill="#5D5D5D"/>
<path d="M5.21658 8.46142C4.8627 8.81883 4.8627 9.4005 5.21658 9.76142C5.57046 10.1188 6.14638 10.1188 6.50372 9.76142C7.59658 8.65414 9.37985 8.65414 10.4727 9.76142C10.6496 9.94012 10.8821 10.0312 11.1145 10.0312C11.347 10.0312 11.5794 9.94012 11.7564 9.76142C12.1103 9.404 12.1103 8.82233 11.7564 8.46492C9.95576 6.63931 7.02066 6.63931 5.21658 8.46142Z" fill="#5D5D5D"/>
<path d="M8.48816 12.9851C9.15688 12.9851 9.69898 12.4376 9.69898 11.7622C9.69898 11.0868 9.15688 10.5393 8.48816 10.5393C7.81944 10.5393 7.27734 11.0868 7.27734 11.7622C7.27734 12.4376 7.81944 12.9851 8.48816 12.9851Z" fill="#5D5D5D"/>
<path d="M16.7103 3.4576C12.1758 -1.11868 4.7999 -1.11868 0.265408 3.4576C-0.0884694 3.81501 -0.0884694 4.39668 0.265408 4.7576C0.619286 5.11501 1.1952 5.11501 1.55255 4.7576C5.37582 0.892641 11.5999 0.892641 15.4266 4.7576C15.6036 4.93631 15.836 5.02741 16.0685 5.02741C16.3009 5.02741 16.5334 4.93631 16.7103 4.7576C17.0642 4.40019 17.0642 3.81852 16.7103 3.4576Z" fill="#5D5D5D"/>
</svg>
