<svg width="100" height="19" viewBox="0 0 100 19" fill="none" xmlns="http://www.w3.org/2000/svg">
<path d="M10.4729 0.312955L13.0169 6.31126L19.5298 6.86865C19.9815 6.90751 20.1652 7.46899 19.8224 7.76456L14.8822 12.0283L16.3626 18.3713C16.4653 18.8121 15.9859 19.1588 15.5978 18.9246L10.0006 15.5618L4.40348 18.9246C4.01439 19.1578 3.53598 18.8111 3.63865 18.3713L5.11904 12.0283L0.177895 7.76354C-0.164997 7.46797 0.0177418 6.90649 0.470483 6.86763L6.98339 6.31024L9.52737 0.312955C9.70395 -0.104318 10.2963 -0.104318 10.4729 0.312955Z" fill="#D1E300"/>
<path d="M37.4729 0.312955L40.0169 6.31126L46.5298 6.86865C46.9815 6.90751 47.1652 7.46899 46.8224 7.76456L41.8822 12.0283L43.3626 18.3713C43.4653 18.8121 42.9859 19.1588 42.5978 18.9246L37.0006 15.5618L31.4035 18.9246C31.0144 19.1578 30.536 18.8111 30.6386 18.3713L32.119 12.0283L27.1779 7.76354C26.835 7.46797 27.0177 6.90649 27.4705 6.86763L33.9834 6.31024L36.5274 0.312955C36.7039 -0.104318 37.2963 -0.104318 37.4729 0.312955Z" fill="#D1E300"/>
<path d="M63.4729 0.312955L66.0169 6.31126L72.5298 6.86865C72.9815 6.90751 73.1652 7.46899 72.8224 7.76456L67.8822 12.0283L69.3626 18.3713C69.4653 18.8121 68.9859 19.1588 68.5978 18.9246L63.0006 15.5618L57.4035 18.9246C57.0144 19.1578 56.536 18.8111 56.6386 18.3713L58.119 12.0283L53.1779 7.76354C52.835 7.46797 53.0177 6.90649 53.4705 6.86763L59.9834 6.31024L62.5274 0.312955C62.7039 -0.104318 63.2963 -0.104318 63.4729 0.312955Z" fill="#D1E300"/>
<path d="M90.4729 0.312955L93.0169 6.31126L99.5298 6.86865C99.9815 6.90751 100.165 7.46899 99.8224 7.76456L94.8822 12.0283L96.3626 18.3713C96.4653 18.8121 95.9859 19.1588 95.5978 18.9246L90.0006 15.5618L84.4035 18.9246C84.0144 19.1578 83.536 18.8111 83.6386 18.3713L85.119 12.0283L80.1779 7.76354C79.835 7.46797 80.0177 6.90649 80.4705 6.86763L86.9834 6.31024L89.5274 0.312955C89.7039 -0.104318 90.2963 -0.104318 90.4729 0.312955Z" fill="#D1E300"/>
</svg>
