<svg width="21" height="14" viewBox="0 0 21 14" fill="none" xmlns="http://www.w3.org/2000/svg">
<path d="M2.66532 2.93884L7.52073 3.57937C7.69018 4.02087 8.54398 6.19407 8.70451 6.58296C8.70451 6.58296 8.70451 6.58296 8.70226 6.58296C7.29558 7.29669 5.88889 8.00813 4.4822 8.72185C4.97042 8.63035 5.46532 8.5846 5.96245 8.5846C6.61341 8.5846 7.25099 8.66466 7.85959 8.8225C9.08793 9.14277 10.1981 9.65516 11.2704 10.1516C12.2268 10.5931 13.1319 11.0117 14.0347 11.2519C14.1618 11.2863 14.2844 11.316 14.407 11.3411C13.337 9.09244 10.459 3.03264 9.89048 1.69898C9.62296 1.06989 9.25513 0.836557 8.7335 0.76793L3.03095 0.0153156C2.24401 -0.0876256 1.52394 0.481982 1.42139 1.2895C1.32328 2.09701 1.87838 2.8359 2.66532 2.93884Z" fill="#5D5D5D"/>
<path d="M0.371723 13.448C0.530003 13.5647 0.710576 13.6196 0.89115 13.6196C0.931277 13.6196 0.969175 13.6173 1.00707 13.6104C1.24338 13.5784 1.46631 13.4503 1.61567 13.2376C2.19306 12.4117 3.08701 11.7621 4.12809 11.4052C4.72554 11.2016 5.34975 11.0987 5.96281 11.0987C8.18542 11.0987 10.0915 12.4621 12.0978 13.2467C13.1723 13.6676 14.2937 13.9787 15.5131 13.9787C16.0258 13.9787 16.5564 13.9238 17.1071 13.798C18.4023 13.5052 19.5125 12.8738 20.315 11.9885C20.5067 11.7758 20.6806 11.5516 20.8344 11.3114C21.1064 10.8905 20.9927 10.3232 20.5825 10.0441C20.4309 9.94114 20.2615 9.8931 20.0921 9.8931C19.8023 9.8931 19.5192 10.0372 19.3475 10.3026C19.2784 10.4101 19.2026 10.513 19.1201 10.6137C18.5628 11.2954 17.7268 11.7849 16.7236 12.0114C15.7985 12.2196 14.7774 12.1578 13.8657 11.9153C12.9071 11.6591 11.9797 11.2314 10.9943 10.7761C9.94654 10.2934 8.86533 9.79245 7.69274 9.48594C7.13542 9.33953 6.55134 9.26862 5.96058 9.26862C5.1558 9.26862 4.33765 9.40356 3.55962 9.66894C2.87968 9.90228 2.24879 10.2271 1.68255 10.6366C1.0851 11.0689 0.574589 11.5836 0.164398 12.1693C0.137646 12.2082 0.115353 12.247 0.0952898 12.2882C-0.0986593 12.684 0.00834712 13.1804 0.371723 13.448Z" fill="#5D5D5D"/>
<path d="M16.5166 9.20226C18.2539 9.20226 19.6622 7.75713 19.6622 5.97448C19.6622 4.19183 18.2539 2.7467 16.5166 2.7467C14.7794 2.7467 13.3711 4.19183 13.3711 5.97448C13.3711 7.75713 14.7794 9.20226 16.5166 9.20226Z" fill="#5D5D5D"/>
</svg>
