<svg width="23" height="12" viewBox="0 0 23 12" fill="none" xmlns="http://www.w3.org/2000/svg">
<path d="M7.36133 3.85797H15.6401V8.13521H7.36133V3.85797Z" fill="#5D5D5D"/>
<path d="M21.797 2.69464H21.2227V9.00212H21.797C22.4608 9.00126 22.9988 8.43747 22.9994 7.74144V3.95489C22.9986 3.25908 22.4606 2.69529 21.797 2.69464Z" fill="#5D5D5D"/>
<path d="M18.9704 0.0275269H16.6895V11.9656H18.9704C19.6342 11.9647 20.1722 11.4009 20.1728 10.7051V1.28799C20.1722 0.592177 19.6342 0.0283869 18.9704 0.0275269Z" fill="#5D5D5D"/>
<path d="M2.82617 1.28799V10.7051C2.82679 11.4009 3.36482 11.965 4.0286 11.9656H6.30957V0.0275269H4.0286C3.36482 0.0283869 2.82679 0.592177 2.82617 1.28799Z" fill="#5D5D5D"/>
<path d="M0 3.95511V7.74144C0.000615371 8.43747 0.538652 9.00126 1.20243 9.00212H1.77677V2.69464H1.20243C0.538652 2.69529 0.000820491 3.25929 0 3.95511Z" fill="#5D5D5D"/>
</svg>
