<svg width="30" height="18" viewBox="0 0 30 18" fill="none" xmlns="http://www.w3.org/2000/svg">
<path opacity="0.5" fill-rule="evenodd" clip-rule="evenodd" d="M30 9C30 9.15911 29.974 9.31823 29.9219 9.47734C29.8698 9.63645 29.7656 9.76905 29.6094 9.87512L22.1094 17.5125C21.5365 18.149 20.9505 18.1622 20.3516 17.5523C19.7526 16.9423 19.7656 16.3457 20.3906 15.7623L25.7031 10.2729H1.25C0.885415 10.2729 0.585941 10.1536 0.351561 9.9149C0.117186 9.67623 0 9.37126 0 9C0 8.62874 0.117186 8.32378 0.351561 8.0851C0.585941 7.84643 0.885415 7.7271 1.25 7.7271H25.7031L20.3906 2.23773C19.7656 1.65432 19.7526 1.05765 20.3516 0.447716C20.9505 -0.162216 21.5365 -0.148957 22.1094 0.487497L29.6094 8.12488C29.7656 8.23096 29.8698 8.36355 29.9219 8.52266C29.974 8.68178 30 8.84089 30 9Z" fill="white"/>
</svg>
